<svg width="30" height="53" viewBox="0 0 30 53" fill="none" xmlns="http://www.w3.org/2000/svg">
<path d="M0.178272 40.015C0.178272 40.015 -1.31763 35.9718 4.35704 27.289C4.35704 27.289 3.32725 27.3216 1.76089 29.1318C1.76089 29.1318 2.50342 22.0263 12.785 19.2513C12.785 19.2513 12.7688 16.8177 14.72 14.124C14.72 14.124 15.0722 15.815 15.3432 16.6118C15.3432 16.6118 15.7335 15.2568 16.3026 14.5197C16.3026 14.5197 16.9692 17.338 18.6331 19.3217C18.6331 19.3217 19.4786 18.9098 22.7198 21.7607L25.9663 24.7905C26.1235 24.9368 26.2807 25.0885 26.4216 25.2457C26.5625 25.4029 26.8877 25.7118 27.4893 26.0154C28.4432 26.5031 29.2291 27.2836 29.6735 28.2538C30.0963 29.1806 30.2372 30.3025 29.2941 31.2456C29.2941 31.2456 28.2915 33.3485 26.2481 32.1832C25.3484 31.6683 24.3403 31.3811 23.2997 31.4353C22.129 31.4949 20.2862 31.2347 17.7009 29.8852C17.7009 29.8852 14.0804 33.8092 20.8987 39.1966C22.7956 40.698 24.4054 42.5353 25.6249 44.6274C26.904 46.8062 28.2264 49.6192 28.6221 52.3833C28.6221 52.3833 24.2048 45.4621 13.5276 45.7548C13.5276 45.7548 4.02642 45.8252 2.61724 38.6004C2.61724 38.6004 2.53052 38.1777 2.68228 37.0558C2.68228 37.0558 1.59829 37.6953 0.167433 40.0205L0.178272 40.015Z" fill="#F9CE00"/>
<path d="M25.6896 5.57711C25.397 5.39825 25.0989 5.26275 24.7411 5.31695C24.7086 5.31695 24.6707 5.31695 24.6219 5.31695C24.649 5.27359 24.6653 5.24107 24.6815 5.21397C24.7466 5.09474 24.7899 4.97008 24.7899 4.82916C24.7899 4.55274 24.6707 4.31969 24.5081 4.10289C24.4918 4.08121 24.4701 4.06495 24.4485 4.04869C24.3997 4.01617 24.3509 4.03785 24.3455 4.09205C24.3455 4.15167 24.3509 4.21671 24.3617 4.27633C24.4105 4.59068 24.3888 4.89962 24.2371 5.18145C24.1558 5.33863 24.042 5.46329 23.874 5.54459C23.6626 5.64757 23.462 5.78307 23.2561 5.90231C23.229 5.91857 23.1965 5.94024 23.1531 5.96734C23.1748 5.83727 23.1965 5.73429 23.2127 5.62047C23.229 5.61505 23.2452 5.60421 23.2615 5.59337C23.5759 5.44161 23.733 5.17061 23.8143 4.84542C23.8523 4.7045 23.7927 4.6503 23.6463 4.6774C23.5217 4.7045 23.4241 4.7858 23.3374 4.87794C23.2778 4.94298 23.229 5.00802 23.1748 5.07848C23.1152 4.98092 23.0664 4.88878 23.0013 4.8129C22.9309 4.7316 22.8442 4.66114 22.7629 4.5961C22.6707 4.52022 22.6382 4.53648 22.6003 4.6503C22.5298 4.88336 22.4648 5.11642 22.3997 5.34405C22.2697 5.38741 22.1287 5.41993 21.9987 5.47955C21.8632 5.53917 21.8686 5.61505 21.9932 5.68551C22.1558 5.78307 22.3401 5.82643 22.5298 5.82101C22.5948 5.82101 22.6382 5.83185 22.6816 5.88063C22.7303 5.93483 22.7845 5.9836 22.8279 6.0378C22.9092 6.14078 22.9038 6.16246 22.8062 6.2546C22.5352 6.52018 22.2697 6.78575 22.0041 7.05675C21.7331 7.32775 21.4621 7.60416 21.1315 7.79928C20.8171 7.98898 20.4811 8.11906 20.1017 8.09738C19.7765 8.08112 19.5326 7.93478 19.3591 7.65836C19.2345 7.45241 19.1965 7.21935 19.1965 6.98629C19.1965 6.83453 19.2345 6.68278 19.2508 6.53102C19.2616 6.53102 19.2724 6.52018 19.2833 6.51476C19.4513 6.70988 19.6518 6.83453 19.9066 6.84537C20.1721 6.85621 20.3944 6.76407 20.5732 6.57438C20.7087 6.43346 20.7738 6.26002 20.79 6.07032C20.8117 5.79391 20.7033 5.56627 20.5028 5.38199C20.9418 4.87794 20.725 4.29801 20.3673 4.07579C20.1613 3.95113 19.9445 3.90777 19.7114 3.96739C19.3808 4.05411 19.1911 4.28175 19.0936 4.5961C18.6546 4.49312 18.3294 4.5961 18.1234 4.91046C18.0367 5.04596 17.9933 5.19229 17.9987 5.34947C18.0042 5.60963 18.1234 5.82101 18.3294 5.98902C18.0746 6.42804 17.679 6.61232 17.2183 6.65568C16.9527 6.68278 16.6817 6.62316 16.427 6.51476C16.0801 6.36842 15.7983 6.13536 15.5544 5.85353C15.446 5.72345 15.3376 5.58795 15.2563 5.43619C15.1153 5.17603 15.1479 4.8942 15.2183 4.61778C15.2508 4.49312 15.3105 4.3793 15.4134 4.30885C15.5598 4.20045 15.7061 4.09747 15.8687 4.01075C16.0584 3.90777 16.2589 3.91319 16.4541 3.98907C16.6004 4.04327 16.6438 4.11915 16.6492 4.27091C16.6492 4.31969 16.6492 4.36304 16.6492 4.41182C16.6492 4.7316 16.8877 5.01344 17.2074 5.06764C17.24 5.06764 17.2725 5.07306 17.2996 5.06764C17.3484 5.0568 17.37 5.02428 17.3484 4.9755C17.3375 4.95382 17.3267 4.92672 17.3104 4.91046C17.24 4.82374 17.2291 4.72618 17.2671 4.61778C17.2887 4.56358 17.2996 4.50938 17.3213 4.45518C17.3863 4.27633 17.4568 4.09747 17.5055 3.91319C17.576 3.66929 17.5652 3.4254 17.4351 3.19234C17.24 2.84546 16.4974 2.60157 16.0638 3.00806C15.7332 3.31158 15.4297 3.63135 15.2075 4.02701C15.1912 4.05953 15.1641 4.08663 15.1424 4.11373C15.1262 4.07579 15.1262 4.05411 15.1316 4.02701C15.2346 3.55547 15.446 3.13814 15.7766 2.79126C16.0151 2.53653 16.0909 2.24385 16.0422 1.90782C16.0042 1.66392 15.8904 1.4688 15.7278 1.29536C15.4243 0.959328 15.2075 0.574513 15.0882 0.135498C15.0774 0.102979 15.072 0.0704591 15.0557 0.0487794C15.0395 0.0270997 15.0124 0.00541993 14.9907 0C14.9744 0 14.9473 0.0270997 14.9365 0.0433595C14.9148 0.102979 14.8931 0.157178 14.8769 0.216797C14.763 0.607032 14.5679 0.948488 14.2969 1.252C14.2427 1.31162 14.1994 1.37124 14.1506 1.43086C13.8688 1.794 13.8308 2.44439 14.2373 2.80752C14.2915 2.8563 14.3349 2.91592 14.3782 2.97554C14.633 3.317 14.8064 3.69097 14.8769 4.11915C14.8606 4.11373 14.8443 4.11373 14.8389 4.10831C14.8227 4.08663 14.8118 4.06495 14.7956 4.04327C14.5733 3.64761 14.2753 3.32242 13.9446 3.0189C13.82 2.90508 13.6736 2.81836 13.5056 2.8021C13.2942 2.78042 13.0937 2.80752 12.8986 2.89966C12.6655 3.00806 12.5084 3.18692 12.4596 3.44708C12.4271 3.63677 12.4487 3.82105 12.5084 3.99991C12.5734 4.18961 12.6439 4.3793 12.7143 4.569C12.7577 4.69366 12.7685 4.80748 12.6764 4.91588C12.6493 4.95382 12.6113 4.99718 12.6547 5.04054C12.6818 5.06222 12.7306 5.07306 12.7685 5.06764C12.9907 5.02428 13.2509 4.87252 13.3213 4.57984C13.3484 4.47686 13.3484 4.36304 13.3484 4.25465C13.3484 4.11915 13.4026 4.02701 13.5273 3.99449C13.6465 3.96197 13.7712 3.92945 13.8904 3.94571C14.2211 3.98365 14.4704 4.17877 14.6872 4.41724C14.7034 4.4335 14.7143 4.44976 14.7197 4.47144C14.8552 4.83458 14.904 5.19771 14.6709 5.54459C14.4216 5.92399 14.1072 6.23834 13.7007 6.4443C13.1858 6.69904 12.6601 6.74781 12.1398 6.46056C11.9338 6.34674 11.7712 6.2004 11.6737 5.9836C11.988 5.66925 12.0693 5.33863 11.923 5.01344C11.8525 4.85626 11.7441 4.73702 11.5978 4.6503C11.3756 4.52022 11.1371 4.5148 10.9041 4.5961C10.7252 4.15709 10.4921 3.95655 10.1236 3.94029C9.78755 3.92403 9.52197 4.06495 9.35937 4.35763C9.15342 4.72076 9.2293 5.06222 9.49487 5.37657C9.46777 5.40909 9.44067 5.43077 9.41899 5.45787C9.22387 5.68009 9.15884 5.94025 9.23472 6.2275C9.40273 6.85079 10.1561 7.05133 10.6222 6.6069C10.6547 6.57438 10.6873 6.54728 10.7306 6.50934C10.8282 6.87247 10.839 7.20851 10.7035 7.5337C10.5789 7.8318 10.3566 8.02692 10.0369 8.0757C9.88511 8.09738 9.72251 8.09196 9.57617 8.07028C9.18052 7.99982 8.83364 7.8047 8.53554 7.54454C8.30791 7.34401 8.09653 7.12179 7.87973 6.90499C7.65209 6.68278 7.41904 6.45514 7.1914 6.23292C7.11552 6.16246 7.1101 6.12994 7.17514 6.04864C7.22392 5.9836 7.28896 5.92941 7.34316 5.86437C7.3811 5.82101 7.41904 5.81017 7.47866 5.81017C7.64125 5.82101 7.79843 5.78307 7.94477 5.71803C8.00981 5.68551 8.10737 5.66925 8.10195 5.57169C8.09653 5.47955 8.00439 5.45787 7.92851 5.43619C7.81469 5.39825 7.70087 5.37115 7.58164 5.33863C7.57622 5.0568 7.45156 4.80748 7.35942 4.52022C7.11552 4.66656 6.93666 4.83458 6.8391 5.09474C6.77949 5.01886 6.73071 4.95382 6.67651 4.88878C6.58979 4.79122 6.48681 4.7045 6.35673 4.6774C6.20497 4.64488 6.15077 4.7045 6.18871 4.85084C6.28085 5.19229 6.44887 5.46871 6.78491 5.61505C6.80659 5.72887 6.82826 5.83185 6.84994 5.95651C6.81201 5.94025 6.79033 5.92941 6.77407 5.91857C6.54101 5.75055 6.29711 5.60421 6.03695 5.49039C6.01527 5.47955 5.9936 5.46871 5.97192 5.44703C5.67924 5.15977 5.59252 4.80748 5.62504 4.41182C5.63046 4.32511 5.65756 4.23839 5.65756 4.15167C5.65756 4.11373 5.63046 4.07037 5.6142 4.02701C5.57626 4.04327 5.5329 4.06495 5.49496 4.08121C5.48412 4.08121 5.48412 4.09747 5.47328 4.10289C5.36488 4.24923 5.28358 4.41182 5.22938 4.58526C5.16977 4.80206 5.20229 5.0026 5.3161 5.19771C5.33236 5.22481 5.34862 5.25733 5.3703 5.30611C5.32152 5.30611 5.289 5.30611 5.2619 5.30611C5.02885 5.27901 4.80121 5.30069 4.58983 5.41451C4.51937 5.45245 4.44349 5.49039 4.36762 5.52833C4.34052 5.54459 4.308 5.55543 4.29174 5.57711C4.27548 5.59879 4.2538 5.63673 4.26464 5.65841C4.27006 5.68009 4.308 5.69093 4.3351 5.69635C4.3622 5.69635 4.39471 5.68551 4.42723 5.68009C4.54105 5.66383 4.65487 5.63673 4.76327 5.64215C5.20228 5.65841 5.60336 5.78307 5.97734 6.02696C6.59521 6.42262 7.15346 6.89415 7.66835 7.41447C7.99897 7.74508 8.31875 8.08654 8.6331 8.42799C9.00708 8.82907 9.35937 9.25182 9.65747 9.71794C9.95557 10.1841 10.194 10.6773 10.3621 11.203C10.3566 11.3927 10.4976 11.4361 10.6385 11.4848C10.6764 11.4957 10.7198 11.5065 10.7577 11.5174C11.2401 11.6312 11.7279 11.6908 12.2211 11.6962C12.9148 11.7071 13.6086 11.6962 14.3078 11.6962C14.3728 11.6962 14.4433 11.7016 14.5083 11.7071C14.7305 11.7125 14.9527 11.7233 15.175 11.7233C15.3647 11.7233 15.5598 11.7016 15.7495 11.6962C16.3457 11.6962 16.9419 11.6962 17.5381 11.6962C17.9987 11.6962 18.4594 11.6583 18.9147 11.577C19.1044 11.5445 19.2833 11.4848 19.4675 11.4306C19.5543 11.4035 19.6085 11.3548 19.6085 11.2518C19.6085 11.1867 19.6464 11.1217 19.6681 11.0567C19.9282 10.2979 20.3347 9.62038 20.8442 9.00793C21.4621 8.2654 22.1287 7.57164 22.8387 6.92125C23.2561 6.54186 23.7059 6.19498 24.1991 5.91857C24.5948 5.69635 25.0176 5.60963 25.4728 5.66925C25.5216 5.67467 25.5758 5.69635 25.6246 5.69635C25.6571 5.69635 25.7005 5.68551 25.7167 5.66383C25.7492 5.62047 25.7113 5.58795 25.6734 5.56627L25.6896 5.57711ZM16.221 7.19225C16.3673 7.08385 16.5354 7.04591 16.7034 7.02423C17.0448 6.98087 17.3538 7.06217 17.6193 7.27897C17.8524 7.46867 17.9716 7.73424 17.847 8.08654C17.7603 8.31959 17.6193 8.51471 17.408 8.65563C17.2508 8.75861 17.0828 8.76945 16.9256 8.67189C16.7576 8.57433 16.6763 8.42799 16.6925 8.23288C16.6925 8.21662 16.698 8.20036 16.698 8.1841C16.698 8.13532 16.7142 8.06486 16.6492 8.05402C16.6112 8.0486 16.5516 8.08112 16.5191 8.11364C16.4107 8.22204 16.3673 8.35753 16.3782 8.50929C16.3782 8.55265 16.389 8.59601 16.3944 8.63395C16.2535 8.64479 16.118 8.66105 15.9717 8.67189C16.1126 8.44967 16.2698 8.23288 16.324 7.96188C16.3782 7.69088 16.3294 7.43615 16.2156 7.18683L16.221 7.19225ZM12.3512 7.31149C12.7252 6.97545 13.2997 6.92667 13.7441 7.15973C13.7549 7.16515 13.7658 7.18141 13.7875 7.19767C13.5165 7.7505 13.6899 8.23288 14.0476 8.68273C13.8959 8.66647 13.7604 8.65021 13.614 8.63937C13.614 8.62311 13.6194 8.58517 13.6249 8.55265C13.652 8.37379 13.5978 8.22746 13.4731 8.1028C13.4352 8.06486 13.3918 8.0215 13.343 8.06486C13.3159 8.08654 13.2997 8.15158 13.3105 8.18952C13.3484 8.37379 13.2834 8.51471 13.1533 8.63395C13.0178 8.75319 12.8173 8.78029 12.6601 8.69357C12.3403 8.50929 12.1506 8.22746 12.1181 7.8589C12.0964 7.6421 12.1994 7.46867 12.3566 7.32233L12.3512 7.31149ZM10.232 10.4821C10.2103 10.4388 10.1886 10.39 10.1561 10.325C10.3404 10.2383 10.5247 10.1461 10.7035 10.0648C11.7658 9.5987 12.8877 9.32228 14.0314 9.1651C14.091 9.15426 14.156 9.15426 14.2156 9.14884C14.3674 9.138 14.3891 9.14884 14.4704 9.30602C13.0016 9.49572 11.5707 9.81008 10.2266 10.4821H10.232ZM18.931 11.3114C18.6491 11.3222 18.3619 11.3277 18.08 11.3385C17.3917 11.3602 16.7034 11.3819 16.0151 11.3981C15.7495 11.4035 15.4893 11.3981 15.2237 11.3981C14.904 11.3981 14.5842 11.3873 14.2644 11.3873C13.8579 11.3873 13.4568 11.3927 13.0503 11.3873C12.5788 11.3764 12.1073 11.3493 11.6412 11.3277C11.4515 11.3222 11.2618 11.3168 11.0721 11.3114V11.2789C11.2834 11.2247 11.4948 11.1705 11.7116 11.1217C12.194 11.0133 12.6764 10.9428 13.1696 10.9049C13.4352 10.8832 13.6953 10.8724 13.9609 10.8724C14.6601 10.8724 15.3592 10.8615 16.0638 10.8724C16.9961 10.8886 17.912 10.997 18.8117 11.2409C18.8551 11.2518 18.8985 11.268 18.9418 11.2789C18.9418 11.2897 18.9418 11.3006 18.9364 11.3114H18.931ZM19.7819 10.493C19.6464 10.4225 19.5217 10.3521 19.3917 10.2924C18.6979 9.97809 17.9608 9.77214 17.2237 9.5987C16.7088 9.47946 16.1885 9.37648 15.6628 9.33312C15.6248 9.33312 15.5869 9.31686 15.5435 9.30602C15.6194 9.14884 15.6411 9.138 15.8091 9.14884C16.2752 9.18678 16.7305 9.2735 17.1858 9.37648C18.0584 9.5716 18.9039 9.8426 19.706 10.2437C19.744 10.2599 19.7819 10.2816 19.8144 10.3033C19.8253 10.3033 19.8307 10.3195 19.8469 10.3358C19.8307 10.3846 19.809 10.4334 19.7819 10.493Z" fill="#F9CE00"/>
</svg>
