<svg width="30" height="30" viewBox="0 0 30 30" fill="none" xmlns="http://www.w3.org/2000/svg">
<path d="M28.2765 0.188576C27.6377 0.515474 27.1552 1.2411 27.1552 1.8817C27.1552 2.0189 26.7836 2.42438 25.3623 3.84954L23.5693 5.64733L22.4284 4.50333C21.4831 3.55548 21.2875 3.3265 21.2875 3.17609C21.2875 2.60087 20.5963 2.22824 20.055 2.50265C19.403 2.84275 19.527 3.84953 20.2378 4.04567C20.4138 4.09141 20.7138 4.34648 21.3851 5.02637L22.298 5.94169L21.7568 6.48437L21.2223 7.02061V7.89663V8.77266L22.0895 8.72693L22.9503 8.68119L23.472 8.1646L23.9936 7.64156L25.0237 8.67444C25.5845 9.23677 26.0474 9.74661 26.0474 9.79879C26.0474 9.97528 26.3017 10.3154 26.5102 10.4265C26.7514 10.5508 27.1362 10.5244 27.3775 10.3676C27.6055 10.2172 27.7623 9.83132 27.7099 9.55691C27.6511 9.22357 27.3123 8.89022 26.9927 8.83773C26.7579 8.8052 26.6014 8.67444 25.5386 7.61516L24.3521 6.43188L26.1582 4.62089C27.7491 3.02569 27.9967 2.80346 28.1728 2.80346C28.942 2.80346 29.8353 1.99281 29.9853 1.15607C30.0441 0.816281 29.933 0.443342 29.6985 0.221112C29.5289 0.0642624 29.4377 0.024972 29.092 0.00532722C28.7394 -0.0140104 28.6353 0.0120802 28.2765 0.188576ZM23.1061 7.15781C23.0018 7.77232 23.0214 7.74623 22.5129 7.83125C22.2585 7.87054 22.0433 7.89663 22.0369 7.89019C22.0108 7.8641 22.1804 6.98807 22.2129 6.94878C22.2453 6.92269 23.1322 6.73944 23.1582 6.75909C23.1714 6.76553 23.1453 6.94203 23.1061 7.15781Z" fill="white"/>
<path d="M0.442529 0.25408C0.325285 0.319459 0.181714 0.456665 0.11651 0.554888C-0.0530809 0.816407 -0.0334891 1.38518 0.148959 1.75781C0.448958 2.38552 1.19865 2.93465 1.75946 2.93465C2.01385 2.93465 2.06589 2.98038 3.83282 4.75208L5.63894 6.56307L4.51088 7.69417C3.63721 8.5702 3.35038 8.81852 3.21997 8.81852C2.98517 8.81852 2.6267 9.07359 2.48987 9.34156C2.28783 9.74028 2.45742 10.2176 2.86793 10.4137C3.33078 10.636 3.80037 10.453 4.00884 9.97571C4.08721 9.79922 4.45884 9.3741 5.04537 8.78599L5.96465 7.87067L6.47312 8.38051L6.97516 8.8839H7.86842H8.75525L8.7228 8.04716L8.69036 7.21687L8.17515 6.69383L7.65995 6.17079L8.7228 5.10507C9.30321 4.5231 9.83127 4.04611 9.89004 4.04611C10.0725 4.04611 10.3921 3.71921 10.4637 3.45769C10.6137 2.90856 10.2225 2.41161 9.62923 2.41161C9.38158 2.41161 9.30321 2.44415 9.08801 2.66668C8.8924 2.86282 8.83362 2.97394 8.83362 3.13724C8.83362 3.33982 8.71638 3.47703 7.6275 4.56884L6.42138 5.77821L4.63486 3.98717C2.85477 2.20227 2.85477 2.20227 2.81589 1.87538C2.67232 0.698847 1.27732 -0.25576 0.442529 0.25408ZM7.35383 7.05971L7.71903 7.13799L7.79066 7.50417C7.82985 7.70676 7.88189 7.92254 7.89505 7.98148C7.91464 8.0533 7.89505 8.09904 7.83628 8.09904C7.6275 8.09904 6.96903 7.94219 6.92985 7.88325C6.91026 7.84396 6.87108 7.68067 6.84506 7.51707C6.82546 7.35377 6.79302 7.16408 6.77342 7.0987C6.73424 6.9618 6.8322 6.95504 7.35383 7.05971Z" fill="white"/>
<path d="M17.5698 10.6817L14.864 13.3948L12.2626 10.7928L9.66761 8.19727L9.70036 9.02756L9.73281 9.8643H8.83955H7.95272L10.5606 12.4792L13.1687 15.0944L7.55506 20.7299L1.94141 26.3716L1.41978 27.2216C0.872131 28.1172 0.272439 29.2548 0.2005 29.5556C0.180909 29.6538 0.187337 29.7453 0.220092 29.7714C0.40254 29.8825 2.20223 28.9607 3.3563 28.1633C3.8063 27.856 5.6513 26.0386 12.9407 18.7231L21.9709 9.66878L21.1168 9.70807L20.2563 9.7538L20.2955 8.85813C20.3087 8.36793 20.3151 7.9689 20.302 7.9689C20.2885 7.96859 19.0563 9.19116 17.5698 10.6817Z" fill="white"/>
<path d="M16.7031 16.9771L15.875 17.8074L21.0714 23.0114C26.6722 28.6074 26.3266 28.3001 28.0283 29.2808C28.7388 29.6927 29.4172 30 29.5996 30C29.8344 30 29.6321 29.4377 28.9344 28.1826C28.0868 26.6527 28.2043 26.7835 22.7275 21.2855C19.9109 18.4545 17.5899 16.1404 17.5703 16.1404C17.5507 16.1404 17.1595 16.513 16.7031 16.9771Z" fill="white"/>
</svg>
