<svg width="30" height="30" viewBox="0 0 30 30" fill="none" xmlns="http://www.w3.org/2000/svg">
<path d="M29.9397 28.191L24.7381 13.2179C24.3728 12.2328 23.5551 11.6239 22.6157 11.6239C21.6763 11.6239 20.876 12.2328 20.4759 13.2537L15.2917 28.191C15.0482 28.8896 15.3961 29.6597 16.0746 29.9104C16.753 30.1612 17.5011 29.803 17.7446 29.1045L18.8232 26.006H26.3908L27.4694 29.1045C27.6608 29.6597 28.1653 30 28.7046 30C28.8437 30 29.0003 29.9821 29.1395 29.9284C29.818 29.6776 30.1659 28.9075 29.9223 28.209L29.9397 28.191ZM19.7801 23.3015L22.6331 15.0806L25.4862 23.3015H19.7801ZM15.3439 7.55821C11.4122 13.9522 7.86331 17.8209 3.54893 20.4C3.34017 20.5254 3.11401 20.5791 2.90525 20.5791C2.45294 20.5791 2.01802 20.3463 1.77446 19.9164C1.40913 19.2716 1.61789 18.4478 2.24417 18.0896C5.89747 15.9045 8.88972 12.7702 12.2473 7.57612H1.30475C0.591488 7.57612 0 6.96716 0 6.23284C0 5.49851 0.591488 4.88955 1.30475 4.88955H7.82852V1.34328C7.82852 0.608955 8.42001 0 9.13327 0C9.84652 0 10.438 0.608955 10.438 1.34328V4.88955H16.9618C17.6751 4.88955 18.2665 5.49851 18.2665 6.23284C18.2665 6.96716 17.6751 7.57612 16.9618 7.57612H15.3265L15.3439 7.55821ZM15.4135 20.5791C15.1873 20.5791 14.9612 20.5254 14.7524 20.4C13.6216 19.7194 12.5256 18.9672 11.4992 18.1791C10.9251 17.7313 10.8034 16.8896 11.2383 16.2985C11.6732 15.7075 12.4908 15.5821 13.0649 16.0299C14.0043 16.7642 15.0308 17.4448 16.0746 18.0716C16.7008 18.4478 16.9096 19.2716 16.5443 19.9164C16.3007 20.3463 15.8658 20.5791 15.4135 20.5791Z" fill="#212121"/>
</svg>
