<svg width="30" height="30" viewBox="0 0 30 30" fill="none" xmlns="http://www.w3.org/2000/svg">
<mask id="path-1-inside-1_774_2362" fill="white">
<path d="M13.5484 12.0433C13.5484 12.7963 14.1983 13.4069 15 13.4069C15.8017 13.4069 16.4516 12.7963 16.4516 12.0433H13.5484ZM16.4516 1.36359C16.4516 0.610508 15.8017 0 15 0C14.1983 0 13.5484 0.610508 13.5484 1.36359H16.4516ZM9.7952 6.20264C10.5248 5.89056 10.8469 5.08193 10.5148 4.39655C10.1825 3.71118 9.32166 3.40858 8.59205 3.72068L9.7952 6.20264ZM1.45179 16.1995L0 16.1924L0.000290713 16.2153L1.45179 16.1995ZM15 28.6355L15.0166 27.2719C15.0056 27.2719 14.9944 27.2719 14.9834 27.2719L15 28.6355ZM28.5482 16.1995L30 16.2153L29.9998 16.1924L28.5482 16.1995ZM21.4079 3.72068C20.6782 3.40858 19.8176 3.71118 19.4852 4.39655C19.1531 5.08193 19.4752 5.89056 20.2048 6.20264L21.4079 3.72068ZM16.4516 12.0433V1.36359H13.5484V12.0433H16.4516ZM8.59205 3.72068C3.38421 5.94838 0.0299803 10.817 0 16.1924L2.90336 16.2066C2.92742 11.8948 5.61779 7.98957 9.7952 6.20264L8.59205 3.72068ZM0.000290713 16.2153C0.0957088 23.9167 6.81839 30.0874 15.0166 29.9991L14.9834 27.2719C8.38816 27.3431 2.98005 22.3789 2.90329 16.1837L0.000290713 16.2153ZM14.9834 29.9991C23.1816 30.0874 29.9048 23.9167 30 16.2153L27.0968 16.1837C27.02 22.3789 21.6119 27.3431 15.0166 27.2719L14.9834 29.9991ZM29.9998 16.1924C29.9698 10.817 26.6159 5.94838 21.4079 3.72068L20.2048 6.20264C24.3821 7.98957 27.0726 11.8948 27.0966 16.2066L29.9998 16.1924Z"/>
</mask>
<path d="M13.5484 12.0433C13.5484 12.7963 14.1983 13.4069 15 13.4069C15.8017 13.4069 16.4516 12.7963 16.4516 12.0433H13.5484ZM16.4516 1.36359C16.4516 0.610508 15.8017 0 15 0C14.1983 0 13.5484 0.610508 13.5484 1.36359H16.4516ZM9.7952 6.20264C10.5248 5.89056 10.8469 5.08193 10.5148 4.39655C10.1825 3.71118 9.32166 3.40858 8.59205 3.72068L9.7952 6.20264ZM1.45179 16.1995L0 16.1924L0.000290713 16.2153L1.45179 16.1995ZM15 28.6355L15.0166 27.2719C15.0056 27.2719 14.9944 27.2719 14.9834 27.2719L15 28.6355ZM28.5482 16.1995L30 16.2153L29.9998 16.1924L28.5482 16.1995ZM21.4079 3.72068C20.6782 3.40858 19.8176 3.71118 19.4852 4.39655C19.1531 5.08193 19.4752 5.89056 20.2048 6.20264L21.4079 3.72068ZM16.4516 12.0433V1.36359H13.5484V12.0433H16.4516ZM8.59205 3.72068C3.38421 5.94838 0.0299803 10.817 0 16.1924L2.90336 16.2066C2.92742 11.8948 5.61779 7.98957 9.7952 6.20264L8.59205 3.72068ZM0.000290713 16.2153C0.0957088 23.9167 6.81839 30.0874 15.0166 29.9991L14.9834 27.2719C8.38816 27.3431 2.98005 22.3789 2.90329 16.1837L0.000290713 16.2153ZM14.9834 29.9991C23.1816 30.0874 29.9048 23.9167 30 16.2153L27.0968 16.1837C27.02 22.3789 21.6119 27.3431 15.0166 27.2719L14.9834 29.9991ZM29.9998 16.1924C29.9698 10.817 26.6159 5.94838 21.4079 3.72068L20.2048 6.20264C24.3821 7.98957 27.0726 11.8948 27.0966 16.2066L29.9998 16.1924Z" fill="#F9CE00"/>
<path d="M16.4516 7.54326H13.5484V16.5433H16.4516V7.54326ZM13.5484 5.86359H16.4516V-3.13641H13.5484V5.86359ZM4.54274 5.68363L5.7459 8.16559L13.8445 4.2397L12.6413 1.75774L4.54274 5.68363ZM24.2542 8.16549L25.4573 5.68353L17.3586 1.75784L16.1555 4.2398L24.2542 8.16549ZM9.7952 6.20264L6.25584 -2.07219L6.25561 -2.0721L9.7952 6.20264ZM10.5148 4.39655L18.6139 0.471815L18.613 0.469963L10.5148 4.39655ZM8.59205 3.72068L12.1316 11.9954L12.1317 11.9954L8.59205 3.72068ZM1.45179 16.1995L1.54986 25.199L1.49574 7.1996L1.45179 16.1995ZM0 16.1924L-8.99986 16.1422L-9.00032 16.2244L-8.99928 16.3066L0 16.1924ZM15 28.6355L6.00067 28.7453H23.9993L15 28.6355ZM15.0166 27.2719L15.1139 18.2724L15.0653 18.2719H15.0166V27.2719ZM14.9834 27.2719V18.2719H14.9347L14.8861 18.2724L14.9834 27.2719ZM28.5482 16.1995L28.5043 7.1996L28.4502 25.199L28.5482 16.1995ZM30 16.2153L38.9993 16.3266L39.0005 16.2332L38.9997 16.1399L30 16.2153ZM21.4079 3.72068L24.9475 -4.55408L24.9473 -4.55415L21.4079 3.72068ZM19.4852 4.39655L11.387 0.469963L11.3861 0.471815L19.4852 4.39655ZM20.2048 6.20264L23.7445 -2.07206L23.744 -2.07226L20.2048 6.20264ZM2.90336 16.2066L2.8594 25.2065L11.853 25.2504L11.9032 16.2568L2.90336 16.2066ZM15.0166 29.9991L15.1136 38.9985L24.126 38.9014L24.016 29.8892L15.0166 29.9991ZM2.90329 16.1837L11.9026 16.0722L11.7913 7.08629L2.80521 7.18421L2.90329 16.1837ZM14.9834 29.9991L5.98403 29.8892L5.87401 38.9014L14.8864 38.9985L14.9834 29.9991ZM27.0968 16.1837L27.1949 7.18421L18.209 7.0863L18.0975 16.0721L27.0968 16.1837ZM27.0966 16.2066L18.0968 16.2567L18.1468 25.2504L27.1406 25.2065L27.0966 16.2066ZM4.54841 12.0433C4.54841 18.2888 9.76628 22.4069 15 22.4069V4.40685C18.6304 4.40685 22.5484 7.30382 22.5484 12.0433H4.54841ZM15 22.4069C20.2337 22.4069 25.4516 18.2888 25.4516 12.0433H7.4516C7.4516 7.30382 11.3696 4.40685 15 4.40685V22.4069ZM25.4516 1.36359C25.4516 -4.88207 20.2336 -9 15 -9V9C11.3697 9 7.4516 6.10309 7.4516 1.36359H25.4516ZM15 -9C9.76636 -9 4.54841 -4.88207 4.54841 1.36359H22.5484C22.5484 6.10309 18.6303 9 15 9V-9ZM13.3346 14.4775C18.4414 12.2932 21.3468 6.11135 18.6139 0.471815L2.41561 8.32129C0.347016 4.05251 2.60827 -0.512034 6.25584 -2.07219L13.3346 14.4775ZM18.613 0.469963C16.0444 -4.82767 9.89922 -6.62732 5.05243 -4.55404L12.1317 11.9954C8.74409 13.4445 4.32052 12.25 2.4165 8.32314L18.613 0.469963ZM1.49574 7.1996L0.0439516 7.19251L-0.0439516 25.1923L1.40784 25.1994L1.49574 7.1996ZM-8.99928 16.3066L-8.99898 16.3295L8.99957 16.1011L8.99928 16.0782L-8.99928 16.3066ZM0.0983665 25.2148L1.54986 25.199L1.35371 7.20003L-0.0977851 7.21585L0.0983665 25.2148ZM23.9993 28.7453L24.016 27.3817L6.01732 27.162L6.00067 28.5256L23.9993 28.7453ZM15.0166 18.2719C15.0166 18.2719 15.0166 18.2719 15.0166 18.2719C15.0166 18.2719 15.0165 18.2719 15.0165 18.2719C15.0165 18.2719 15.0165 18.2719 15.0165 18.2719C15.0164 18.2719 15.0164 18.2719 15.0164 18.2719C15.0164 18.2719 15.0163 18.2719 15.0163 18.2719C15.0163 18.2719 15.0163 18.2719 15.0163 18.2719C15.0162 18.2719 15.0162 18.2719 15.0162 18.2719C15.0162 18.2719 15.0162 18.2719 15.0161 18.2719C15.0161 18.2719 15.0161 18.2719 15.0161 18.2719C15.016 18.2719 15.016 18.2719 15.016 18.2719C15.016 18.2719 15.016 18.2719 15.0159 18.2719C15.0159 18.2719 15.0159 18.2719 15.0159 18.2719C15.0158 18.2719 15.0158 18.2719 15.0158 18.2719C15.0158 18.2719 15.0158 18.2719 15.0157 18.2719C15.0157 18.2719 15.0157 18.2719 15.0157 18.2719C15.0157 18.2719 15.0156 18.2719 15.0156 18.2719C15.0156 18.2719 15.0156 18.2719 15.0155 18.2719C15.0155 18.2719 15.0155 18.2719 15.0155 18.2719C15.0155 18.2719 15.0154 18.2719 15.0154 18.2719C15.0154 18.2719 15.0154 18.2719 15.0154 18.2719C15.0153 18.2719 15.0153 18.2719 15.0153 18.2719C15.0153 18.2719 15.0152 18.2719 15.0152 18.2719C15.0152 18.2719 15.0152 18.2719 15.0152 18.2719C15.0151 18.2719 15.0151 18.2719 15.0151 18.2719C15.0151 18.2719 15.0151 18.2719 15.015 18.2719C15.015 18.2719 15.015 18.2719 15.015 18.2719C15.0149 18.2719 15.0149 18.2719 15.0149 18.2719C15.0149 18.2719 15.0149 18.2719 15.0148 18.2719C15.0148 18.2719 15.0148 18.2719 15.0148 18.2719C15.0147 18.2719 15.0147 18.2719 15.0147 18.2719C15.0147 18.2719 15.0147 18.2719 15.0146 18.2719C15.0146 18.2719 15.0146 18.2719 15.0146 18.2719C15.0146 18.2719 15.0145 18.2719 15.0145 18.2719C15.0145 18.2719 15.0145 18.2719 15.0144 18.2719C15.0144 18.2719 15.0144 18.2719 15.0144 18.2719C15.0144 18.2719 15.0143 18.2719 15.0143 18.2719C15.0143 18.2719 15.0143 18.2719 15.0143 18.2719C15.0142 18.2719 15.0142 18.2719 15.0142 18.2719C15.0142 18.2719 15.0141 18.2719 15.0141 18.2719C15.0141 18.2719 15.0141 18.2719 15.0141 18.2719C15.014 18.2719 15.014 18.2719 15.014 18.2719C15.014 18.2719 15.0139 18.2719 15.0139 18.2719C15.0139 18.2719 15.0139 18.2719 15.0139 18.2719C15.0138 18.2719 15.0138 18.2719 15.0138 18.2719C15.0138 18.2719 15.0138 18.2719 15.0137 18.2719C15.0137 18.2719 15.0137 18.2719 15.0137 18.2719C15.0136 18.2719 15.0136 18.2719 15.0136 18.2719C15.0136 18.2719 15.0136 18.2719 15.0135 18.2719C15.0135 18.2719 15.0135 18.2719 15.0135 18.2719C15.0135 18.2719 15.0134 18.2719 15.0134 18.2719C15.0134 18.2719 15.0134 18.2719 15.0133 18.2719C15.0133 18.2719 15.0133 18.2719 15.0133 18.2719C15.0133 18.2719 15.0132 18.2719 15.0132 18.2719C15.0132 18.2719 15.0132 18.2719 15.0132 18.2719C15.0131 18.2719 15.0131 18.2719 15.0131 18.2719C15.0131 18.2719 15.013 18.2719 15.013 18.2719C15.013 18.2719 15.013 18.2719 15.013 18.2719C15.0129 18.2719 15.0129 18.2719 15.0129 18.2719C15.0129 18.2719 15.0128 18.2719 15.0128 18.2719C15.0128 18.2719 15.0128 18.2719 15.0128 18.2719C15.0127 18.2719 15.0127 18.2719 15.0127 18.2719C15.0127 18.2719 15.0127 18.2719 15.0126 18.2719C15.0126 18.2719 15.0126 18.2719 15.0126 18.2719C15.0125 18.2719 15.0125 18.2719 15.0125 18.2719C15.0125 18.2719 15.0125 18.2719 15.0124 18.2719C15.0124 18.2719 15.0124 18.2719 15.0124 18.2719C15.0124 18.2719 15.0123 18.2719 15.0123 18.2719C15.0123 18.2719 15.0123 18.2719 15.0122 18.2719C15.0122 18.2719 15.0122 18.2719 15.0122 18.2719C15.0122 18.2719 15.0121 18.2719 15.0121 18.2719C15.0121 18.2719 15.0121 18.2719 15.012 18.2719C15.012 18.2719 15.012 18.2719 15.012 18.2719C15.012 18.2719 15.0119 18.2719 15.0119 18.2719C15.0119 18.2719 15.0119 18.2719 15.0119 18.2719C15.0118 18.2719 15.0118 18.2719 15.0118 18.2719C15.0118 18.2719 15.0117 18.2719 15.0117 18.2719C15.0117 18.2719 15.0117 18.2719 15.0117 18.2719C15.0116 18.2719 15.0116 18.2719 15.0116 18.2719C15.0116 18.2719 15.0115 18.2719 15.0115 18.2719C15.0115 18.2719 15.0115 18.2719 15.0115 18.2719C15.0114 18.2719 15.0114 18.2719 15.0114 18.2719C15.0114 18.2719 15.0114 18.2719 15.0113 18.2719C15.0113 18.2719 15.0113 18.2719 15.0113 18.2719C15.0112 18.2719 15.0112 18.2719 15.0112 18.2719C15.0112 18.2719 15.0112 18.2719 15.0111 18.2719C15.0111 18.2719 15.0111 18.2719 15.0111 18.2719C15.0111 18.2719 15.011 18.2719 15.011 18.2719C15.011 18.2719 15.011 18.2719 15.0109 18.2719C15.0109 18.2719 15.0109 18.2719 15.0109 18.2719C15.0109 18.2719 15.0108 18.2719 15.0108 18.2719C15.0108 18.2719 15.0108 18.2719 15.0107 18.2719C15.0107 18.2719 15.0107 18.2719 15.0107 18.2719C15.0107 18.2719 15.0106 18.2719 15.0106 18.2719C15.0106 18.2719 15.0106 18.2719 15.0106 18.2719C15.0105 18.2719 15.0105 18.2719 15.0105 18.2719C15.0105 18.2719 15.0104 18.2719 15.0104 18.2719C15.0104 18.2719 15.0104 18.2719 15.0104 18.2719C15.0103 18.2719 15.0103 18.2719 15.0103 18.2719C15.0103 18.2719 15.0103 18.2719 15.0102 18.2719C15.0102 18.2719 15.0102 18.2719 15.0102 18.2719C15.0101 18.2719 15.0101 18.2719 15.0101 18.2719C15.0101 18.2719 15.0101 18.2719 15.01 18.2719C15.01 18.2719 15.01 18.2719 15.01 18.2719C15.0099 18.2719 15.0099 18.2719 15.0099 18.2719C15.0099 18.2719 15.0099 18.2719 15.0098 18.2719C15.0098 18.2719 15.0098 18.2719 15.0098 18.2719C15.0098 18.2719 15.0097 18.2719 15.0097 18.2719C15.0097 18.2719 15.0097 18.2719 15.0096 18.2719C15.0096 18.2719 15.0096 18.2719 15.0096 18.2719C15.0096 18.2719 15.0095 18.2719 15.0095 18.2719C15.0095 18.2719 15.0095 18.2719 15.0094 18.2719C15.0094 18.2719 15.0094 18.2719 15.0094 18.2719C15.0094 18.2719 15.0093 18.2719 15.0093 18.2719C15.0093 18.2719 15.0093 18.2719 15.0093 18.2719C15.0092 18.2719 15.0092 18.2719 15.0092 18.2719C15.0092 18.2719 15.0091 18.2719 15.0091 18.2719C15.0091 18.2719 15.0091 18.2719 15.0091 18.2719C15.009 18.2719 15.009 18.2719 15.009 18.2719C15.009 18.2719 15.0089 18.2719 15.0089 18.2719C15.0089 18.2719 15.0089 18.2719 15.0089 18.2719C15.0088 18.2719 15.0088 18.2719 15.0088 18.2719C15.0088 18.2719 15.0088 18.2719 15.0087 18.2719C15.0087 18.2719 15.0087 18.2719 15.0087 18.2719C15.0086 18.2719 15.0086 18.2719 15.0086 18.2719C15.0086 18.2719 15.0086 18.2719 15.0085 18.2719C15.0085 18.2719 15.0085 18.2719 15.0085 18.2719C15.0085 18.2719 15.0084 18.2719 15.0084 18.2719C15.0084 18.2719 15.0084 18.2719 15.0083 18.2719C15.0083 18.2719 15.0083 18.2719 15.0083 18.2719C15.0083 18.2719 15.0082 18.2719 15.0082 18.2719C15.0082 18.2719 15.0082 18.2719 15.0081 18.2719C15.0081 18.2719 15.0081 18.2719 15.0081 18.2719C15.0081 18.2719 15.008 18.2719 15.008 18.2719C15.008 18.2719 15.008 18.2719 15.008 18.2719C15.0079 18.2719 15.0079 18.2719 15.0079 18.2719C15.0079 18.2719 15.0078 18.2719 15.0078 18.2719C15.0078 18.2719 15.0078 18.2719 15.0078 18.2719C15.0077 18.2719 15.0077 18.2719 15.0077 18.2719C15.0077 18.2719 15.0076 18.2719 15.0076 18.2719C15.0076 18.2719 15.0076 18.2719 15.0076 18.2719C15.0075 18.2719 15.0075 18.2719 15.0075 18.2719C15.0075 18.2719 15.0075 18.2719 15.0074 18.2719C15.0074 18.2719 15.0074 18.2719 15.0074 18.2719C15.0073 18.2719 15.0073 18.2719 15.0073 18.2719C15.0073 18.2719 15.0073 18.2719 15.0072 18.2719C15.0072 18.2719 15.0072 18.2719 15.0072 18.2719C15.0071 18.2719 15.0071 18.2719 15.0071 18.2719C15.0071 18.2719 15.0071 18.2719 15.007 18.2719C15.007 18.2719 15.007 18.2719 15.007 18.2719C15.007 18.2719 15.0069 18.2719 15.0069 18.2719C15.0069 18.2719 15.0069 18.2719 15.0068 18.2719C15.0068 18.2719 15.0068 18.2719 15.0068 18.2719C15.0068 18.2719 15.0067 18.2719 15.0067 18.2719C15.0067 18.2719 15.0067 18.2719 15.0066 18.2719C15.0066 18.2719 15.0066 18.2719 15.0066 18.2719C15.0066 18.2719 15.0065 18.2719 15.0065 18.2719C15.0065 18.2719 15.0065 18.2719 15.0065 18.2719C15.0064 18.2719 15.0064 18.2719 15.0064 18.2719C15.0064 18.2719 15.0063 18.2719 15.0063 18.2719C15.0063 18.2719 15.0063 18.2719 15.0063 18.2719C15.0062 18.2719 15.0062 18.2719 15.0062 18.2719C15.0062 18.2719 15.0062 18.2719 15.0061 18.2719C15.0061 18.2719 15.0061 18.2719 15.0061 18.2719C15.006 18.2719 15.006 18.2719 15.006 18.2719C15.006 18.2719 15.006 18.2719 15.0059 18.2719C15.0059 18.2719 15.0059 18.2719 15.0059 18.2719C15.0058 18.2719 15.0058 18.2719 15.0058 18.2719C15.0058 18.2719 15.0058 18.2719 15.0057 18.2719C15.0057 18.2719 15.0057 18.2719 15.0057 18.2719C15.0057 18.2719 15.0056 18.2719 15.0056 18.2719C15.0056 18.2719 15.0056 18.2719 15.0055 18.2719C15.0055 18.2719 15.0055 18.2719 15.0055 18.2719C15.0055 18.2719 15.0054 18.2719 15.0054 18.2719C15.0054 18.2719 15.0054 18.2719 15.0053 18.2719C15.0053 18.2719 15.0053 18.2719 15.0053 18.2719C15.0053 18.2719 15.0052 18.2719 15.0052 18.2719C15.0052 18.2719 15.0052 18.2719 15.0052 18.2719C15.0051 18.2719 15.0051 18.2719 15.0051 18.2719C15.0051 18.2719 15.005 18.2719 15.005 18.2719C15.005 18.2719 15.005 18.2719 15.005 18.2719C15.0049 18.2719 15.0049 18.2719 15.0049 18.2719C15.0049 18.2719 15.0048 18.2719 15.0048 18.2719C15.0048 18.2719 15.0048 18.2719 15.0048 18.2719C15.0047 18.2719 15.0047 18.2719 15.0047 18.2719C15.0047 18.2719 15.0047 18.2719 15.0046 18.2719C15.0046 18.2719 15.0046 18.2719 15.0046 18.2719C15.0045 18.2719 15.0045 18.2719 15.0045 18.2719C15.0045 18.2719 15.0045 18.2719 15.0044 18.2719C15.0044 18.2719 15.0044 18.2719 15.0044 18.2719C15.0043 18.2719 15.0043 18.2719 15.0043 18.2719C15.0043 18.2719 15.0043 18.2719 15.0042 18.2719C15.0042 18.2719 15.0042 18.2719 15.0042 18.2719C15.0042 18.2719 15.0041 18.2719 15.0041 18.2719C15.0041 18.2719 15.0041 18.2719 15.004 18.2719C15.004 18.2719 15.004 18.2719 15.004 18.2719C15.004 18.2719 15.0039 18.2719 15.0039 18.2719C15.0039 18.2719 15.0039 18.2719 15.0038 18.2719C15.0038 18.2719 15.0038 18.2719 15.0038 18.2719C15.0038 18.2719 15.0037 18.2719 15.0037 18.2719C15.0037 18.2719 15.0037 18.2719 15.0037 18.2719C15.0036 18.2719 15.0036 18.2719 15.0036 18.2719C15.0036 18.2719 15.0035 18.2719 15.0035 18.2719C15.0035 18.2719 15.0035 18.2719 15.0035 18.2719C15.0034 18.2719 15.0034 18.2719 15.0034 18.2719C15.0034 18.2719 15.0033 18.2719 15.0033 18.2719C15.0033 18.2719 15.0033 18.2719 15.0033 18.2719C15.0032 18.2719 15.0032 18.2719 15.0032 18.2719C15.0032 18.2719 15.0032 18.2719 15.0031 18.2719C15.0031 18.2719 15.0031 18.2719 15.0031 18.2719C15.003 18.2719 15.003 18.2719 15.003 18.2719C15.003 18.2719 15.003 18.2719 15.0029 18.2719C15.0029 18.2719 15.0029 18.2719 15.0029 18.2719C15.0028 18.2719 15.0028 18.2719 15.0028 18.2719C15.0028 18.2719 15.0028 18.2719 15.0027 18.2719C15.0027 18.2719 15.0027 18.2719 15.0027 18.2719C15.0027 18.2719 15.0026 18.2719 15.0026 18.2719C15.0026 18.2719 15.0026 18.2719 15.0025 18.2719C15.0025 18.2719 15.0025 18.2719 15.0025 18.2719C15.0025 18.2719 15.0024 18.2719 15.0024 18.2719C15.0024 18.2719 15.0024 18.2719 15.0023 18.2719C15.0023 18.2719 15.0023 18.2719 15.0023 18.2719C15.0023 18.2719 15.0022 18.2719 15.0022 18.2719C15.0022 18.2719 15.0022 18.2719 15.0022 18.2719C15.0021 18.2719 15.0021 18.2719 15.0021 18.2719C15.0021 18.2719 15.002 18.2719 15.002 18.2719C15.002 18.2719 15.002 18.2719 15.002 18.2719C15.0019 18.2719 15.0019 18.2719 15.0019 18.2719C15.0019 18.2719 15.0018 18.2719 15.0018 18.2719C15.0018 18.2719 15.0018 18.2719 15.0018 18.2719C15.0017 18.2719 15.0017 18.2719 15.0017 18.2719C15.0017 18.2719 15.0017 18.2719 15.0016 18.2719C15.0016 18.2719 15.0016 18.2719 15.0016 18.2719C15.0015 18.2719 15.0015 18.2719 15.0015 18.2719C15.0015 18.2719 15.0015 18.2719 15.0014 18.2719C15.0014 18.2719 15.0014 18.2719 15.0014 18.2719C15.0013 18.2719 15.0013 18.2719 15.0013 18.2719C15.0013 18.2719 15.0013 18.2719 15.0012 18.2719C15.0012 18.2719 15.0012 18.2719 15.0012 18.2719C15.0012 18.2719 15.0011 18.2719 15.0011 18.2719C15.0011 18.2719 15.0011 18.2719 15.001 18.2719C15.001 18.2719 15.001 18.2719 15.001 18.2719C15.001 18.2719 15.0009 18.2719 15.0009 18.2719C15.0009 18.2719 15.0009 18.2719 15.0008 18.2719C15.0008 18.2719 15.0008 18.2719 15.0008 18.2719C15.0008 18.2719 15.0007 18.2719 15.0007 18.2719C15.0007 18.2719 15.0007 18.2719 15.0007 18.2719C15.0006 18.2719 15.0006 18.2719 15.0006 18.2719C15.0006 18.2719 15.0005 18.2719 15.0005 18.2719C15.0005 18.2719 15.0005 18.2719 15.0005 18.2719C15.0004 18.2719 15.0004 18.2719 15.0004 18.2719C15.0004 18.2719 15.0003 18.2719 15.0003 18.2719C15.0003 18.2719 15.0003 18.2719 15.0003 18.2719C15.0002 18.2719 15.0002 18.2719 15.0002 18.2719C15.0002 18.2719 15.0002 18.2719 15.0001 18.2719C15.0001 18.2719 15.0001 18.2719 15.0001 18.2719C15 18.2719 15 18.2719 15 18.2719C15 18.2719 15 18.2719 14.9999 18.2719C14.9999 18.2719 14.9999 18.2719 14.9999 18.2719C14.9998 18.2719 14.9998 18.2719 14.9998 18.2719C14.9998 18.2719 14.9998 18.2719 14.9997 18.2719C14.9997 18.2719 14.9997 18.2719 14.9997 18.2719C14.9997 18.2719 14.9996 18.2719 14.9996 18.2719C14.9996 18.2719 14.9996 18.2719 14.9995 18.2719C14.9995 18.2719 14.9995 18.2719 14.9995 18.2719C14.9995 18.2719 14.9994 18.2719 14.9994 18.2719C14.9994 18.2719 14.9994 18.2719 14.9993 18.2719C14.9993 18.2719 14.9993 18.2719 14.9993 18.2719C14.9993 18.2719 14.9992 18.2719 14.9992 18.2719C14.9992 18.2719 14.9992 18.2719 14.9992 18.2719C14.9991 18.2719 14.9991 18.2719 14.9991 18.2719C14.9991 18.2719 14.999 18.2719 14.999 18.2719C14.999 18.2719 14.999 18.2719 14.999 18.2719C14.9989 18.2719 14.9989 18.2719 14.9989 18.2719C14.9989 18.2719 14.9988 18.2719 14.9988 18.2719C14.9988 18.2719 14.9988 18.2719 14.9988 18.2719C14.9987 18.2719 14.9987 18.2719 14.9987 18.2719C14.9987 18.2719 14.9987 18.2719 14.9986 18.2719C14.9986 18.2719 14.9986 18.2719 14.9986 18.2719C14.9985 18.2719 14.9985 18.2719 14.9985 18.2719C14.9985 18.2719 14.9985 18.2719 14.9984 18.2719C14.9984 18.2719 14.9984 18.2719 14.9984 18.2719C14.9983 18.2719 14.9983 18.2719 14.9983 18.2719C14.9983 18.2719 14.9983 18.2719 14.9982 18.2719C14.9982 18.2719 14.9982 18.2719 14.9982 18.2719C14.9982 18.2719 14.9981 18.2719 14.9981 18.2719C14.9981 18.2719 14.9981 18.2719 14.998 18.2719C14.998 18.2719 14.998 18.2719 14.998 18.2719C14.998 18.2719 14.9979 18.2719 14.9979 18.2719C14.9979 18.2719 14.9979 18.2719 14.9978 18.2719C14.9978 18.2719 14.9978 18.2719 14.9978 18.2719C14.9978 18.2719 14.9977 18.2719 14.9977 18.2719C14.9977 18.2719 14.9977 18.2719 14.9977 18.2719C14.9976 18.2719 14.9976 18.2719 14.9976 18.2719C14.9976 18.2719 14.9975 18.2719 14.9975 18.2719C14.9975 18.2719 14.9975 18.2719 14.9975 18.2719C14.9974 18.2719 14.9974 18.2719 14.9974 18.2719C14.9974 18.2719 14.9973 18.2719 14.9973 18.2719C14.9973 18.2719 14.9973 18.2719 14.9973 18.2719C14.9972 18.2719 14.9972 18.2719 14.9972 18.2719C14.9972 18.2719 14.9972 18.2719 14.9971 18.2719C14.9971 18.2719 14.9971 18.2719 14.9971 18.2719C14.997 18.2719 14.997 18.2719 14.997 18.2719C14.997 18.2719 14.997 18.2719 14.9969 18.2719C14.9969 18.2719 14.9969 18.2719 14.9969 18.2719C14.9969 18.2719 14.9968 18.2719 14.9968 18.2719C14.9968 18.2719 14.9968 18.2719 14.9967 18.2719C14.9967 18.2719 14.9967 18.2719 14.9967 18.2719C14.9967 18.2719 14.9966 18.2719 14.9966 18.2719C14.9966 18.2719 14.9966 18.2719 14.9965 18.2719C14.9965 18.2719 14.9965 18.2719 14.9965 18.2719C14.9965 18.2719 14.9964 18.2719 14.9964 18.2719C14.9964 18.2719 14.9964 18.2719 14.9964 18.2719C14.9963 18.2719 14.9963 18.2719 14.9963 18.2719C14.9963 18.2719 14.9962 18.2719 14.9962 18.2719C14.9962 18.2719 14.9962 18.2719 14.9962 18.2719C14.9961 18.2719 14.9961 18.2719 14.9961 18.2719C14.9961 18.2719 14.996 18.2719 14.996 18.2719C14.996 18.2719 14.996 18.2719 14.996 18.2719C14.9959 18.2719 14.9959 18.2719 14.9959 18.2719C14.9959 18.2719 14.9959 18.2719 14.9958 18.2719C14.9958 18.2719 14.9958 18.2719 14.9958 18.2719C14.9957 18.2719 14.9957 18.2719 14.9957 18.2719C14.9957 18.2719 14.9957 18.2719 14.9956 18.2719C14.9956 18.2719 14.9956 18.2719 14.9956 18.2719C14.9955 18.2719 14.9955 18.2719 14.9955 18.2719C14.9955 18.2719 14.9955 18.2719 14.9954 18.2719C14.9954 18.2719 14.9954 18.2719 14.9954 18.2719C14.9954 18.2719 14.9953 18.2719 14.9953 18.2719C14.9953 18.2719 14.9953 18.2719 14.9952 18.2719C14.9952 18.2719 14.9952 18.2719 14.9952 18.2719C14.9952 18.2719 14.9951 18.2719 14.9951 18.2719C14.9951 18.2719 14.9951 18.2719 14.995 18.2719C14.995 18.2719 14.995 18.2719 14.995 18.2719C14.995 18.2719 14.9949 18.2719 14.9949 18.2719C14.9949 18.2719 14.9949 18.2719 14.9949 18.2719C14.9948 18.2719 14.9948 18.2719 14.9948 18.2719C14.9948 18.2719 14.9947 18.2719 14.9947 18.2719C14.9947 18.2719 14.9947 18.2719 14.9947 18.2719C14.9946 18.2719 14.9946 18.2719 14.9946 18.2719C14.9946 18.2719 14.9945 18.2719 14.9945 18.2719C14.9945 18.2719 14.9945 18.2719 14.9945 18.2719C14.9944 18.2719 14.9944 18.2719 14.9944 18.2719C14.9944 18.2719 14.9944 18.2719 14.9943 18.2719C14.9943 18.2719 14.9943 18.2719 14.9943 18.2719C14.9942 18.2719 14.9942 18.2719 14.9942 18.2719C14.9942 18.2719 14.9942 18.2719 14.9941 18.2719C14.9941 18.2719 14.9941 18.2719 14.9941 18.2719C14.994 18.2719 14.994 18.2719 14.994 18.2719C14.994 18.2719 14.994 18.2719 14.9939 18.2719C14.9939 18.2719 14.9939 18.2719 14.9939 18.2719C14.9939 18.2719 14.9938 18.2719 14.9938 18.2719C14.9938 18.2719 14.9938 18.2719 14.9937 18.2719C14.9937 18.2719 14.9937 18.2719 14.9937 18.2719C14.9937 18.2719 14.9936 18.2719 14.9936 18.2719C14.9936 18.2719 14.9936 18.2719 14.9935 18.2719C14.9935 18.2719 14.9935 18.2719 14.9935 18.2719C14.9935 18.2719 14.9934 18.2719 14.9934 18.2719C14.9934 18.2719 14.9934 18.2719 14.9934 18.2719C14.9933 18.2719 14.9933 18.2719 14.9933 18.2719C14.9933 18.2719 14.9932 18.2719 14.9932 18.2719C14.9932 18.2719 14.9932 18.2719 14.9932 18.2719C14.9931 18.2719 14.9931 18.2719 14.9931 18.2719C14.9931 18.2719 14.993 18.2719 14.993 18.2719C14.993 18.2719 14.993 18.2719 14.993 18.2719C14.9929 18.2719 14.9929 18.2719 14.9929 18.2719C14.9929 18.2719 14.9929 18.2719 14.9928 18.2719C14.9928 18.2719 14.9928 18.2719 14.9928 18.2719C14.9927 18.2719 14.9927 18.2719 14.9927 18.2719C14.9927 18.2719 14.9927 18.2719 14.9926 18.2719C14.9926 18.2719 14.9926 18.2719 14.9926 18.2719C14.9925 18.2719 14.9925 18.2719 14.9925 18.2719C14.9925 18.2719 14.9925 18.2719 14.9924 18.2719C14.9924 18.2719 14.9924 18.2719 14.9924 18.2719C14.9924 18.2719 14.9923 18.2719 14.9923 18.2719C14.9923 18.2719 14.9923 18.2719 14.9922 18.2719C14.9922 18.2719 14.9922 18.2719 14.9922 18.2719C14.9922 18.2719 14.9921 18.2719 14.9921 18.2719C14.9921 18.2719 14.9921 18.2719 14.9921 18.2719C14.992 18.2719 14.992 18.2719 14.992 18.2719C14.992 18.2719 14.9919 18.2719 14.9919 18.2719C14.9919 18.2719 14.9919 18.2719 14.9919 18.2719C14.9918 18.2719 14.9918 18.2719 14.9918 18.2719C14.9918 18.2719 14.9917 18.2719 14.9917 18.2719C14.9917 18.2719 14.9917 18.2719 14.9917 18.2719C14.9916 18.2719 14.9916 18.2719 14.9916 18.2719C14.9916 18.2719 14.9916 18.2719 14.9915 18.2719C14.9915 18.2719 14.9915 18.2719 14.9915 18.2719C14.9914 18.2719 14.9914 18.2719 14.9914 18.2719C14.9914 18.2719 14.9914 18.2719 14.9913 18.2719C14.9913 18.2719 14.9913 18.2719 14.9913 18.2719C14.9912 18.2719 14.9912 18.2719 14.9912 18.2719C14.9912 18.2719 14.9912 18.2719 14.9911 18.2719C14.9911 18.2719 14.9911 18.2719 14.9911 18.2719C14.9911 18.2719 14.991 18.2719 14.991 18.2719C14.991 18.2719 14.991 18.2719 14.9909 18.2719C14.9909 18.2719 14.9909 18.2719 14.9909 18.2719C14.9909 18.2719 14.9908 18.2719 14.9908 18.2719C14.9908 18.2719 14.9908 18.2719 14.9907 18.2719C14.9907 18.2719 14.9907 18.2719 14.9907 18.2719C14.9907 18.2719 14.9906 18.2719 14.9906 18.2719C14.9906 18.2719 14.9906 18.2719 14.9906 18.2719C14.9905 18.2719 14.9905 18.2719 14.9905 18.2719C14.9905 18.2719 14.9904 18.2719 14.9904 18.2719C14.9904 18.2719 14.9904 18.2719 14.9904 18.2719C14.9903 18.2719 14.9903 18.2719 14.9903 18.2719C14.9903 18.2719 14.9903 18.2719 14.9902 18.2719C14.9902 18.2719 14.9902 18.2719 14.9902 18.2719C14.9901 18.2719 14.9901 18.2719 14.9901 18.2719C14.9901 18.2719 14.9901 18.2719 14.99 18.2719C14.99 18.2719 14.99 18.2719 14.99 18.2719C14.9899 18.2719 14.9899 18.2719 14.9899 18.2719C14.9899 18.2719 14.9899 18.2719 14.9898 18.2719C14.9898 18.2719 14.9898 18.2719 14.9898 18.2719C14.9898 18.2719 14.9897 18.2719 14.9897 18.2719C14.9897 18.2719 14.9897 18.2719 14.9896 18.2719C14.9896 18.2719 14.9896 18.2719 14.9896 18.2719C14.9896 18.2719 14.9895 18.2719 14.9895 18.2719C14.9895 18.2719 14.9895 18.2719 14.9894 18.2719C14.9894 18.2719 14.9894 18.2719 14.9894 18.2719C14.9894 18.2719 14.9893 18.2719 14.9893 18.2719C14.9893 18.2719 14.9893 18.2719 14.9893 18.2719C14.9892 18.2719 14.9892 18.2719 14.9892 18.2719C14.9892 18.2719 14.9891 18.2719 14.9891 18.2719C14.9891 18.2719 14.9891 18.2719 14.9891 18.2719C14.989 18.2719 14.989 18.2719 14.989 18.2719C14.989 18.2719 14.989 18.2719 14.9889 18.2719C14.9889 18.2719 14.9889 18.2719 14.9889 18.2719C14.9888 18.2719 14.9888 18.2719 14.9888 18.2719C14.9888 18.2719 14.9888 18.2719 14.9887 18.2719C14.9887 18.2719 14.9887 18.2719 14.9887 18.2719C14.9886 18.2719 14.9886 18.2719 14.9886 18.2719C14.9886 18.2719 14.9886 18.2719 14.9885 18.2719C14.9885 18.2719 14.9885 18.2719 14.9885 18.2719C14.9885 18.2719 14.9884 18.2719 14.9884 18.2719C14.9884 18.2719 14.9884 18.2719 14.9883 18.2719C14.9883 18.2719 14.9883 18.2719 14.9883 18.2719C14.9883 18.2719 14.9882 18.2719 14.9882 18.2719C14.9882 18.2719 14.9882 18.2719 14.9882 18.2719C14.9881 18.2719 14.9881 18.2719 14.9881 18.2719C14.9881 18.2719 14.988 18.2719 14.988 18.2719C14.988 18.2719 14.988 18.2719 14.988 18.2719C14.9879 18.2719 14.9879 18.2719 14.9879 18.2719C14.9879 18.2719 14.9878 18.2719 14.9878 18.2719C14.9878 18.2719 14.9878 18.2719 14.9878 18.2719C14.9877 18.2719 14.9877 18.2719 14.9877 18.2719C14.9877 18.2719 14.9877 18.2719 14.9876 18.2719C14.9876 18.2719 14.9876 18.2719 14.9876 18.2719C14.9875 18.2719 14.9875 18.2719 14.9875 18.2719C14.9875 18.2719 14.9875 18.2719 14.9874 18.2719C14.9874 18.2719 14.9874 18.2719 14.9874 18.2719C14.9873 18.2719 14.9873 18.2719 14.9873 18.2719C14.9873 18.2719 14.9873 18.2719 14.9872 18.2719C14.9872 18.2719 14.9872 18.2719 14.9872 18.2719C14.9872 18.2719 14.9871 18.2719 14.9871 18.2719C14.9871 18.2719 14.9871 18.2719 14.987 18.2719C14.987 18.2719 14.987 18.2719 14.987 18.2719C14.987 18.2719 14.9869 18.2719 14.9869 18.2719C14.9869 18.2719 14.9869 18.2719 14.9869 18.2719C14.9868 18.2719 14.9868 18.2719 14.9868 18.2719C14.9868 18.2719 14.9867 18.2719 14.9867 18.2719C14.9867 18.2719 14.9867 18.2719 14.9867 18.2719C14.9866 18.2719 14.9866 18.2719 14.9866 18.2719C14.9866 18.2719 14.9865 18.2719 14.9865 18.2719C14.9865 18.2719 14.9865 18.2719 14.9865 18.2719C14.9864 18.2719 14.9864 18.2719 14.9864 18.2719C14.9864 18.2719 14.9864 18.2719 14.9863 18.2719C14.9863 18.2719 14.9863 18.2719 14.9863 18.2719C14.9862 18.2719 14.9862 18.2719 14.9862 18.2719C14.9862 18.2719 14.9862 18.2719 14.9861 18.2719C14.9861 18.2719 14.9861 18.2719 14.9861 18.2719C14.9861 18.2719 14.986 18.2719 14.986 18.2719C14.986 18.2719 14.986 18.2719 14.9859 18.2719C14.9859 18.2719 14.9859 18.2719 14.9859 18.2719C14.9859 18.2719 14.9858 18.2719 14.9858 18.2719C14.9858 18.2719 14.9858 18.2719 14.9858 18.2719C14.9857 18.2719 14.9857 18.2719 14.9857 18.2719C14.9857 18.2719 14.9856 18.2719 14.9856 18.2719C14.9856 18.2719 14.9856 18.2719 14.9856 18.2719C14.9855 18.2719 14.9855 18.2719 14.9855 18.2719C14.9855 18.2719 14.9854 18.2719 14.9854 18.2719C14.9854 18.2719 14.9854 18.2719 14.9854 18.2719C14.9853 18.2719 14.9853 18.2719 14.9853 18.2719C14.9853 18.2719 14.9853 18.2719 14.9852 18.2719C14.9852 18.2719 14.9852 18.2719 14.9852 18.2719C14.9851 18.2719 14.9851 18.2719 14.9851 18.2719C14.9851 18.2719 14.9851 18.2719 14.985 18.2719C14.985 18.2719 14.985 18.2719 14.985 18.2719C14.985 18.2719 14.9849 18.2719 14.9849 18.2719C14.9849 18.2719 14.9849 18.2719 14.9848 18.2719C14.9848 18.2719 14.9848 18.2719 14.9848 18.2719C14.9848 18.2719 14.9847 18.2719 14.9847 18.2719C14.9847 18.2719 14.9847 18.2719 14.9846 18.2719C14.9846 18.2719 14.9846 18.2719 14.9846 18.2719C14.9846 18.2719 14.9845 18.2719 14.9845 18.2719C14.9845 18.2719 14.9845 18.2719 14.9845 18.2719C14.9844 18.2719 14.9844 18.2719 14.9844 18.2719C14.9844 18.2719 14.9843 18.2719 14.9843 18.2719C14.9843 18.2719 14.9843 18.2719 14.9843 18.2719C14.9842 18.2719 14.9842 18.2719 14.9842 18.2719C14.9842 18.2719 14.9842 18.2719 14.9841 18.2719C14.9841 18.2719 14.9841 18.2719 14.9841 18.2719C14.984 18.2719 14.984 18.2719 14.984 18.2719C14.984 18.2719 14.984 18.2719 14.9839 18.2719C14.9839 18.2719 14.9839 18.2719 14.9839 18.2719C14.9839 18.2719 14.9838 18.2719 14.9838 18.2719C14.9838 18.2719 14.9838 18.2719 14.9837 18.2719C14.9837 18.2719 14.9837 18.2719 14.9837 18.2719C14.9837 18.2719 14.9836 18.2719 14.9836 18.2719C14.9836 18.2719 14.9836 18.2719 14.9836 18.2719C14.9835 18.2719 14.9835 18.2719 14.9835 18.2719C14.9835 18.2719 14.9834 18.2719 14.9834 18.2719C14.9834 18.2719 14.9834 18.2719 14.9834 18.2719V36.2719C14.9834 36.2719 14.9834 36.2719 14.9834 36.2719C14.9834 36.2719 14.9835 36.2719 14.9835 36.2719C14.9835 36.2719 14.9835 36.2719 14.9836 36.2719C14.9836 36.2719 14.9836 36.2719 14.9836 36.2719C14.9836 36.2719 14.9837 36.2719 14.9837 36.2719C14.9837 36.2719 14.9837 36.2719 14.9837 36.2719C14.9838 36.2719 14.9838 36.2719 14.9838 36.2719C14.9838 36.2719 14.9839 36.2719 14.9839 36.2719C14.9839 36.2719 14.9839 36.2719 14.9839 36.2719C14.984 36.2719 14.984 36.2719 14.984 36.2719C14.984 36.2719 14.984 36.2719 14.9841 36.2719C14.9841 36.2719 14.9841 36.2719 14.9841 36.2719C14.9842 36.2719 14.9842 36.2719 14.9842 36.2719C14.9842 36.2719 14.9842 36.2719 14.9843 36.2719C14.9843 36.2719 14.9843 36.2719 14.9843 36.2719C14.9843 36.2719 14.9844 36.2719 14.9844 36.2719C14.9844 36.2719 14.9844 36.2719 14.9845 36.2719C14.9845 36.2719 14.9845 36.2719 14.9845 36.2719C14.9845 36.2719 14.9846 36.2719 14.9846 36.2719C14.9846 36.2719 14.9846 36.2719 14.9846 36.2719C14.9847 36.2719 14.9847 36.2719 14.9847 36.2719C14.9847 36.2719 14.9848 36.2719 14.9848 36.2719C14.9848 36.2719 14.9848 36.2719 14.9848 36.2719C14.9849 36.2719 14.9849 36.2719 14.9849 36.2719C14.9849 36.2719 14.985 36.2719 14.985 36.2719C14.985 36.2719 14.985 36.2719 14.985 36.2719C14.9851 36.2719 14.9851 36.2719 14.9851 36.2719C14.9851 36.2719 14.9851 36.2719 14.9852 36.2719C14.9852 36.2719 14.9852 36.2719 14.9852 36.2719C14.9853 36.2719 14.9853 36.2719 14.9853 36.2719C14.9853 36.2719 14.9853 36.2719 14.9854 36.2719C14.9854 36.2719 14.9854 36.2719 14.9854 36.2719C14.9854 36.2719 14.9855 36.2719 14.9855 36.2719C14.9855 36.2719 14.9855 36.2719 14.9856 36.2719C14.9856 36.2719 14.9856 36.2719 14.9856 36.2719C14.9856 36.2719 14.9857 36.2719 14.9857 36.2719C14.9857 36.2719 14.9857 36.2719 14.9858 36.2719C14.9858 36.2719 14.9858 36.2719 14.9858 36.2719C14.9858 36.2719 14.9859 36.2719 14.9859 36.2719C14.9859 36.2719 14.9859 36.2719 14.9859 36.2719C14.986 36.2719 14.986 36.2719 14.986 36.2719C14.986 36.2719 14.9861 36.2719 14.9861 36.2719C14.9861 36.2719 14.9861 36.2719 14.9861 36.2719C14.9862 36.2719 14.9862 36.2719 14.9862 36.2719C14.9862 36.2719 14.9862 36.2719 14.9863 36.2719C14.9863 36.2719 14.9863 36.2719 14.9863 36.2719C14.9864 36.2719 14.9864 36.2719 14.9864 36.2719C14.9864 36.2719 14.9864 36.2719 14.9865 36.2719C14.9865 36.2719 14.9865 36.2719 14.9865 36.2719C14.9865 36.2719 14.9866 36.2719 14.9866 36.2719C14.9866 36.2719 14.9866 36.2719 14.9867 36.2719C14.9867 36.2719 14.9867 36.2719 14.9867 36.2719C14.9867 36.2719 14.9868 36.2719 14.9868 36.2719C14.9868 36.2719 14.9868 36.2719 14.9869 36.2719C14.9869 36.2719 14.9869 36.2719 14.9869 36.2719C14.9869 36.2719 14.987 36.2719 14.987 36.2719C14.987 36.2719 14.987 36.2719 14.987 36.2719C14.9871 36.2719 14.9871 36.2719 14.9871 36.2719C14.9871 36.2719 14.9872 36.2719 14.9872 36.2719C14.9872 36.2719 14.9872 36.2719 14.9872 36.2719C14.9873 36.2719 14.9873 36.2719 14.9873 36.2719C14.9873 36.2719 14.9873 36.2719 14.9874 36.2719C14.9874 36.2719 14.9874 36.2719 14.9874 36.2719C14.9875 36.2719 14.9875 36.2719 14.9875 36.2719C14.9875 36.2719 14.9875 36.2719 14.9876 36.2719C14.9876 36.2719 14.9876 36.2719 14.9876 36.2719C14.9877 36.2719 14.9877 36.2719 14.9877 36.2719C14.9877 36.2719 14.9877 36.2719 14.9878 36.2719C14.9878 36.2719 14.9878 36.2719 14.9878 36.2719C14.9878 36.2719 14.9879 36.2719 14.9879 36.2719C14.9879 36.2719 14.9879 36.2719 14.988 36.2719C14.988 36.2719 14.988 36.2719 14.988 36.2719C14.988 36.2719 14.9881 36.2719 14.9881 36.2719C14.9881 36.2719 14.9881 36.2719 14.9882 36.2719C14.9882 36.2719 14.9882 36.2719 14.9882 36.2719C14.9882 36.2719 14.9883 36.2719 14.9883 36.2719C14.9883 36.2719 14.9883 36.2719 14.9883 36.2719C14.9884 36.2719 14.9884 36.2719 14.9884 36.2719C14.9884 36.2719 14.9885 36.2719 14.9885 36.2719C14.9885 36.2719 14.9885 36.2719 14.9885 36.2719C14.9886 36.2719 14.9886 36.2719 14.9886 36.2719C14.9886 36.2719 14.9886 36.2719 14.9887 36.2719C14.9887 36.2719 14.9887 36.2719 14.9887 36.2719C14.9888 36.2719 14.9888 36.2719 14.9888 36.2719C14.9888 36.2719 14.9888 36.2719 14.9889 36.2719C14.9889 36.2719 14.9889 36.2719 14.9889 36.2719C14.989 36.2719 14.989 36.2719 14.989 36.2719C14.989 36.2719 14.989 36.2719 14.9891 36.2719C14.9891 36.2719 14.9891 36.2719 14.9891 36.2719C14.9891 36.2719 14.9892 36.2719 14.9892 36.2719C14.9892 36.2719 14.9892 36.2719 14.9893 36.2719C14.9893 36.2719 14.9893 36.2719 14.9893 36.2719C14.9893 36.2719 14.9894 36.2719 14.9894 36.2719C14.9894 36.2719 14.9894 36.2719 14.9894 36.2719C14.9895 36.2719 14.9895 36.2719 14.9895 36.2719C14.9895 36.2719 14.9896 36.2719 14.9896 36.2719C14.9896 36.2719 14.9896 36.2719 14.9896 36.2719C14.9897 36.2719 14.9897 36.2719 14.9897 36.2719C14.9897 36.2719 14.9898 36.2719 14.9898 36.2719C14.9898 36.2719 14.9898 36.2719 14.9898 36.2719C14.9899 36.2719 14.9899 36.2719 14.9899 36.2719C14.9899 36.2719 14.9899 36.2719 14.99 36.2719C14.99 36.2719 14.99 36.2719 14.99 36.2719C14.9901 36.2719 14.9901 36.2719 14.9901 36.2719C14.9901 36.2719 14.9901 36.2719 14.9902 36.2719C14.9902 36.2719 14.9902 36.2719 14.9902 36.2719C14.9903 36.2719 14.9903 36.2719 14.9903 36.2719C14.9903 36.2719 14.9903 36.2719 14.9904 36.2719C14.9904 36.2719 14.9904 36.2719 14.9904 36.2719C14.9904 36.2719 14.9905 36.2719 14.9905 36.2719C14.9905 36.2719 14.9905 36.2719 14.9906 36.2719C14.9906 36.2719 14.9906 36.2719 14.9906 36.2719C14.9906 36.2719 14.9907 36.2719 14.9907 36.2719C14.9907 36.2719 14.9907 36.2719 14.9907 36.2719C14.9908 36.2719 14.9908 36.2719 14.9908 36.2719C14.9908 36.2719 14.9909 36.2719 14.9909 36.2719C14.9909 36.2719 14.9909 36.2719 14.9909 36.2719C14.991 36.2719 14.991 36.2719 14.991 36.2719C14.991 36.2719 14.9911 36.2719 14.9911 36.2719C14.9911 36.2719 14.9911 36.2719 14.9911 36.2719C14.9912 36.2719 14.9912 36.2719 14.9912 36.2719C14.9912 36.2719 14.9912 36.2719 14.9913 36.2719C14.9913 36.2719 14.9913 36.2719 14.9913 36.2719C14.9914 36.2719 14.9914 36.2719 14.9914 36.2719C14.9914 36.2719 14.9914 36.2719 14.9915 36.2719C14.9915 36.2719 14.9915 36.2719 14.9915 36.2719C14.9916 36.2719 14.9916 36.2719 14.9916 36.2719C14.9916 36.2719 14.9916 36.2719 14.9917 36.2719C14.9917 36.2719 14.9917 36.2719 14.9917 36.2719C14.9917 36.2719 14.9918 36.2719 14.9918 36.2719C14.9918 36.2719 14.9918 36.2719 14.9919 36.2719C14.9919 36.2719 14.9919 36.2719 14.9919 36.2719C14.9919 36.2719 14.992 36.2719 14.992 36.2719C14.992 36.2719 14.992 36.2719 14.9921 36.2719C14.9921 36.2719 14.9921 36.2719 14.9921 36.2719C14.9921 36.2719 14.9922 36.2719 14.9922 36.2719C14.9922 36.2719 14.9922 36.2719 14.9922 36.2719C14.9923 36.2719 14.9923 36.2719 14.9923 36.2719C14.9923 36.2719 14.9924 36.2719 14.9924 36.2719C14.9924 36.2719 14.9924 36.2719 14.9924 36.2719C14.9925 36.2719 14.9925 36.2719 14.9925 36.2719C14.9925 36.2719 14.9925 36.2719 14.9926 36.2719C14.9926 36.2719 14.9926 36.2719 14.9926 36.2719C14.9927 36.2719 14.9927 36.2719 14.9927 36.2719C14.9927 36.2719 14.9927 36.2719 14.9928 36.2719C14.9928 36.2719 14.9928 36.2719 14.9928 36.2719C14.9929 36.2719 14.9929 36.2719 14.9929 36.2719C14.9929 36.2719 14.9929 36.2719 14.993 36.2719C14.993 36.2719 14.993 36.2719 14.993 36.2719C14.993 36.2719 14.9931 36.2719 14.9931 36.2719C14.9931 36.2719 14.9931 36.2719 14.9932 36.2719C14.9932 36.2719 14.9932 36.2719 14.9932 36.2719C14.9932 36.2719 14.9933 36.2719 14.9933 36.2719C14.9933 36.2719 14.9933 36.2719 14.9934 36.2719C14.9934 36.2719 14.9934 36.2719 14.9934 36.2719C14.9934 36.2719 14.9935 36.2719 14.9935 36.2719C14.9935 36.2719 14.9935 36.2719 14.9935 36.2719C14.9936 36.2719 14.9936 36.2719 14.9936 36.2719C14.9936 36.2719 14.9937 36.2719 14.9937 36.2719C14.9937 36.2719 14.9937 36.2719 14.9937 36.2719C14.9938 36.2719 14.9938 36.2719 14.9938 36.2719C14.9938 36.2719 14.9939 36.2719 14.9939 36.2719C14.9939 36.2719 14.9939 36.2719 14.9939 36.2719C14.994 36.2719 14.994 36.2719 14.994 36.2719C14.994 36.2719 14.994 36.2719 14.9941 36.2719C14.9941 36.2719 14.9941 36.2719 14.9941 36.2719C14.9942 36.2719 14.9942 36.2719 14.9942 36.2719C14.9942 36.2719 14.9942 36.2719 14.9943 36.2719C14.9943 36.2719 14.9943 36.2719 14.9943 36.2719C14.9944 36.2719 14.9944 36.2719 14.9944 36.2719C14.9944 36.2719 14.9944 36.2719 14.9945 36.2719C14.9945 36.2719 14.9945 36.2719 14.9945 36.2719C14.9945 36.2719 14.9946 36.2719 14.9946 36.2719C14.9946 36.2719 14.9946 36.2719 14.9947 36.2719C14.9947 36.2719 14.9947 36.2719 14.9947 36.2719C14.9947 36.2719 14.9948 36.2719 14.9948 36.2719C14.9948 36.2719 14.9948 36.2719 14.9949 36.2719C14.9949 36.2719 14.9949 36.2719 14.9949 36.2719C14.9949 36.2719 14.995 36.2719 14.995 36.2719C14.995 36.2719 14.995 36.2719 14.995 36.2719C14.9951 36.2719 14.9951 36.2719 14.9951 36.2719C14.9951 36.2719 14.9952 36.2719 14.9952 36.2719C14.9952 36.2719 14.9952 36.2719 14.9952 36.2719C14.9953 36.2719 14.9953 36.2719 14.9953 36.2719C14.9953 36.2719 14.9954 36.2719 14.9954 36.2719C14.9954 36.2719 14.9954 36.2719 14.9954 36.2719C14.9955 36.2719 14.9955 36.2719 14.9955 36.2719C14.9955 36.2719 14.9955 36.2719 14.9956 36.2719C14.9956 36.2719 14.9956 36.2719 14.9956 36.2719C14.9957 36.2719 14.9957 36.2719 14.9957 36.2719C14.9957 36.2719 14.9957 36.2719 14.9958 36.2719C14.9958 36.2719 14.9958 36.2719 14.9958 36.2719C14.9959 36.2719 14.9959 36.2719 14.9959 36.2719C14.9959 36.2719 14.9959 36.2719 14.996 36.2719C14.996 36.2719 14.996 36.2719 14.996 36.2719C14.996 36.2719 14.9961 36.2719 14.9961 36.2719C14.9961 36.2719 14.9961 36.2719 14.9962 36.2719C14.9962 36.2719 14.9962 36.2719 14.9962 36.2719C14.9962 36.2719 14.9963 36.2719 14.9963 36.2719C14.9963 36.2719 14.9963 36.2719 14.9964 36.2719C14.9964 36.2719 14.9964 36.2719 14.9964 36.2719C14.9964 36.2719 14.9965 36.2719 14.9965 36.2719C14.9965 36.2719 14.9965 36.2719 14.9965 36.2719C14.9966 36.2719 14.9966 36.2719 14.9966 36.2719C14.9966 36.2719 14.9967 36.2719 14.9967 36.2719C14.9967 36.2719 14.9967 36.2719 14.9967 36.2719C14.9968 36.2719 14.9968 36.2719 14.9968 36.2719C14.9968 36.2719 14.9969 36.2719 14.9969 36.2719C14.9969 36.2719 14.9969 36.2719 14.9969 36.2719C14.997 36.2719 14.997 36.2719 14.997 36.2719C14.997 36.2719 14.997 36.2719 14.9971 36.2719C14.9971 36.2719 14.9971 36.2719 14.9971 36.2719C14.9972 36.2719 14.9972 36.2719 14.9972 36.2719C14.9972 36.2719 14.9972 36.2719 14.9973 36.2719C14.9973 36.2719 14.9973 36.2719 14.9973 36.2719C14.9973 36.2719 14.9974 36.2719 14.9974 36.2719C14.9974 36.2719 14.9974 36.2719 14.9975 36.2719C14.9975 36.2719 14.9975 36.2719 14.9975 36.2719C14.9975 36.2719 14.9976 36.2719 14.9976 36.2719C14.9976 36.2719 14.9976 36.2719 14.9977 36.2719C14.9977 36.2719 14.9977 36.2719 14.9977 36.2719C14.9977 36.2719 14.9978 36.2719 14.9978 36.2719C14.9978 36.2719 14.9978 36.2719 14.9978 36.2719C14.9979 36.2719 14.9979 36.2719 14.9979 36.2719C14.9979 36.2719 14.998 36.2719 14.998 36.2719C14.998 36.2719 14.998 36.2719 14.998 36.2719C14.9981 36.2719 14.9981 36.2719 14.9981 36.2719C14.9981 36.2719 14.9982 36.2719 14.9982 36.2719C14.9982 36.2719 14.9982 36.2719 14.9982 36.2719C14.9983 36.2719 14.9983 36.2719 14.9983 36.2719C14.9983 36.2719 14.9983 36.2719 14.9984 36.2719C14.9984 36.2719 14.9984 36.2719 14.9984 36.2719C14.9985 36.2719 14.9985 36.2719 14.9985 36.2719C14.9985 36.2719 14.9985 36.2719 14.9986 36.2719C14.9986 36.2719 14.9986 36.2719 14.9986 36.2719C14.9987 36.2719 14.9987 36.2719 14.9987 36.2719C14.9987 36.2719 14.9987 36.2719 14.9988 36.2719C14.9988 36.2719 14.9988 36.2719 14.9988 36.2719C14.9988 36.2719 14.9989 36.2719 14.9989 36.2719C14.9989 36.2719 14.9989 36.2719 14.999 36.2719C14.999 36.2719 14.999 36.2719 14.999 36.2719C14.999 36.2719 14.9991 36.2719 14.9991 36.2719C14.9991 36.2719 14.9991 36.2719 14.9992 36.2719C14.9992 36.2719 14.9992 36.2719 14.9992 36.2719C14.9992 36.2719 14.9993 36.2719 14.9993 36.2719C14.9993 36.2719 14.9993 36.2719 14.9993 36.2719C14.9994 36.2719 14.9994 36.2719 14.9994 36.2719C14.9994 36.2719 14.9995 36.2719 14.9995 36.2719C14.9995 36.2719 14.9995 36.2719 14.9995 36.2719C14.9996 36.2719 14.9996 36.2719 14.9996 36.2719C14.9996 36.2719 14.9997 36.2719 14.9997 36.2719C14.9997 36.2719 14.9997 36.2719 14.9997 36.2719C14.9998 36.2719 14.9998 36.2719 14.9998 36.2719C14.9998 36.2719 14.9998 36.2719 14.9999 36.2719C14.9999 36.2719 14.9999 36.2719 14.9999 36.2719C15 36.2719 15 36.2719 15 36.2719C15 36.2719 15 36.2719 15.0001 36.2719C15.0001 36.2719 15.0001 36.2719 15.0001 36.2719C15.0002 36.2719 15.0002 36.2719 15.0002 36.2719C15.0002 36.2719 15.0002 36.2719 15.0003 36.2719C15.0003 36.2719 15.0003 36.2719 15.0003 36.2719C15.0003 36.2719 15.0004 36.2719 15.0004 36.2719C15.0004 36.2719 15.0004 36.2719 15.0005 36.2719C15.0005 36.2719 15.0005 36.2719 15.0005 36.2719C15.0005 36.2719 15.0006 36.2719 15.0006 36.2719C15.0006 36.2719 15.0006 36.2719 15.0007 36.2719C15.0007 36.2719 15.0007 36.2719 15.0007 36.2719C15.0007 36.2719 15.0008 36.2719 15.0008 36.2719C15.0008 36.2719 15.0008 36.2719 15.0008 36.2719C15.0009 36.2719 15.0009 36.2719 15.0009 36.2719C15.0009 36.2719 15.001 36.2719 15.001 36.2719C15.001 36.2719 15.001 36.2719 15.001 36.2719C15.0011 36.2719 15.0011 36.2719 15.0011 36.2719C15.0011 36.2719 15.0012 36.2719 15.0012 36.2719C15.0012 36.2719 15.0012 36.2719 15.0012 36.2719C15.0013 36.2719 15.0013 36.2719 15.0013 36.2719C15.0013 36.2719 15.0013 36.2719 15.0014 36.2719C15.0014 36.2719 15.0014 36.2719 15.0014 36.2719C15.0015 36.2719 15.0015 36.2719 15.0015 36.2719C15.0015 36.2719 15.0015 36.2719 15.0016 36.2719C15.0016 36.2719 15.0016 36.2719 15.0016 36.2719C15.0017 36.2719 15.0017 36.2719 15.0017 36.2719C15.0017 36.2719 15.0017 36.2719 15.0018 36.2719C15.0018 36.2719 15.0018 36.2719 15.0018 36.2719C15.0018 36.2719 15.0019 36.2719 15.0019 36.2719C15.0019 36.2719 15.0019 36.2719 15.002 36.2719C15.002 36.2719 15.002 36.2719 15.002 36.2719C15.002 36.2719 15.0021 36.2719 15.0021 36.2719C15.0021 36.2719 15.0021 36.2719 15.0022 36.2719C15.0022 36.2719 15.0022 36.2719 15.0022 36.2719C15.0022 36.2719 15.0023 36.2719 15.0023 36.2719C15.0023 36.2719 15.0023 36.2719 15.0023 36.2719C15.0024 36.2719 15.0024 36.2719 15.0024 36.2719C15.0024 36.2719 15.0025 36.2719 15.0025 36.2719C15.0025 36.2719 15.0025 36.2719 15.0025 36.2719C15.0026 36.2719 15.0026 36.2719 15.0026 36.2719C15.0026 36.2719 15.0027 36.2719 15.0027 36.2719C15.0027 36.2719 15.0027 36.2719 15.0027 36.2719C15.0028 36.2719 15.0028 36.2719 15.0028 36.2719C15.0028 36.2719 15.0028 36.2719 15.0029 36.2719C15.0029 36.2719 15.0029 36.2719 15.0029 36.2719C15.003 36.2719 15.003 36.2719 15.003 36.2719C15.003 36.2719 15.003 36.2719 15.0031 36.2719C15.0031 36.2719 15.0031 36.2719 15.0031 36.2719C15.0032 36.2719 15.0032 36.2719 15.0032 36.2719C15.0032 36.2719 15.0032 36.2719 15.0033 36.2719C15.0033 36.2719 15.0033 36.2719 15.0033 36.2719C15.0033 36.2719 15.0034 36.2719 15.0034 36.2719C15.0034 36.2719 15.0034 36.2719 15.0035 36.2719C15.0035 36.2719 15.0035 36.2719 15.0035 36.2719C15.0035 36.2719 15.0036 36.2719 15.0036 36.2719C15.0036 36.2719 15.0036 36.2719 15.0037 36.2719C15.0037 36.2719 15.0037 36.2719 15.0037 36.2719C15.0037 36.2719 15.0038 36.2719 15.0038 36.2719C15.0038 36.2719 15.0038 36.2719 15.0038 36.2719C15.0039 36.2719 15.0039 36.2719 15.0039 36.2719C15.0039 36.2719 15.004 36.2719 15.004 36.2719C15.004 36.2719 15.004 36.2719 15.004 36.2719C15.0041 36.2719 15.0041 36.2719 15.0041 36.2719C15.0041 36.2719 15.0042 36.2719 15.0042 36.2719C15.0042 36.2719 15.0042 36.2719 15.0042 36.2719C15.0043 36.2719 15.0043 36.2719 15.0043 36.2719C15.0043 36.2719 15.0043 36.2719 15.0044 36.2719C15.0044 36.2719 15.0044 36.2719 15.0044 36.2719C15.0045 36.2719 15.0045 36.2719 15.0045 36.2719C15.0045 36.2719 15.0045 36.2719 15.0046 36.2719C15.0046 36.2719 15.0046 36.2719 15.0046 36.2719C15.0047 36.2719 15.0047 36.2719 15.0047 36.2719C15.0047 36.2719 15.0047 36.2719 15.0048 36.2719C15.0048 36.2719 15.0048 36.2719 15.0048 36.2719C15.0048 36.2719 15.0049 36.2719 15.0049 36.2719C15.0049 36.2719 15.0049 36.2719 15.005 36.2719C15.005 36.2719 15.005 36.2719 15.005 36.2719C15.005 36.2719 15.0051 36.2719 15.0051 36.2719C15.0051 36.2719 15.0051 36.2719 15.0052 36.2719C15.0052 36.2719 15.0052 36.2719 15.0052 36.2719C15.0052 36.2719 15.0053 36.2719 15.0053 36.2719C15.0053 36.2719 15.0053 36.2719 15.0053 36.2719C15.0054 36.2719 15.0054 36.2719 15.0054 36.2719C15.0054 36.2719 15.0055 36.2719 15.0055 36.2719C15.0055 36.2719 15.0055 36.2719 15.0055 36.2719C15.0056 36.2719 15.0056 36.2719 15.0056 36.2719C15.0056 36.2719 15.0057 36.2719 15.0057 36.2719C15.0057 36.2719 15.0057 36.2719 15.0057 36.2719C15.0058 36.2719 15.0058 36.2719 15.0058 36.2719C15.0058 36.2719 15.0058 36.2719 15.0059 36.2719C15.0059 36.2719 15.0059 36.2719 15.0059 36.2719C15.006 36.2719 15.006 36.2719 15.006 36.2719C15.006 36.2719 15.006 36.2719 15.0061 36.2719C15.0061 36.2719 15.0061 36.2719 15.0061 36.2719C15.0062 36.2719 15.0062 36.2719 15.0062 36.2719C15.0062 36.2719 15.0062 36.2719 15.0063 36.2719C15.0063 36.2719 15.0063 36.2719 15.0063 36.2719C15.0063 36.2719 15.0064 36.2719 15.0064 36.2719C15.0064 36.2719 15.0064 36.2719 15.0065 36.2719C15.0065 36.2719 15.0065 36.2719 15.0065 36.2719C15.0065 36.2719 15.0066 36.2719 15.0066 36.2719C15.0066 36.2719 15.0066 36.2719 15.0066 36.2719C15.0067 36.2719 15.0067 36.2719 15.0067 36.2719C15.0067 36.2719 15.0068 36.2719 15.0068 36.2719C15.0068 36.2719 15.0068 36.2719 15.0068 36.2719C15.0069 36.2719 15.0069 36.2719 15.0069 36.2719C15.0069 36.2719 15.007 36.2719 15.007 36.2719C15.007 36.2719 15.007 36.2719 15.007 36.2719C15.0071 36.2719 15.0071 36.2719 15.0071 36.2719C15.0071 36.2719 15.0071 36.2719 15.0072 36.2719C15.0072 36.2719 15.0072 36.2719 15.0072 36.2719C15.0073 36.2719 15.0073 36.2719 15.0073 36.2719C15.0073 36.2719 15.0073 36.2719 15.0074 36.2719C15.0074 36.2719 15.0074 36.2719 15.0074 36.2719C15.0075 36.2719 15.0075 36.2719 15.0075 36.2719C15.0075 36.2719 15.0075 36.2719 15.0076 36.2719C15.0076 36.2719 15.0076 36.2719 15.0076 36.2719C15.0076 36.2719 15.0077 36.2719 15.0077 36.2719C15.0077 36.2719 15.0077 36.2719 15.0078 36.2719C15.0078 36.2719 15.0078 36.2719 15.0078 36.2719C15.0078 36.2719 15.0079 36.2719 15.0079 36.2719C15.0079 36.2719 15.0079 36.2719 15.008 36.2719C15.008 36.2719 15.008 36.2719 15.008 36.2719C15.008 36.2719 15.0081 36.2719 15.0081 36.2719C15.0081 36.2719 15.0081 36.2719 15.0081 36.2719C15.0082 36.2719 15.0082 36.2719 15.0082 36.2719C15.0082 36.2719 15.0083 36.2719 15.0083 36.2719C15.0083 36.2719 15.0083 36.2719 15.0083 36.2719C15.0084 36.2719 15.0084 36.2719 15.0084 36.2719C15.0084 36.2719 15.0085 36.2719 15.0085 36.2719C15.0085 36.2719 15.0085 36.2719 15.0085 36.2719C15.0086 36.2719 15.0086 36.2719 15.0086 36.2719C15.0086 36.2719 15.0086 36.2719 15.0087 36.2719C15.0087 36.2719 15.0087 36.2719 15.0087 36.2719C15.0088 36.2719 15.0088 36.2719 15.0088 36.2719C15.0088 36.2719 15.0088 36.2719 15.0089 36.2719C15.0089 36.2719 15.0089 36.2719 15.0089 36.2719C15.0089 36.2719 15.009 36.2719 15.009 36.2719C15.009 36.2719 15.009 36.2719 15.0091 36.2719C15.0091 36.2719 15.0091 36.2719 15.0091 36.2719C15.0091 36.2719 15.0092 36.2719 15.0092 36.2719C15.0092 36.2719 15.0092 36.2719 15.0093 36.2719C15.0093 36.2719 15.0093 36.2719 15.0093 36.2719C15.0093 36.2719 15.0094 36.2719 15.0094 36.2719C15.0094 36.2719 15.0094 36.2719 15.0094 36.2719C15.0095 36.2719 15.0095 36.2719 15.0095 36.2719C15.0095 36.2719 15.0096 36.2719 15.0096 36.2719C15.0096 36.2719 15.0096 36.2719 15.0096 36.2719C15.0097 36.2719 15.0097 36.2719 15.0097 36.2719C15.0097 36.2719 15.0098 36.2719 15.0098 36.2719C15.0098 36.2719 15.0098 36.2719 15.0098 36.2719C15.0099 36.2719 15.0099 36.2719 15.0099 36.2719C15.0099 36.2719 15.0099 36.2719 15.01 36.2719C15.01 36.2719 15.01 36.2719 15.01 36.2719C15.0101 36.2719 15.0101 36.2719 15.0101 36.2719C15.0101 36.2719 15.0101 36.2719 15.0102 36.2719C15.0102 36.2719 15.0102 36.2719 15.0102 36.2719C15.0103 36.2719 15.0103 36.2719 15.0103 36.2719C15.0103 36.2719 15.0103 36.2719 15.0104 36.2719C15.0104 36.2719 15.0104 36.2719 15.0104 36.2719C15.0104 36.2719 15.0105 36.2719 15.0105 36.2719C15.0105 36.2719 15.0105 36.2719 15.0106 36.2719C15.0106 36.2719 15.0106 36.2719 15.0106 36.2719C15.0106 36.2719 15.0107 36.2719 15.0107 36.2719C15.0107 36.2719 15.0107 36.2719 15.0107 36.2719C15.0108 36.2719 15.0108 36.2719 15.0108 36.2719C15.0108 36.2719 15.0109 36.2719 15.0109 36.2719C15.0109 36.2719 15.0109 36.2719 15.0109 36.2719C15.011 36.2719 15.011 36.2719 15.011 36.2719C15.011 36.2719 15.0111 36.2719 15.0111 36.2719C15.0111 36.2719 15.0111 36.2719 15.0111 36.2719C15.0112 36.2719 15.0112 36.2719 15.0112 36.2719C15.0112 36.2719 15.0112 36.2719 15.0113 36.2719C15.0113 36.2719 15.0113 36.2719 15.0113 36.2719C15.0114 36.2719 15.0114 36.2719 15.0114 36.2719C15.0114 36.2719 15.0114 36.2719 15.0115 36.2719C15.0115 36.2719 15.0115 36.2719 15.0115 36.2719C15.0115 36.2719 15.0116 36.2719 15.0116 36.2719C15.0116 36.2719 15.0116 36.2719 15.0117 36.2719C15.0117 36.2719 15.0117 36.2719 15.0117 36.2719C15.0117 36.2719 15.0118 36.2719 15.0118 36.2719C15.0118 36.2719 15.0118 36.2719 15.0119 36.2719C15.0119 36.2719 15.0119 36.2719 15.0119 36.2719C15.0119 36.2719 15.012 36.2719 15.012 36.2719C15.012 36.2719 15.012 36.2719 15.012 36.2719C15.0121 36.2719 15.0121 36.2719 15.0121 36.2719C15.0121 36.2719 15.0122 36.2719 15.0122 36.2719C15.0122 36.2719 15.0122 36.2719 15.0122 36.2719C15.0123 36.2719 15.0123 36.2719 15.0123 36.2719C15.0123 36.2719 15.0124 36.2719 15.0124 36.2719C15.0124 36.2719 15.0124 36.2719 15.0124 36.2719C15.0125 36.2719 15.0125 36.2719 15.0125 36.2719C15.0125 36.2719 15.0125 36.2719 15.0126 36.2719C15.0126 36.2719 15.0126 36.2719 15.0126 36.2719C15.0127 36.2719 15.0127 36.2719 15.0127 36.2719C15.0127 36.2719 15.0127 36.2719 15.0128 36.2719C15.0128 36.2719 15.0128 36.2719 15.0128 36.2719C15.0128 36.2719 15.0129 36.2719 15.0129 36.2719C15.0129 36.2719 15.0129 36.2719 15.013 36.2719C15.013 36.2719 15.013 36.2719 15.013 36.2719C15.013 36.2719 15.0131 36.2719 15.0131 36.2719C15.0131 36.2719 15.0131 36.2719 15.0132 36.2719C15.0132 36.2719 15.0132 36.2719 15.0132 36.2719C15.0132 36.2719 15.0133 36.2719 15.0133 36.2719C15.0133 36.2719 15.0133 36.2719 15.0133 36.2719C15.0134 36.2719 15.0134 36.2719 15.0134 36.2719C15.0134 36.2719 15.0135 36.2719 15.0135 36.2719C15.0135 36.2719 15.0135 36.2719 15.0135 36.2719C15.0136 36.2719 15.0136 36.2719 15.0136 36.2719C15.0136 36.2719 15.0136 36.2719 15.0137 36.2719C15.0137 36.2719 15.0137 36.2719 15.0137 36.2719C15.0138 36.2719 15.0138 36.2719 15.0138 36.2719C15.0138 36.2719 15.0138 36.2719 15.0139 36.2719C15.0139 36.2719 15.0139 36.2719 15.0139 36.2719C15.0139 36.2719 15.014 36.2719 15.014 36.2719C15.014 36.2719 15.014 36.2719 15.0141 36.2719C15.0141 36.2719 15.0141 36.2719 15.0141 36.2719C15.0141 36.2719 15.0142 36.2719 15.0142 36.2719C15.0142 36.2719 15.0142 36.2719 15.0143 36.2719C15.0143 36.2719 15.0143 36.2719 15.0143 36.2719C15.0143 36.2719 15.0144 36.2719 15.0144 36.2719C15.0144 36.2719 15.0144 36.2719 15.0144 36.2719C15.0145 36.2719 15.0145 36.2719 15.0145 36.2719C15.0145 36.2719 15.0146 36.2719 15.0146 36.2719C15.0146 36.2719 15.0146 36.2719 15.0146 36.2719C15.0147 36.2719 15.0147 36.2719 15.0147 36.2719C15.0147 36.2719 15.0147 36.2719 15.0148 36.2719C15.0148 36.2719 15.0148 36.2719 15.0148 36.2719C15.0149 36.2719 15.0149 36.2719 15.0149 36.2719C15.0149 36.2719 15.0149 36.2719 15.015 36.2719C15.015 36.2719 15.015 36.2719 15.015 36.2719C15.0151 36.2719 15.0151 36.2719 15.0151 36.2719C15.0151 36.2719 15.0151 36.2719 15.0152 36.2719C15.0152 36.2719 15.0152 36.2719 15.0152 36.2719C15.0152 36.2719 15.0153 36.2719 15.0153 36.2719C15.0153 36.2719 15.0153 36.2719 15.0154 36.2719C15.0154 36.2719 15.0154 36.2719 15.0154 36.2719C15.0154 36.2719 15.0155 36.2719 15.0155 36.2719C15.0155 36.2719 15.0155 36.2719 15.0155 36.2719C15.0156 36.2719 15.0156 36.2719 15.0156 36.2719C15.0156 36.2719 15.0157 36.2719 15.0157 36.2719C15.0157 36.2719 15.0157 36.2719 15.0157 36.2719C15.0158 36.2719 15.0158 36.2719 15.0158 36.2719C15.0158 36.2719 15.0158 36.2719 15.0159 36.2719C15.0159 36.2719 15.0159 36.2719 15.0159 36.2719C15.016 36.2719 15.016 36.2719 15.016 36.2719C15.016 36.2719 15.016 36.2719 15.0161 36.2719C15.0161 36.2719 15.0161 36.2719 15.0161 36.2719C15.0162 36.2719 15.0162 36.2719 15.0162 36.2719C15.0162 36.2719 15.0162 36.2719 15.0163 36.2719C15.0163 36.2719 15.0163 36.2719 15.0163 36.2719C15.0163 36.2719 15.0164 36.2719 15.0164 36.2719C15.0164 36.2719 15.0164 36.2719 15.0165 36.2719C15.0165 36.2719 15.0165 36.2719 15.0165 36.2719C15.0165 36.2719 15.0166 36.2719 15.0166 36.2719C15.0166 36.2719 15.0166 36.2719 15.0166 36.2719V18.2719ZM5.98403 27.3817L6.00067 28.7453L23.9993 28.5256L23.9827 27.162L5.98403 27.3817ZM28.4502 25.199L29.9019 25.2148L30.0981 7.21585L28.6463 7.20003L28.4502 25.199ZM38.9997 16.1399L38.9995 16.117L21.0001 16.2678L21.0003 16.2907L38.9997 16.1399ZM29.9559 7.19251L28.5043 7.1996L28.5922 25.1994L30.0438 25.1923L29.9559 7.19251ZM24.9473 -4.55415C20.1005 -6.62727 13.9556 -4.82756 11.387 0.469963L27.5835 8.32314C25.6795 12.2499 21.256 13.4444 17.8685 11.9955L24.9473 -4.55415ZM11.3861 0.471815C8.65318 6.11147 11.5587 12.2933 16.6656 14.4775L23.744 -2.07226C27.3916 -0.512183 29.653 4.0524 27.5844 8.32129L11.3861 0.471815ZM25.4516 12.0433V1.36359H7.4516V12.0433H25.4516ZM4.54841 1.36359V12.0433H22.5484V1.36359H4.54841ZM5.05246 -4.55406C-3.22125 -1.01491 -8.94853 6.93932 -8.99986 16.1422L8.99986 16.2426C9.00849 14.6946 9.98967 12.9117 12.1316 11.9954L5.05246 -4.55406ZM-0.0439602 25.1923L2.8594 25.2065L2.94732 7.20669L0.0439602 7.19251L-0.0439602 25.1923ZM11.9032 16.2568C11.9059 15.7723 12.2234 14.9528 13.3348 14.4774L6.25561 -2.0721C-0.987878 1.02637 -6.05108 8.01742 -6.0965 16.1564L11.9032 16.2568ZM-8.99902 16.3268C-8.83564 29.5133 2.48785 39.1346 15.1136 38.9985L14.9197 20.9996C11.1489 21.0402 9.02706 18.3201 8.9996 16.1038L-8.99902 16.3268ZM24.016 29.8892L23.9827 27.162L5.98403 27.3817L6.01732 30.1089L24.016 29.8892ZM14.8861 18.2724C12.7187 18.2958 11.9114 16.7824 11.9026 16.0722L-6.09602 16.2952C-5.9513 27.9755 4.05763 36.3905 15.0806 36.2714L14.8861 18.2724ZM2.80521 7.18421L-0.0977797 7.21585L0.0983612 25.2148L3.00136 25.1831L2.80521 7.18421ZM14.8864 38.9985C27.5117 39.1346 38.8363 29.5137 38.9993 16.3266L21.0007 16.104C20.9733 18.3198 18.8515 21.0402 15.0804 20.9996L14.8864 38.9985ZM30.0981 7.21585L27.1949 7.18421L26.9987 25.1831L29.9019 25.2148L30.0981 7.21585ZM18.0975 16.0721C18.0887 16.7824 17.2813 18.2958 15.1139 18.2724L14.9194 36.2714C25.9425 36.3905 35.9513 27.9754 36.0961 16.2953L18.0975 16.0721ZM6.01732 27.162L5.98403 29.8892L23.9827 30.1089L24.016 27.3817L6.01732 27.162ZM38.9997 16.1422C38.9483 6.93959 33.2216 -1.01482 24.9475 -4.55408L17.8684 11.9954C20.0101 12.9116 20.9913 14.6943 20.9999 16.2426L38.9997 16.1422ZM16.6652 14.4773C17.7766 14.9528 18.0941 15.7724 18.0968 16.2567L36.0965 16.1565C36.0512 8.01733 30.9877 1.02636 23.7445 -2.07206L16.6652 14.4773ZM27.1406 25.2065L30.0438 25.1923L29.9558 7.19251L27.0527 7.20669L27.1406 25.2065Z" fill="#F9CE00" mask="url(#path-1-inside-1_774_2362)"/>
</svg>
