<svg width="271" height="89" viewBox="0 0 271 89" fill="none" xmlns="http://www.w3.org/2000/svg">
<path d="M80.0341 61.8182H72.0227C71.9659 61.1553 71.8144 60.554 71.5682 60.0142C71.3314 59.4744 71 59.0104 70.5739 58.6222C70.1572 58.2244 69.6506 57.9214 69.054 57.7131C68.4574 57.4953 67.7803 57.3864 67.0227 57.3864C65.697 57.3864 64.5748 57.7083 63.6562 58.3523C62.7472 58.9962 62.0559 59.9195 61.5824 61.1222C61.1184 62.3248 60.8864 63.7689 60.8864 65.4545C60.8864 67.2348 61.1231 68.7263 61.5966 69.929C62.0795 71.1222 62.7756 72.0218 63.6847 72.6278C64.5938 73.2244 65.6875 73.5227 66.9659 73.5227C67.6951 73.5227 68.3485 73.4328 68.9261 73.2528C69.5038 73.0634 70.0057 72.7936 70.4318 72.4432C70.858 72.0928 71.2036 71.6714 71.4688 71.179C71.7434 70.6771 71.928 70.1136 72.0227 69.4886L80.0341 69.5455C79.9394 70.7765 79.5938 72.0312 78.9972 73.3097C78.4006 74.5786 77.553 75.7528 76.4545 76.8324C75.3655 77.9025 74.0161 78.7642 72.4062 79.4176C70.7964 80.071 68.9261 80.3977 66.7955 80.3977C64.125 80.3977 61.7292 79.8248 59.608 78.679C57.4962 77.5331 55.8248 75.8475 54.5938 73.6222C53.3722 71.3968 52.7614 68.6742 52.7614 65.4545C52.7614 62.2159 53.3864 59.4886 54.6364 57.2727C55.8864 55.0473 57.572 53.3665 59.6932 52.2301C61.8144 51.0843 64.1818 50.5114 66.7955 50.5114C68.6326 50.5114 70.3229 50.7623 71.8665 51.2642C73.41 51.7661 74.7642 52.5 75.929 53.4659C77.0938 54.4223 78.0313 55.6013 78.7415 57.0028C79.4517 58.4044 79.8826 60.0095 80.0341 61.8182ZM91.5717 67.7273V80H83.7308V50.9091H91.2876V62.3295H91.5149C92.0073 60.9375 92.8265 59.8532 93.9723 59.0767C95.1181 58.2907 96.496 57.8977 98.1058 57.8977C99.6494 57.8977 100.989 58.2481 102.126 58.9489C103.272 59.6496 104.157 60.6155 104.782 61.8466C105.416 63.0777 105.729 64.4886 105.719 66.0795V80H97.8786V67.7273C97.888 66.6477 97.6181 65.8002 97.0689 65.1847C96.5291 64.5691 95.7573 64.2614 94.7536 64.2614C94.1191 64.2614 93.5604 64.4034 93.0774 64.6875C92.6039 64.9621 92.2346 65.3598 91.9695 65.8807C91.7138 66.392 91.5812 67.0076 91.5717 67.7273ZM120.045 80.3977C117.715 80.3977 115.708 79.9527 114.022 79.0625C112.346 78.1629 111.053 76.875 110.144 75.1989C109.245 73.5133 108.795 71.4962 108.795 69.1477C108.795 66.8939 109.249 64.9242 110.158 63.2386C111.067 61.553 112.351 60.2415 114.008 59.304C115.665 58.3665 117.621 57.8977 119.874 57.8977C121.522 57.8977 123.013 58.1534 124.349 58.6648C125.684 59.1761 126.825 59.9195 127.772 60.8949C128.719 61.8608 129.448 63.035 129.96 64.4176C130.471 65.8002 130.727 67.358 130.727 69.0909V70.9091H111.238V66.5909H123.511C123.501 65.9659 123.34 65.4167 123.028 64.9432C122.725 64.4602 122.313 64.0862 121.792 63.821C121.281 63.5464 120.698 63.4091 120.045 63.4091C119.41 63.4091 118.828 63.5464 118.298 63.821C117.767 64.0862 117.341 64.4555 117.019 64.929C116.707 65.4025 116.541 65.9564 116.522 66.5909V71.25C116.522 71.9508 116.669 72.5758 116.962 73.125C117.256 73.6742 117.677 74.1051 118.227 74.4176C118.776 74.7301 119.439 74.8864 120.215 74.8864C120.755 74.8864 121.247 74.8106 121.692 74.6591C122.147 74.5076 122.535 74.2898 122.857 74.0057C123.179 73.7121 123.416 73.3617 123.567 72.9545H130.727C130.48 74.4697 129.898 75.786 128.979 76.9034C128.061 78.0114 126.844 78.8731 125.329 79.4886C123.823 80.0947 122.062 80.3977 120.045 80.3977ZM153.869 65.2841H146.653C146.616 64.839 146.459 64.4555 146.185 64.1335C145.91 63.8116 145.555 63.5653 145.119 63.3949C144.693 63.215 144.22 63.125 143.699 63.125C143.027 63.125 142.449 63.2481 141.966 63.4943C141.483 63.7405 141.246 64.0909 141.256 64.5455C141.246 64.8674 141.384 65.1657 141.668 65.4403C141.961 65.715 142.525 65.928 143.358 66.0795L147.79 66.875C150.025 67.2822 151.687 67.9687 152.776 68.9347C153.874 69.8911 154.428 71.1742 154.438 72.7841C154.428 74.3371 153.964 75.6866 153.045 76.8324C152.136 77.9687 150.891 78.8494 149.31 79.4744C147.738 80.09 145.943 80.3977 143.926 80.3977C140.593 80.3977 137.984 79.7159 136.099 78.3523C134.224 76.9886 133.178 75.1894 132.96 72.9545H140.744C140.848 73.6458 141.189 74.1809 141.767 74.5597C142.354 74.929 143.093 75.1136 143.983 75.1136C144.703 75.1136 145.295 74.9905 145.759 74.7443C146.232 74.4981 146.473 74.1477 146.483 73.6932C146.473 73.2765 146.265 72.9451 145.858 72.6989C145.46 72.4527 144.835 72.2538 143.983 72.1023L140.119 71.4205C137.894 71.0322 136.227 70.2936 135.119 69.2045C134.011 68.1155 133.462 66.714 133.472 65C133.462 63.4848 133.86 62.2017 134.665 61.1506C135.479 60.09 136.639 59.285 138.145 58.7358C139.66 58.1771 141.455 57.8977 143.528 57.8977C146.682 57.8977 149.168 58.5511 150.986 59.858C152.813 61.1648 153.775 62.9735 153.869 65.2841ZM177.385 65.2841H170.169C170.131 64.839 169.975 64.4555 169.7 64.1335C169.426 63.8116 169.071 63.5653 168.635 63.3949C168.209 63.215 167.735 63.125 167.214 63.125C166.542 63.125 165.964 63.2481 165.482 63.4943C164.999 63.7405 164.762 64.0909 164.771 64.5455C164.762 64.8674 164.899 65.1657 165.183 65.4403C165.477 65.715 166.04 65.928 166.874 66.0795L171.305 66.875C173.54 67.2822 175.202 67.9687 176.291 68.9347C177.39 69.8911 177.944 71.1742 177.953 72.7841C177.944 74.3371 177.48 75.6866 176.561 76.8324C175.652 77.9687 174.407 78.8494 172.825 79.4744C171.253 80.09 169.459 80.3977 167.442 80.3977C164.108 80.3977 161.5 79.7159 159.615 78.3523C157.74 76.9886 156.694 75.1894 156.476 72.9545H164.26C164.364 73.6458 164.705 74.1809 165.283 74.5597C165.87 74.929 166.608 75.1136 167.499 75.1136C168.218 75.1136 168.81 74.9905 169.274 74.7443C169.748 74.4981 169.989 74.1477 169.999 73.6932C169.989 73.2765 169.781 72.9451 169.374 72.6989C168.976 72.4527 168.351 72.2538 167.499 72.1023L163.635 71.4205C161.41 71.0322 159.743 70.2936 158.635 69.2045C157.527 68.1155 156.978 66.714 156.987 65C156.978 63.4848 157.375 62.2017 158.18 61.1506C158.995 60.09 160.155 59.285 161.661 58.7358C163.176 58.1771 164.97 57.8977 167.044 57.8977C170.197 57.8977 172.683 58.5511 174.501 59.858C176.329 61.1648 177.29 62.9735 177.385 65.2841Z" fill="white"/>
<path d="M180.844 80V50.9091H201.81V57.2727H188.741V62.2727H200.73V68.6364H188.741V73.6364H201.753V80H180.844ZM211.92 80.3409C210.528 80.3409 209.297 80.1136 208.227 79.6591C207.166 79.1951 206.333 78.4943 205.727 77.5568C205.121 76.6193 204.817 75.4261 204.817 73.9773C204.817 72.7841 205.021 71.7661 205.428 70.9233C205.835 70.071 206.404 69.375 207.133 68.8352C207.862 68.2955 208.71 67.8835 209.675 67.5994C210.651 67.3153 211.702 67.1307 212.829 67.0455C214.05 66.9508 215.031 66.8371 215.769 66.7045C216.517 66.5625 217.057 66.3684 217.388 66.1222C217.72 65.8665 217.886 65.5303 217.886 65.1136V65.0568C217.886 64.4886 217.668 64.053 217.232 63.75C216.797 63.447 216.238 63.2955 215.556 63.2955C214.808 63.2955 214.197 63.4612 213.724 63.7926C213.26 64.1146 212.98 64.6117 212.886 65.2841H205.67C205.764 63.9583 206.186 62.7367 206.934 61.6193C207.692 60.4924 208.795 59.5928 210.244 58.9205C211.692 58.2386 213.501 57.8977 215.67 57.8977C217.232 57.8977 218.634 58.0824 219.874 58.4517C221.115 58.8116 222.171 59.3182 223.042 59.9716C223.913 60.6155 224.576 61.3731 225.031 62.2443C225.495 63.1061 225.727 64.0436 225.727 65.0568V80H218.397V76.9318H218.227C217.791 77.7462 217.261 78.4044 216.636 78.9062C216.02 79.4081 215.315 79.7727 214.519 80C213.733 80.2273 212.867 80.3409 211.92 80.3409ZM214.477 75.3977C215.073 75.3977 215.632 75.2746 216.153 75.0284C216.683 74.7822 217.114 74.4271 217.445 73.9631C217.777 73.4991 217.942 72.9356 217.942 72.2727V70.4545C217.734 70.5398 217.512 70.6203 217.275 70.696C217.048 70.7718 216.801 70.8428 216.536 70.9091C216.281 70.9754 216.006 71.0369 215.712 71.0938C215.428 71.1506 215.13 71.2027 214.817 71.25C214.211 71.3447 213.714 71.5009 213.326 71.7188C212.947 71.9271 212.663 72.1875 212.474 72.5C212.294 72.803 212.204 73.1439 212.204 73.5227C212.204 74.1288 212.417 74.5928 212.843 74.9148C213.269 75.2367 213.814 75.3977 214.477 75.3977ZM229.473 80V58.1818H237.087V62.3295H237.314C237.712 60.7955 238.341 59.6733 239.203 58.9631C240.074 58.2528 241.092 57.8977 242.257 57.8977C242.598 57.8977 242.934 57.9261 243.266 57.983C243.607 58.0303 243.933 58.1013 244.246 58.196V64.8864C243.857 64.7538 243.379 64.6544 242.811 64.5881C242.243 64.5218 241.755 64.4886 241.348 64.4886C240.581 64.4886 239.89 64.6638 239.274 65.0142C238.668 65.3551 238.19 65.8381 237.839 66.4631C237.489 67.0786 237.314 67.803 237.314 68.6364V80H229.473ZM254.658 67.7273V80H246.817V58.1818H254.26V62.3295H254.487C254.961 60.947 255.794 59.8627 256.987 59.0767C258.19 58.2907 259.591 57.8977 261.192 57.8977C262.735 57.8977 264.075 58.2528 265.212 58.9631C266.357 59.6638 267.243 60.6297 267.868 61.8608C268.502 63.0919 268.815 64.4981 268.805 66.0795V80H260.964V67.7273C260.974 66.6477 260.699 65.8002 260.141 65.1847C259.591 64.5691 258.824 64.2614 257.839 64.2614C257.196 64.2614 256.632 64.4034 256.149 64.6875C255.676 64.9621 255.311 65.3598 255.055 65.8807C254.8 66.392 254.667 67.0076 254.658 67.7273Z" fill="#F9CE00"/>
<path d="M0.301694 67.719C0.301694 67.719 -2.22985 60.8765 7.37352 46.1825C7.37352 46.1825 5.63078 46.2376 2.98 49.3011C2.98 49.3011 4.2366 37.2762 21.6364 32.58C21.6364 32.58 21.6089 28.4617 24.9109 23.9031C24.9109 23.9031 25.5071 26.7648 25.9657 28.1131C25.9657 28.1131 26.6261 25.8201 27.5892 24.5727C27.5892 24.5727 28.7174 29.3422 31.5333 32.6993C31.5333 32.6993 32.9642 32.0022 38.4492 36.8268L43.9434 41.9541C44.2094 42.2018 44.4754 42.4586 44.7138 42.7246C44.9523 42.9906 45.5026 43.5134 46.5208 44.027C48.1351 44.8525 49.4651 46.1734 50.2172 47.8152C50.9326 49.3836 51.1711 51.2823 49.5751 52.8783C49.5751 52.8783 47.8783 56.4371 44.4203 54.4651C42.8977 53.5937 41.1917 53.1076 39.4306 53.1993C37.4494 53.3002 34.3308 52.8599 29.9556 50.576C29.9556 50.576 23.8286 57.2168 35.3673 66.334C38.5776 68.8747 41.3017 71.9841 43.3655 75.5246C45.5302 79.2119 47.7682 83.9723 48.4378 88.6501C48.4378 88.6501 40.9624 76.9372 22.893 77.4325C22.893 77.4325 6.81401 77.5517 4.42922 65.3251C4.42922 65.3251 4.28246 64.6096 4.53928 62.711C4.53928 62.711 2.70483 63.7933 0.28335 67.7282L0.301694 67.719Z" fill="#F9CE00"/>
<path d="M43.4758 9.43827C42.9805 9.13558 42.476 8.90628 41.8707 8.998C41.8156 8.998 41.7514 8.998 41.6689 8.998C41.7147 8.92462 41.7423 8.86959 41.7698 8.82373C41.8798 8.62194 41.9532 8.41097 41.9532 8.17249C41.9532 7.70471 41.7514 7.3103 41.4763 6.94341C41.4487 6.90672 41.4121 6.8792 41.3754 6.85169C41.2928 6.79665 41.2103 6.83334 41.2011 6.92507C41.2011 7.02596 41.2103 7.13603 41.2286 7.23692C41.3112 7.76891 41.2745 8.29173 41.0177 8.76869C40.8801 9.03469 40.6874 9.24565 40.4031 9.38323C40.0454 9.55751 39.706 9.78681 39.3575 9.9886C39.3116 10.0161 39.2566 10.0528 39.1832 10.0987C39.2199 9.87854 39.2566 9.70426 39.2841 9.51165C39.3116 9.50247 39.3391 9.48413 39.3666 9.46578C39.8986 9.20896 40.1646 8.75035 40.3022 8.20001C40.3664 7.96153 40.2655 7.86981 40.0179 7.91567C39.8069 7.96153 39.6418 8.09912 39.4951 8.25504C39.3942 8.36511 39.3116 8.47518 39.2199 8.59442C39.119 8.42932 39.0364 8.27339 38.9264 8.14498C38.8071 8.00739 38.6604 7.88815 38.5228 7.77809C38.3669 7.64967 38.3118 7.67719 38.2476 7.86981C38.1284 8.26422 38.0183 8.65862 37.9083 9.04386C37.6881 9.11724 37.4496 9.17227 37.2295 9.27317C37.0002 9.37406 37.0094 9.50247 37.2203 9.62171C37.4955 9.78681 37.8074 9.86019 38.1284 9.85102C38.2385 9.85102 38.3118 9.86936 38.3852 9.95191C38.4678 10.0436 38.5595 10.1262 38.6329 10.2179C38.7704 10.3922 38.7613 10.4289 38.5962 10.5848C38.1376 11.0342 37.6881 11.4837 37.2387 11.9423C36.7801 12.4009 36.3214 12.8687 35.7619 13.1989C35.2299 13.5199 34.6613 13.7401 34.0192 13.7034C33.4689 13.6759 33.0561 13.4282 32.7626 12.9604C32.5516 12.6119 32.4874 12.2175 32.4874 11.8231C32.4874 11.5662 32.5516 11.3094 32.5792 11.0526C32.5975 11.0526 32.6159 11.0342 32.6342 11.0251C32.9185 11.3553 33.2579 11.5662 33.689 11.5846C34.1384 11.6029 34.5145 11.447 34.8172 11.126C35.0465 10.8875 35.1566 10.594 35.1841 10.2729C35.2208 9.80516 35.0373 9.41992 34.698 9.10807C35.4409 8.25504 35.074 7.27361 34.4686 6.89755C34.1201 6.68659 33.7532 6.61321 33.3588 6.7141C32.7993 6.86086 32.4783 7.24609 32.3132 7.77809C31.5702 7.60381 31.0199 7.77809 30.6713 8.31008C30.5246 8.53939 30.4512 8.78704 30.4604 9.05303C30.4695 9.4933 30.6713 9.85102 31.0199 10.1354C30.5888 10.8783 29.9192 11.1902 29.1396 11.2636C28.6901 11.3094 28.2315 11.2085 27.8004 11.0251C27.2134 10.7774 26.7364 10.383 26.3237 9.90605C26.1402 9.68592 25.9568 9.45661 25.8192 9.19979C25.5807 8.75952 25.6357 8.28256 25.755 7.81478C25.81 7.60381 25.9109 7.4112 26.0852 7.29196C26.3328 7.10851 26.5805 6.93424 26.8557 6.78748C27.1767 6.61321 27.5161 6.62238 27.8463 6.75079C28.0939 6.84251 28.1673 6.97093 28.1765 7.22775C28.1765 7.3103 28.1765 7.38368 28.1765 7.46623C28.1765 8.00739 28.58 8.48435 29.1212 8.57607C29.1762 8.57607 29.2313 8.58525 29.2771 8.57607C29.3597 8.55773 29.3964 8.5027 29.3597 8.42015C29.3413 8.38346 29.323 8.3376 29.2955 8.31008C29.1762 8.16332 29.1579 7.99822 29.2221 7.81478C29.2588 7.72305 29.2771 7.63133 29.3138 7.53961C29.4239 7.23692 29.5431 6.93424 29.6257 6.62238C29.7449 6.20963 29.7266 5.79688 29.5064 5.40247C29.1762 4.81544 27.9196 4.40269 27.1859 5.09061C26.6264 5.60426 26.1127 6.14542 25.7366 6.815C25.7091 6.87003 25.6633 6.91589 25.6266 6.96175C25.5991 6.89755 25.5991 6.86086 25.6082 6.815C25.7825 6.01701 26.1402 5.31075 26.6997 4.72372C27.1033 4.29262 27.2317 3.79732 27.1492 3.22864C27.085 2.81589 26.8924 2.48569 26.6172 2.19217C26.1035 1.62349 25.7366 0.972261 25.5349 0.229307C25.5165 0.174273 25.5073 0.11924 25.4798 0.0825504C25.4523 0.0458614 25.4064 0.00917227 25.3698 0C25.3422 0 25.2964 0.0458614 25.278 0.0733782C25.2413 0.174273 25.2047 0.265996 25.1771 0.366891C24.9845 1.02729 24.6543 1.60515 24.1957 2.11879C24.104 2.21969 24.0306 2.32058 23.9481 2.42148C23.4711 3.03602 23.4069 4.13669 24.0948 4.75124C24.1865 4.83379 24.2599 4.93468 24.3333 5.03558C24.7644 5.61343 25.0579 6.24632 25.1771 6.97093C25.1496 6.96175 25.1221 6.96175 25.1129 6.95258C25.0854 6.91589 25.0671 6.8792 25.0396 6.84251C24.6635 6.17294 24.159 5.6226 23.5995 5.10896C23.3885 4.91634 23.1409 4.76958 22.8566 4.74206C22.4988 4.70538 22.1595 4.75124 21.8293 4.90717C21.4348 5.09061 21.1689 5.3933 21.0863 5.83356C21.0313 6.15459 21.068 6.46645 21.1689 6.76914C21.2789 7.09017 21.3982 7.4112 21.5174 7.73223C21.5908 7.94319 21.6091 8.13581 21.4532 8.31925C21.4073 8.38346 21.3431 8.45683 21.4165 8.53021C21.4624 8.5669 21.5449 8.58525 21.6091 8.57607C21.9852 8.5027 22.4255 8.24587 22.5447 7.75057C22.5906 7.5763 22.5906 7.38368 22.5906 7.20023C22.5906 6.97093 22.6823 6.815 22.8932 6.75996C23.095 6.70493 23.306 6.6499 23.5078 6.67741C24.0673 6.74162 24.4892 7.07182 24.8561 7.4754C24.8836 7.50292 24.902 7.53043 24.9111 7.56712C25.1404 8.18167 25.223 8.79621 24.8286 9.38323C24.4067 10.0253 23.8747 10.5573 23.1868 10.9058C22.3154 11.3369 21.4257 11.4195 20.5451 10.9333C20.1966 10.7407 19.9214 10.4931 19.7563 10.1262C20.2883 9.5942 20.4259 9.03469 20.1782 8.48435C20.059 8.21836 19.8756 8.01657 19.6279 7.86981C19.2518 7.64968 18.8483 7.6405 18.4539 7.77809C18.1512 7.03513 17.7568 6.69576 17.1331 6.66824C16.5644 6.64072 16.1149 6.8792 15.8398 7.37451C15.4912 7.98905 15.6196 8.5669 16.0691 9.09889C16.0232 9.15393 15.9773 9.19062 15.9407 9.23648C15.6105 9.61254 15.5004 10.0528 15.6288 10.5389C15.9131 11.5938 17.1881 11.9331 17.9769 11.181C18.0319 11.126 18.087 11.0801 18.1603 11.0159C18.3254 11.6304 18.3438 12.1991 18.1145 12.7495C17.9035 13.2539 17.5275 13.5841 16.9863 13.6667C16.7295 13.7034 16.4543 13.6942 16.2067 13.6575C15.5371 13.5383 14.9501 13.2081 14.4456 12.7678C14.0603 12.4284 13.7026 12.0524 13.3357 11.6855C12.9505 11.3094 12.5561 10.9242 12.1709 10.5481C12.0424 10.4289 12.0333 10.3738 12.1433 10.2363C12.2259 10.1262 12.336 10.0345 12.4277 9.9244C12.4919 9.85102 12.5561 9.83268 12.657 9.83268C12.9322 9.85102 13.1981 9.78681 13.4458 9.67675C13.5559 9.62171 13.721 9.5942 13.7118 9.4291C13.7026 9.27317 13.5467 9.23648 13.4183 9.19979C13.2257 9.13558 13.033 9.08972 12.8313 9.03469C12.8221 8.55773 12.6111 8.1358 12.4552 7.64967C12.0424 7.89733 11.7398 8.18167 11.5747 8.62194C11.4738 8.49352 11.3912 8.38346 11.2995 8.27339C11.1527 8.10829 10.9785 7.96153 10.7583 7.91567C10.5015 7.86064 10.4098 7.96153 10.474 8.20918C10.6299 8.78704 10.9143 9.25482 11.4829 9.50247C11.5196 9.69509 11.5563 9.86936 11.593 10.0803C11.5288 10.0528 11.4921 10.0345 11.4646 10.0161C11.0702 9.73178 10.6574 9.48413 10.2172 9.29151C10.1805 9.27317 10.1438 9.25482 10.1071 9.21813C9.61179 8.732 9.46504 8.13581 9.52007 7.46623C9.52924 7.31947 9.5751 7.17272 9.5751 7.02596C9.5751 6.96175 9.52924 6.88838 9.50172 6.815C9.43752 6.84251 9.36414 6.8792 9.29993 6.90672C9.28159 6.90672 9.28159 6.93424 9.26325 6.94341C9.0798 7.19106 8.94222 7.46623 8.85049 7.75974C8.7496 8.12663 8.80463 8.46601 8.99725 8.79621C9.02477 8.84207 9.05228 8.8971 9.08897 8.97965C9.00642 8.97965 8.95139 8.97965 8.90553 8.97965C8.51112 8.93379 8.12588 8.97048 7.76816 9.1631C7.64893 9.22731 7.52051 9.29151 7.3921 9.35572C7.34624 9.38323 7.29121 9.40158 7.26369 9.43827C7.23617 9.47496 7.19948 9.53916 7.21783 9.57585C7.227 9.61254 7.29121 9.63089 7.33707 9.64006C7.38293 9.64006 7.43796 9.62171 7.493 9.61254C7.68561 9.58502 7.87823 9.53916 8.06168 9.54834C8.80463 9.57585 9.48338 9.78681 10.1163 10.1996C11.1619 10.8691 12.1066 11.6671 12.978 12.5477C13.5375 13.1072 14.0787 13.685 14.6107 14.2629C15.2436 14.9416 15.8398 15.6571 16.3442 16.4459C16.8487 17.2347 17.2523 18.0694 17.5366 18.9591C17.5275 19.2801 17.7659 19.3535 18.0044 19.436C18.0686 19.4544 18.142 19.4727 18.2062 19.4911C19.0225 19.6837 19.848 19.7846 20.6827 19.7938C21.8568 19.8121 23.0308 19.7938 24.214 19.7938C24.3241 19.7938 24.4434 19.8029 24.5534 19.8121C24.9295 19.8213 25.3055 19.8396 25.6816 19.8396C26.0026 19.8396 26.3328 19.8029 26.6539 19.7938C27.6628 19.7938 28.6718 19.7938 29.6807 19.7938C30.4604 19.7938 31.24 19.7296 32.0105 19.592C32.3315 19.5369 32.6342 19.436 32.946 19.3443C33.0928 19.2985 33.1845 19.2159 33.1845 19.0416C33.1845 18.9316 33.2487 18.8215 33.2854 18.7114C33.7257 17.4273 34.4136 16.2808 35.2758 15.2443C36.3214 13.9877 37.4496 12.8137 38.6512 11.713C39.3575 11.0709 40.1188 10.4839 40.9534 10.0161C41.623 9.64006 42.3385 9.4933 43.1089 9.5942C43.1915 9.60337 43.2832 9.64006 43.3657 9.64006C43.4208 9.64006 43.4942 9.62171 43.5217 9.58502C43.5767 9.51165 43.5125 9.45661 43.4483 9.41992L43.4758 9.43827ZM27.4519 12.1716C27.6995 11.9882 27.9839 11.924 28.2682 11.8873C28.846 11.8139 29.3689 11.9515 29.8183 12.3184C30.2127 12.6394 30.4145 13.0888 30.2035 13.685C30.0568 14.0794 29.8183 14.4096 29.4606 14.6481C29.1946 14.8224 28.9103 14.8407 28.6443 14.6756C28.3599 14.5105 28.2223 14.2629 28.2498 13.9327C28.2498 13.9052 28.259 13.8776 28.259 13.8501C28.259 13.7676 28.2865 13.6483 28.1765 13.63C28.1123 13.6208 28.0114 13.6759 27.9563 13.7309C27.7729 13.9143 27.6995 14.1436 27.7179 14.4005C27.7179 14.4738 27.7362 14.5472 27.7454 14.6114C27.5069 14.6298 27.2776 14.6573 27.0299 14.6756C27.2684 14.2996 27.5344 13.9327 27.6261 13.4741C27.7179 13.0155 27.6353 12.5844 27.4427 12.1624L27.4519 12.1716ZM20.9029 12.3734C21.5357 11.8047 22.508 11.7222 23.2601 12.1166C23.2785 12.1257 23.2968 12.1533 23.3335 12.1808C22.8749 13.1163 23.1684 13.9327 23.7738 14.694C23.517 14.6665 23.2876 14.6389 23.04 14.6206C23.04 14.5931 23.0492 14.5289 23.0583 14.4738C23.1042 14.1712 23.0125 13.9235 22.8015 13.7125C22.7373 13.6483 22.6639 13.575 22.5814 13.6483C22.5355 13.685 22.508 13.7951 22.5263 13.8593C22.5906 14.1712 22.4805 14.4096 22.2604 14.6114C22.031 14.8132 21.6917 14.8591 21.4257 14.7123C20.8845 14.4005 20.5635 13.9235 20.5085 13.2998C20.4718 12.9329 20.646 12.6394 20.912 12.3917L20.9029 12.3734ZM17.3165 17.7392C17.2798 17.6658 17.2431 17.5832 17.1881 17.4732C17.4999 17.3264 17.8118 17.1705 18.1145 17.0329C19.9123 16.2441 21.8109 15.7763 23.7463 15.5103C23.8472 15.492 23.9572 15.492 24.0581 15.4828C24.3149 15.4645 24.3516 15.4828 24.4892 15.7488C22.0035 16.0698 19.5821 16.6018 17.3073 17.7392H17.3165ZM32.038 19.1425C31.561 19.1609 31.0749 19.17 30.5979 19.1884C29.4331 19.2251 28.2682 19.2618 27.1033 19.2893C26.6539 19.2985 26.2136 19.2893 25.7642 19.2893C25.223 19.2893 24.6818 19.2709 24.1407 19.2709C23.4527 19.2709 22.774 19.2801 22.0861 19.2709C21.2881 19.2526 20.4901 19.2067 19.7013 19.17C19.3803 19.1609 19.0592 19.1517 18.7382 19.1425V19.0875C19.0959 18.9958 19.4536 18.9041 19.8205 18.8215C20.6369 18.6381 21.4532 18.5188 22.2879 18.4546C22.7373 18.4179 23.1776 18.3996 23.627 18.3996C24.8102 18.3996 25.9935 18.3812 27.1859 18.3996C28.7635 18.4271 30.3136 18.6105 31.8362 19.0233C31.9096 19.0416 31.983 19.0692 32.0563 19.0875C32.0563 19.1058 32.0563 19.1242 32.0472 19.1425H32.038ZM33.478 17.7575C33.2487 17.6383 33.0378 17.519 32.8176 17.4181C31.6436 16.8862 30.3962 16.5376 29.1487 16.2441C28.2774 16.0423 27.3968 15.868 26.5071 15.7947C26.4429 15.7947 26.3787 15.7671 26.3053 15.7488C26.4337 15.4828 26.4704 15.4645 26.7548 15.4828C27.5436 15.547 28.3141 15.6938 29.0845 15.868C30.5613 16.1982 31.9921 16.6568 33.3496 17.3356C33.4138 17.3631 33.478 17.3998 33.5331 17.4365C33.5514 17.4365 33.5606 17.464 33.5881 17.4915C33.5606 17.5741 33.5239 17.6566 33.478 17.7575Z" fill="#F9CE00"/>
</svg>
