<svg width="86" height="105" viewBox="0 0 86 105" fill="none" xmlns="http://www.w3.org/2000/svg">
<path d="M20.8982 44.0108C21.8411 45.1008 21.7283 46.748 20.6433 47.6865C19.5583 48.6251 18.1313 48.4609 16.707 47.6457C15.6994 47.0691 14.7802 47.0099 13.8397 47.1857C12.8992 47.3615 11.2335 47.3966 10.3166 46.3367C9.94783 45.9104 9.06472 44.8895 9.06472 44.8895L7.8278 45.9596C3.97447 35.6187 16.6395 29.0883 16.6395 29.0883L17.9908 30.6503L19.0094 29.7691L18.6067 29.3036C18.3273 28.9807 18.3215 28.4472 18.643 28.1692L18.7157 28.1062C18.9551 27.8992 19.3059 27.8899 19.5749 28.0199C20.1154 26.4316 21.6516 26.0421 22.072 25.957L21.7387 25.5717C21.4594 25.2487 21.4536 24.7153 21.7751 24.4372L23.0847 23.3043C23.4062 23.0262 23.9197 23.0931 24.1727 23.3855L25.3368 22.3784L33.6836 32.0272L32.5144 33.0386C32.7315 33.362 32.6767 33.7928 32.38 34.0495L31.0703 35.1824C30.7488 35.4605 30.3016 35.4703 30.0222 35.1473L29.7522 34.8352C29.6075 35.2391 28.9611 36.6572 27.3114 36.9633C27.4014 37.2481 27.3017 37.5478 27.0624 37.7548L26.9896 37.8178C26.6681 38.0958 26.2209 38.1056 25.9416 37.7827L25.459 37.2249L24.4404 38.106L25.9663 39.87C20.9939 42.0627 15.7328 40.2454 15.7328 40.2454L18.2736 43.1826C19.2012 42.9477 20.2278 43.2359 20.8982 44.0108Z" stroke="#1B1B1B" stroke-width="0.5"/>
<path d="M62.4107 89.6949C63.2391 93.661 66.0979 96.7396 69.8092 97.6898L69.9992 96.8566M69.9992 96.8566L69.9992 96.8566L69.9992 96.8566ZM69.816 85.3674C70.093 85.5439 70.2529 85.9011 70.1682 86.2815C70.0834 86.6618 69.7869 86.9173 69.4613 86.9595L69.816 85.3674ZM69.3376 85.2155L68.9636 86.8939L61.4823 85.2269L61.8563 83.5485L69.3376 85.2155ZM61.3586 83.4829L61.0039 85.075C60.7269 84.8985 60.567 84.5413 60.6517 84.161C60.7365 83.7806 61.0329 83.5251 61.3586 83.4829Z" stroke="#F9CE00" stroke-width="0.5"/>
<path d="M43.0561 65.9671C43.434 66.3471 43.5145 66.9256 44.227 67.6422C44.9396 68.3587 45.3826 68.3067 45.9116 68.8386C46.7106 69.6421 46.6642 70.5304 45.8876 71.3027C44.5606 72.6223 42.6345 72.4647 41.0097 70.8308C40.2108 70.0274 39.9546 69.5587 39.665 68.9507L37.2271 70.2089C34.8702 71.3975 32.7914 71.6293 31.4851 70.3157L30.8481 69.6751C30.6376 69.4634 30.369 69.4497 30.0825 69.7347C29.6151 70.1995 29.95 70.7625 30.4413 71.2565C32.0175 72.8416 34.4027 72.8124 37.5582 71.0997L39.1844 70.2167C39.4459 70.6908 39.7872 71.1396 40.1866 71.5413C40.5051 71.8616 40.8268 72.1247 41.1948 72.3741C41.1794 73.0373 41.2029 73.7696 41.4163 74.6478C42.5939 74.6859 43.6489 75.0079 44.3722 75.7353C45.8621 77.2336 46.079 78.3565 44.1112 80.3134C41.7361 82.6752 38.726 83.207 37.098 81.5548L32.9542 82.7712C30.6613 83.4211 28.9863 83.1542 28.0308 82.1934C27.2428 81.4008 26.7047 79.5931 27.5944 78.7083C28.1976 78.1085 29.9165 78.1481 31.1719 78.2494L36.9351 78.7369C37.0164 78.1702 36.9685 77.7752 36.704 77.5092C36.283 77.0858 35.4967 77.0039 34.3158 76.8719C31.3057 76.5291 28.7673 76.4948 27.0399 74.7577C25.2424 72.95 25.3167 70.1446 27.3928 66.6226C26.8152 66.0418 26.9058 65.0772 27.6823 64.3049C28.5569 63.4352 29.604 63.3873 30.2841 64.0713C32.6104 63.3343 34.5187 64.0168 36.0464 65.5531C36.1274 65.6345 36.2008 65.7234 36.2817 65.8048L41.0013 65.4841C42.2272 65.3446 42.6459 65.5545 43.0561 65.9671ZM41.4659 78.3772C41.223 78.1329 40.7422 78.2224 40.4104 78.5523C40.0712 78.8897 39.9693 79.3905 40.2122 79.6347C40.4605 79.8844 40.9209 79.8045 41.2601 79.4671C41.5994 79.1297 41.7088 78.6214 41.4659 78.3772ZM39.749 61.45C40.7908 62.4977 41.1434 63.4102 41.164 64.4262L37.5508 64.6833C37.4827 64.5998 37.4061 64.4925 37.2927 64.3785C37.0228 64.107 36.5102 63.8178 36.0352 63.3401C35.4306 62.7321 35.5105 61.9077 36.1891 61.2329C37.1994 60.2282 38.6046 60.2992 39.749 61.45Z" stroke="#1B1B1B" stroke-width="0.5"/>
<path d="M48.012 80.2827L48.5435 80.4614L48.3213 79.9466L48.2213 79.7152C48.1026 79.4403 48.0761 79.186 48.1105 78.9953C48.1451 78.8044 48.2337 78.6995 48.3307 78.6575C48.3307 78.6575 48.3308 78.6575 48.3308 78.6575L49.1256 78.3143C49.2179 78.2745 49.3228 78.2732 49.4428 78.3324C49.5686 78.3945 49.7168 78.5274 49.8615 78.7656L49.9745 78.9516L50.1743 78.8653L51.4695 78.3061L57.3594 91.9477L56.0642 92.5069L55.8733 92.5893L55.9195 92.792C55.9641 92.9875 55.9649 93.1976 55.9239 93.3657C55.8813 93.54 55.8078 93.6213 55.7461 93.648L54.9511 93.9912C54.8723 94.0253 54.7321 94.0164 54.5448 93.8803C54.3643 93.7492 54.1848 93.5273 54.0658 93.2517L53.9617 93.0104L53.7394 92.4957L53.505 93.005C53.4218 93.186 53.2316 93.525 52.915 93.7433C52.6179 93.9482 52.182 94.067 51.538 93.7732L51.4342 94.0006L51.538 93.7732C50.8027 93.4377 49.5805 93.0563 48.2667 92.8885C46.9577 92.7213 45.5191 92.7612 44.3759 93.3068L44.1586 93.4105L44.254 93.6315L44.3181 93.78C44.4371 94.0556 44.4755 94.3385 44.4472 94.5597C44.4179 94.7894 44.3281 94.8974 44.2493 94.9315L44.1609 94.9696C44.0733 95.0075 43.9347 94.9993 43.7596 94.8786C43.588 94.7603 43.4147 94.5523 43.2959 94.2771L43.0664 94.3762L42.8369 94.4753C42.9557 94.7505 42.9883 95.0192 42.9567 95.2253C42.9245 95.4354 42.8354 95.5419 42.7477 95.5798L42.6594 95.6179C42.5805 95.652 42.4403 95.6431 42.253 95.507C42.0726 95.3759 41.8931 95.154 41.7741 94.8784L41.4971 94.2368L41.4074 94.029L41.1917 94.0977C39.653 94.5879 38.5431 95.4679 37.7697 96.4065L37.7697 96.4065C37.5126 96.7187 37.341 97.0294 37.2274 97.3188L37.1898 97.4147L37.2306 97.5092L37.4132 97.9322C37.5322 98.2079 37.5706 98.4907 37.5423 98.7119C37.513 98.9416 37.4232 99.0497 37.3444 99.0837L37.2561 99.1218C37.1772 99.1559 37.037 99.1471 36.8497 99.0109C36.6693 98.8798 36.4897 98.6579 36.3707 98.3823L36.3233 98.2725L36.2466 98.0947L36.0552 98.1246C35.5003 98.2112 34.8669 98.0408 34.2377 97.6431C33.6105 97.2468 33.0052 96.6349 32.5176 95.8751L32.403 95.6965L32.2081 95.7806L31.0957 96.261L30.8662 96.36L30.9652 96.5896L31.5967 98.0521L30.7309 98.426L30.0994 96.9634L30.0003 96.7339L29.7708 96.833L28.9404 97.1915L28.2254 95.5354L29.0558 95.1769L29.2853 95.0778L29.1862 94.8483L28.5547 93.3857L29.4206 93.0119L30.052 94.4745L30.1511 94.704L30.3807 94.6049L31.4726 94.1334L31.6729 94.047L31.6144 93.8369C31.3525 92.8963 31.3016 91.9928 31.4363 91.2356C31.5712 90.4764 31.8884 89.8828 32.345 89.5288L32.4955 89.4121L32.423 89.2361C32.3116 88.9654 32.2832 88.7036 32.3161 88.5035C32.3496 88.2999 32.4369 88.1967 32.523 88.1595L32.6113 88.1214C32.7083 88.0795 32.8454 88.0868 33.0081 88.1926C33.1705 88.2983 33.3374 88.492 33.4561 88.767L33.5778 89.049L33.6186 89.1435L33.7142 89.1819C34.0026 89.2977 34.3466 89.3859 34.7501 89.4128L34.7502 89.4128C35.9637 89.4935 37.3653 89.2892 38.7772 88.5055L38.9751 88.3956L38.8854 88.1878L38.6692 87.6872C38.5505 87.4123 38.524 87.158 38.5584 86.9673C38.593 86.7763 38.6816 86.6715 38.7787 86.6297L38.867 86.5915C38.9546 86.5537 39.0933 86.5619 39.2683 86.6825C39.4399 86.8009 39.6132 87.0088 39.732 87.2841L39.9615 87.185L40.1911 87.0859C40.0722 86.8106 40.0397 86.5419 40.0712 86.3358C40.1034 86.1257 40.1925 86.0192 40.2802 85.9814L40.3685 85.9432C40.4606 85.9035 40.5982 85.9112 40.7667 86.024C40.9336 86.1356 41.1035 86.3359 41.2224 86.6102L41.318 86.8308L41.5422 86.7439C42.7239 86.2857 43.737 85.2593 44.5103 84.1862C45.2866 83.109 45.8443 81.9523 46.1041 81.1877L46.1041 81.1877C46.3319 80.5173 46.7172 80.2815 47.0701 80.2058C47.4461 80.125 47.8233 80.2192 48.012 80.2827Z" stroke="#1B1B1B" stroke-width="0.5"/>
<path d="M13.4223 4.59315L13.9348 4.3663L13.4236 4.13651L13.0231 3.95652C12.5692 3.75248 12.4571 3.38838 12.553 3.17491C12.553 3.17489 12.553 3.17487 12.553 3.17485L12.9082 2.38455C12.993 2.19585 13.3092 2.04628 13.7439 2.19593L13.9597 2.27025L14.0533 2.06204L14.6245 0.791105L28.1943 6.89033L27.623 8.16127L27.5294 8.36948L27.7283 8.48156C28.1287 8.70725 28.2268 9.04304 28.142 9.23174L27.7868 10.0221C27.7434 10.1186 27.6339 10.2061 27.4466 10.2417C27.2615 10.2767 27.0304 10.2525 26.811 10.1539L26.4007 9.96949L25.8895 9.7397L26.0601 10.2736C26.1207 10.4634 26.2091 10.8422 26.1226 11.2173C26.0414 11.5694 25.7997 11.9516 25.1261 12.1698C24.3569 12.4189 23.1975 12.963 22.1145 13.7267C21.0354 14.4876 20.0004 15.4887 19.5246 16.6637L19.4342 16.8868L19.6538 16.9855L20.082 17.178C20.3014 17.2766 20.4729 17.4333 20.5695 17.595C20.6673 17.7587 20.6745 17.8987 20.6312 17.9952L20.5917 18.083C20.5446 18.1876 20.4368 18.2754 20.2648 18.3128C20.093 18.3501 19.8743 18.3309 19.6555 18.2326L19.553 18.4606L19.4505 18.6887C19.6693 18.787 19.8288 18.9378 19.915 19.0911C20.0012 19.2445 20.0072 19.3835 19.9601 19.4881L19.9207 19.5759C19.8773 19.6724 19.7678 19.7599 19.5805 19.7954C19.3954 19.8305 19.1643 19.8063 18.9449 19.7077L18.3951 19.4606L18.1945 19.3704L18.0795 19.5579C16.9542 21.3924 16.4662 23.4855 16.5942 24.8313C16.6438 25.3521 16.7885 25.7959 16.957 26.1572L16.9963 26.2414L17.081 26.2795L17.3629 26.4062C17.5823 26.5048 17.7538 26.6616 17.8504 26.8233C17.9482 26.987 17.9554 27.1269 17.912 27.2234L17.8726 27.3112C17.8292 27.4078 17.7198 27.4953 17.5324 27.5308C17.3473 27.5659 17.1163 27.5417 16.8968 27.4431L15.6131 26.8661L15.4305 26.784L15.3105 26.9443C14.7336 27.7148 13.6167 28.114 12.3359 27.9837L11.9509 27.9446L12.0735 28.3116C12.1649 28.5855 12.16 28.8507 12.0562 29.0816C11.9194 29.3859 11.6208 29.6051 11.213 29.6937C10.8053 29.7823 10.3055 29.734 9.81638 29.5142C9.32723 29.2943 8.9595 28.9526 8.75511 28.589C8.55069 28.2252 8.51648 27.8563 8.65329 27.5519C8.75739 27.3203 8.95359 27.1402 9.22057 27.0268L9.57693 26.8755L9.29238 26.613C8.34869 25.7423 7.90816 24.6446 8.10095 23.7036L8.14113 23.5075L7.95853 23.4254L6.79367 22.9018C6.33965 22.6978 6.22772 22.3337 6.32367 22.1202L6.36314 22.0324C6.45908 21.8189 6.80569 21.6609 7.25972 21.865L7.42268 21.9382L7.50746 21.9763L7.59655 21.9498C7.9786 21.836 8.40658 21.6496 8.82894 21.3409C9.9204 20.5432 11.1618 18.7888 11.7867 16.7294L11.8506 16.5189L11.65 16.4287L11.1001 16.1816C10.6461 15.9775 10.5342 15.6134 10.6301 15.4L10.6696 15.3121C10.7166 15.2075 10.8245 15.1197 10.9965 15.0824C11.1683 15.045 11.387 15.0642 11.6058 15.1625L11.7083 14.9345L11.8108 14.7065C11.592 14.6081 11.4325 14.4573 11.3463 14.304C11.2601 14.1506 11.2541 14.0117 11.3012 13.907L11.3406 13.8192C11.4366 13.6058 11.7832 13.4478 12.2372 13.6518L12.6555 13.8398L12.8751 13.9385L12.982 13.7228C13.5448 12.587 13.6063 11.1483 13.459 9.83616C13.3112 8.51927 12.9484 7.29093 12.6242 6.55046L12.6242 6.55043C12.3401 5.90174 12.4655 5.46723 12.675 5.17276C12.8981 4.8591 13.2401 4.67378 13.4223 4.59315Z" stroke="#1B1B1B" stroke-width="0.5"/>
<path d="M13.5726 52.42L14.0956 52.2208L13.5982 51.9642L13.2033 51.7605C12.7615 51.5325 12.669 51.1623 12.777 50.953L13.1752 50.1812C13.2707 49.9961 13.5952 49.8637 14.0207 50.0363L14.2322 50.1221L14.3368 49.9193L14.9775 48.6775L28.1987 55.4992L27.558 56.7409L27.4534 56.9437L27.6458 57.0664C28.033 57.3131 28.1132 57.6543 28.0177 57.8394L27.6195 58.6112C27.5706 58.706 27.4562 58.7877 27.2671 58.8133C27.0803 58.8386 26.8509 58.8021 26.6372 58.6919L26.2422 58.4881L25.7449 58.2314L25.8856 58.7731C25.9358 58.9662 26.0034 59.3499 25.8963 59.7209C25.7958 60.0693 25.533 60.4391 24.8479 60.6216C24.0661 60.83 22.8778 61.3128 21.7538 62.0191C20.6339 62.723 19.5448 63.6693 19.005 64.8192L18.9027 65.0372L19.1167 65.1476L19.5303 65.361C19.7439 65.4713 19.9066 65.6371 19.9943 65.804C20.0829 65.9729 20.0826 66.1135 20.0338 66.2082L19.9895 66.294C19.9407 66.3887 19.8262 66.4705 19.6372 66.496C19.4504 66.5213 19.221 66.4849 19.0073 66.3746L18.4668 66.0958L18.2446 65.9811L18.13 66.2033L17.9719 66.5098L17.9015 66.6463L17.9913 66.7708C19.0646 68.2578 19.3176 69.9205 18.6268 71.2594C18.4479 71.6061 18.0627 71.9866 17.5097 72.3825C16.9625 72.7743 16.2761 73.1638 15.5269 73.5361C14.029 74.2806 12.3042 74.9447 10.9961 75.4126L10.7345 75.5061L10.8551 75.7564C11.0338 76.1275 11.0463 76.4936 10.8945 76.7878C10.741 77.0854 10.4303 77.289 10.0181 77.356C9.6059 77.423 9.10944 77.3482 8.63297 77.1024C8.1565 76.8566 7.80796 76.4953 7.62376 76.1206C7.43954 75.7459 7.42549 75.3748 7.57909 75.0772L7.57911 75.0772C7.73095 74.7829 8.03661 74.581 8.44257 74.5117L8.71647 74.4649L8.6411 74.1975C8.46318 73.5661 8.26814 72.8333 8.08461 72.0613L11.2894 71.5407L11.2895 71.5407C11.6042 71.4895 11.8596 71.3197 11.9922 71.0632C12.1248 70.8068 12.1157 70.5005 11.9752 70.2144C11.9751 70.2141 11.975 70.2139 11.9749 70.2136L11.9102 70.08L11.9095 70.0785C11.7703 69.7958 11.5245 69.5714 11.249 69.4293C10.9735 69.2871 10.6481 69.2169 10.3371 69.2674L10.3368 69.2674L7.61013 69.7135C7.47017 68.8748 7.37894 68.0686 7.36785 67.3675C7.35554 66.5901 7.44292 65.9775 7.64204 65.5916C8.31529 64.2868 9.72806 63.5223 11.5604 63.5295L11.7134 63.53L11.7836 63.3941L11.9732 63.0266L12.0878 62.8044L11.8657 62.6898L11.3639 62.4309C10.922 62.2029 10.8295 61.8327 10.9375 61.6234L10.9817 61.5377C11.0897 61.3284 11.445 61.1893 11.8868 61.4173L12.3003 61.6306L12.5143 61.741L12.6326 61.5313C13.2569 60.425 13.397 58.989 13.3216 57.6684C13.2459 56.3431 12.9507 55.0949 12.6675 54.3369L12.6675 54.3369C12.4192 53.6728 12.5683 53.2444 12.794 52.9605C13.0342 52.6583 13.3862 52.491 13.5726 52.42Z" stroke="#1B1B1B" stroke-width="0.5"/>
<path d="M49.9597 61.495L50.0357 61.4193L50.0332 61.3121L50.0032 60.0354C49.9916 59.5167 50.0837 59.0009 50.2743 58.5184C50.4649 58.0358 50.75 57.5962 51.1128 57.2254C51.4757 56.8546 51.909 56.56 52.3873 56.359C52.8656 56.158 53.3792 56.0547 53.898 56.055C53.898 56.055 53.8981 56.055 53.8981 56.055L55.1743 56.0563L55.2813 56.0565L55.3552 55.9792L56.2374 55.0572L56.2375 55.0571C56.596 54.6819 57.026 54.3821 57.5021 54.1755C57.9782 53.9688 58.4908 53.8595 59.0098 53.8538C59.5288 53.8482 60.0436 53.9464 60.5241 54.1426C61.0045 54.3389 61.4409 54.6292 61.8075 54.9965L62.7082 55.9L62.7839 55.9759L62.891 55.9735L64.1669 55.9444C64.6856 55.9327 65.2013 56.0249 65.6839 56.2154C66.1664 56.406 66.606 56.691 66.9768 57.0539C67.3476 57.4167 67.6421 57.85 67.8431 58.3283C68.044 58.8066 68.1473 59.3203 68.1469 59.8391L68.1469 59.8392L68.1465 61.1145L68.1465 61.2213L68.2237 61.2952L69.1456 62.1773L69.1457 62.1774C69.5209 62.536 69.8206 62.9659 70.0272 63.442C70.2339 63.9181 70.3432 64.4307 70.3488 64.9497C70.3544 65.4686 70.2562 65.9835 70.0599 66.464C69.8637 66.9445 69.5733 67.3808 69.2059 67.7475L68.3024 68.6483L68.2265 68.7239L68.229 68.831L68.258 70.107C68.2696 70.6256 68.1774 71.1414 67.9868 71.624C67.7962 72.1065 67.5111 72.5461 67.1483 72.917C66.7854 73.2878 66.3521 73.5824 65.8738 73.7833C65.3955 73.9843 64.8818 74.0877 64.363 74.0873L64.3629 74.0873L63.0876 74.087L62.9808 74.087L62.9069 74.1642L62.0248 75.0861L62.0247 75.0863C61.6661 75.4615 61.2361 75.7612 60.76 75.9679C60.2839 76.1745 59.7713 76.2839 59.2523 76.2895C58.7334 76.2951 58.2185 76.197 57.7381 76.0007C57.2577 75.8045 56.8213 75.5142 56.4547 75.1469C56.4547 75.1469 56.4547 75.1469 56.4546 75.1468L55.5539 74.2433L55.4782 74.1675L55.3711 74.1699L54.0952 74.199C54.0952 74.199 54.0952 74.199 54.0951 74.199C53.5765 74.2106 53.0608 74.1184 52.5783 73.9279C52.0957 73.7374 51.6561 73.4523 51.2853 73.0895C50.9145 72.7266 50.62 72.2933 50.4191 71.815C50.2181 71.3367 50.1148 70.8231 50.1152 70.3043L50.1152 70.3042L50.1156 69.0289L50.1156 68.922L50.0384 68.8481L49.1165 67.9661L49.1164 67.9659C48.7412 67.6074 48.4415 67.1774 48.2349 66.7013C48.0283 66.2252 47.919 65.7126 47.9134 65.1937C47.9077 64.6747 48.006 64.1598 48.2022 63.6794C48.3985 63.1989 48.6888 62.7626 49.0561 62.396C49.0561 62.3959 49.0562 62.3959 49.0562 62.3959L49.9597 61.495ZM60.4454 62.3462L59.1163 63.7045L57.7581 62.3754C57.5748 62.1961 57.3278 62.0969 57.0714 62.0997C56.815 62.1025 56.5702 62.207 56.3909 62.3903C56.2116 62.5735 56.1124 62.8205 56.1152 63.0769C56.1179 63.3333 56.2224 63.5781 56.4057 63.7575L57.7639 65.0865L56.4347 66.4448C56.2554 66.6281 56.1562 66.8751 56.159 67.1315C56.1618 67.3879 56.2663 67.6327 56.4495 67.812C56.6328 67.9913 56.8798 68.0905 57.1362 68.0877C57.3926 68.085 57.6374 67.9804 57.8167 67.7972L59.1459 66.4388L60.5041 67.7679C60.6873 67.9473 60.9343 68.0464 61.1907 68.0437C61.4471 68.0409 61.6919 67.9363 61.8712 67.7531C62.0506 67.5698 62.1497 67.3228 62.147 67.0664C62.1442 66.81 62.0397 66.5652 61.8564 66.3859L60.4982 65.0568L61.8274 63.6985C62.0067 63.5152 62.1059 63.2682 62.1031 63.0119C62.1004 62.7555 61.9959 62.5107 61.8126 62.3313C61.6293 62.152 61.3823 62.0528 61.1259 62.0556C60.8696 62.0584 60.6248 62.1629 60.4454 62.3462Z" stroke="#F9CE00" stroke-width="0.5"/>
<path d="M22.4827 80.6822L22.4287 80.5895L21.7861 79.4872C21.5245 79.039 21.1759 78.6476 20.7608 78.336C20.3458 78.0244 19.8726 77.799 19.3691 77.673C18.8656 77.5469 18.3421 77.5228 17.8292 77.6021C17.3163 77.6814 16.8244 77.8624 16.3825 78.1346L16.3824 78.1346L15.2956 78.803L15.2046 78.859L15.1012 78.8319L13.8676 78.5085L13.8675 78.5085C13.3657 78.3767 12.8426 78.3465 12.329 78.4197C11.8154 78.493 11.3217 78.6682 10.8767 78.9349C10.4318 79.2017 10.0447 79.5548 9.73814 79.9733C9.43161 80.3918 9.21182 80.8674 9.09169 81.3721C9.09168 81.3721 9.09167 81.3722 9.09166 81.3722L8.7966 82.6139L8.77183 82.7181L8.67928 82.772L7.57707 83.4146C7.12885 83.6762 6.73747 84.0248 6.42594 84.4398C6.1144 84.8549 5.88901 85.3281 5.76301 85.8316C5.63701 86.3351 5.61295 86.8586 5.69225 87.3716C5.77155 87.8845 5.95259 88.3764 6.22475 88.8183L6.22483 88.8185L6.89328 89.9054L6.94925 89.9964L6.92216 90.0997L6.5988 91.3334L6.59877 91.3335C6.46702 91.8353 6.43689 92.3583 6.51016 92.872C6.58342 93.3856 6.75861 93.8794 7.02542 94.3244C7.29223 94.7693 7.64529 95.1565 8.06383 95.4631C8.48236 95.7696 8.95792 95.9895 9.46259 96.1096C9.46262 96.1096 9.46265 96.1097 9.46268 96.1097L10.7043 96.4048L10.8085 96.4296L10.8625 96.5221L11.505 97.6244C11.5051 97.6244 11.5051 97.6245 11.5051 97.6245C11.7667 98.0727 12.1153 98.4641 12.5304 98.7757C12.9454 99.0872 13.4186 99.3127 13.9221 99.4387C14.4255 99.5647 14.9491 99.5888 15.462 99.5095C15.9749 99.4303 16.4668 99.2492 16.9087 98.9771L16.9088 98.977L17.9956 98.3086L18.0866 98.2526L18.19 98.2797L19.4236 98.6032L19.4237 98.6032C19.9255 98.735 20.4486 98.7651 20.9622 98.6919C21.4758 98.6187 21.9695 98.4435 22.4145 98.1767C22.8594 97.9099 23.2465 97.5569 23.553 97.1383C23.8596 96.7198 24.0794 96.2442 24.1995 95.7396C24.1995 95.7395 24.1995 95.7395 24.1995 95.7395L22.4827 80.6822ZM22.4827 80.6822L22.5871 80.7069L23.8297 81.0013L22.4827 80.6822ZM26.7823 84.2389C26.8555 84.7525 26.8254 85.2756 26.6937 85.7774L23.83 81.0013C24.3346 81.1215 24.8101 81.3413 25.2286 81.6478C25.6471 81.9544 26.0002 82.3416 26.267 82.7865C26.5338 83.2315 26.709 83.7253 26.7823 84.2389ZM18.9492 90.5177L17.9719 88.8878L19.6017 87.9106C19.8216 87.7787 19.9801 87.5649 20.0423 87.3162C20.1046 87.0674 20.0655 86.8041 19.9336 86.5842C19.8018 86.3643 19.5879 86.2058 19.3392 86.1435C19.0905 86.0813 18.8272 86.1204 18.6073 86.2522L16.9775 87.2295L16.0002 85.5996C15.8684 85.3797 15.6546 85.2212 15.4058 85.1589C15.1571 85.0966 14.8938 85.1357 14.6739 85.2676C14.454 85.3994 14.2955 85.6133 14.2332 85.862C14.171 86.1107 14.2101 86.374 14.342 86.5939L15.3193 88.2238L13.6895 89.2011C13.4696 89.3329 13.3111 89.5468 13.2488 89.7955C13.1866 90.0442 13.2257 90.3075 13.3576 90.5274C13.4894 90.7473 13.7032 90.9059 13.952 90.9681C14.2007 91.0304 14.464 90.9913 14.6839 90.8594L16.3137 89.8822L17.291 91.5121C17.4228 91.732 17.6366 91.8905 17.8854 91.9528C18.1341 92.015 18.3974 91.9759 18.6173 91.8441C18.8372 91.7122 18.9957 91.4984 19.058 91.2497C19.1202 91.0009 19.0811 90.7376 18.9492 90.5177Z" stroke="#F9CE00" stroke-width="0.5"/>
</svg>
