<svg width="86" height="105" viewBox="0 0 86 105" fill="none" xmlns="http://www.w3.org/2000/svg">
<path d="M65.3037 60.3641C64.3608 59.2741 64.4736 57.6269 65.5586 56.6883C66.6436 55.7497 68.0706 55.914 69.4949 56.7291C70.5025 57.3058 71.4217 57.365 72.3622 57.1892C73.3028 57.0134 74.9684 56.9783 75.8853 58.0382C76.2541 58.4645 77.1372 59.4853 77.1372 59.4853L78.3741 58.4153C82.2274 68.7562 69.5624 75.2865 69.5624 75.2865L68.2111 73.7245L67.1925 74.6057L67.5952 75.0713C67.8746 75.3942 67.8804 75.9276 67.5589 76.2057L67.4862 76.2687C67.2469 76.4757 66.896 76.485 66.627 76.355C66.0865 77.9433 64.5503 78.3328 64.1299 78.4179L64.4632 78.8032C64.7425 79.1262 64.7483 79.6596 64.4268 79.9377L63.1172 81.0706C62.7957 81.3487 62.2822 81.2818 62.0292 80.9894L60.8651 81.9964L52.5183 72.3477L53.6875 71.3363C53.4705 71.0128 53.5252 70.5821 53.8219 70.3254L55.1316 69.1924C55.4531 68.9144 55.9003 68.9046 56.1797 69.2276L56.4497 69.5397C56.5944 69.1358 57.2408 67.7177 58.8905 67.4116C58.8005 67.1268 58.9002 66.8271 59.1396 66.62L59.2123 66.5571C59.5338 66.279 59.981 66.2693 60.2604 66.5922L60.7429 67.15L61.7615 66.2688L60.2356 64.5049C65.208 62.3122 70.4692 64.1295 70.4692 64.1295L67.9283 61.1923C67.0007 61.4272 65.9741 61.139 65.3037 60.3641Z" stroke="white" stroke-width="0.5"/>
<path d="M22.2251 15.0502C21.5153 11.7579 19.1343 9.18276 16.0236 8.36582L16.2027 7.51833L16.2027 7.51827L16.3927 6.6851C20.104 7.63528 22.9628 10.7139 23.7912 14.68L22.2251 15.0502ZM22.3519 15.534L23.848 15.1803C23.8086 15.5492 23.5483 15.8649 23.2017 15.9469C22.8573 16.0283 22.5116 15.8577 22.3519 15.534ZM11.6969 27.7399L11.8945 26.8964C15.0579 27.4775 18.3069 26.1568 20.3474 23.4774L11.6969 27.7399ZM16.0338 18.0934C16.1185 17.7131 16.415 17.4576 16.7406 17.4154L16.3859 19.0074C16.1089 18.831 15.949 18.4738 16.0338 18.0934ZM16.8643 19.1594L17.2383 17.4809L24.7196 19.148L24.3457 20.8264L16.8643 19.1594ZM25.198 19.2999C25.475 19.4764 25.6349 19.8336 25.5502 20.2139C25.4654 20.5943 25.169 20.8498 24.8433 20.892L25.198 19.2999Z" stroke="#F9CE00" stroke-width="0.5"/>
<path d="M43.1458 38.4078C42.7679 38.0278 42.6874 37.4493 41.9749 36.7327C41.2623 36.0161 40.8193 36.0682 40.2903 35.5363C39.4913 34.7328 39.5377 33.8445 40.3143 33.0722C41.6413 31.7526 43.5674 31.9101 45.1922 33.5441C45.9911 34.3475 46.2473 34.8162 46.5369 35.4242L48.9748 34.166C51.3317 32.9774 53.4105 32.7455 54.7168 34.0592L55.3538 34.6998C55.5643 34.9115 55.8329 34.9251 56.1194 34.6402C56.5868 34.1754 56.2519 33.6124 55.7606 33.1184C54.1844 31.5333 51.7992 31.5624 48.6437 33.2752L47.0175 34.1582C46.756 33.684 46.4147 33.2353 46.0153 32.8336C45.6968 32.5133 45.3751 32.2502 45.0071 32.0007C45.0225 31.3376 44.999 30.6052 44.7856 29.7271C43.608 29.6889 42.553 29.3669 41.8297 28.6396C40.3398 27.1413 40.1229 26.0184 42.0907 24.0615C44.4658 21.6996 47.4759 21.1679 49.1039 22.8201L53.2477 21.6036C55.5406 20.9537 57.2156 21.2207 58.1711 22.1815C58.9592 22.974 59.4972 24.7818 58.6075 25.6665C58.0043 26.2664 56.2854 26.2267 55.03 26.1255L49.2668 25.6379C49.1855 26.2046 49.2334 26.5996 49.4979 26.8657C49.9189 27.289 50.7052 27.371 51.8861 27.5029C54.8962 27.8457 57.4346 27.8801 59.162 29.6172C60.9595 31.4249 60.8852 34.2303 58.8091 37.7523C59.3867 38.3331 59.2962 39.2977 58.5196 40.0699C57.645 40.9397 56.598 40.9876 55.9178 40.3036C53.5915 41.0406 51.6832 40.358 50.1555 38.8218C50.0745 38.7404 50.0011 38.6515 49.9202 38.57L45.2006 38.8908C43.9747 39.0302 43.556 38.8204 43.1458 38.4078ZM44.736 25.9977C44.9789 26.242 45.4597 26.1525 45.7915 25.8226C46.1307 25.4852 46.2326 24.9844 45.9897 24.7402C45.7414 24.4905 45.281 24.5704 44.9418 24.9078C44.6025 25.2452 44.4931 25.7535 44.736 25.9977ZM46.4529 42.9248C45.4111 41.8772 45.0585 40.9647 45.0379 39.9487L48.6512 39.6916C48.7192 39.7751 48.7958 39.8824 48.9092 39.9964C49.1791 40.2678 49.6917 40.557 50.1667 41.0347C50.7713 41.6427 50.6914 42.4672 50.0128 43.1419C49.0025 44.1466 47.5973 44.0756 46.4529 42.9248Z" stroke="white" stroke-width="0.5"/>
<path d="M38.1899 24.0922L37.6584 23.9135L37.8807 24.4282L37.9806 24.6596C38.0993 24.9346 38.1259 25.1889 38.0914 25.3796C38.0568 25.5705 37.9682 25.6754 37.8712 25.7173C37.8712 25.7173 37.8712 25.7174 37.8711 25.7174L37.0763 26.0605C36.984 26.1004 36.8791 26.1017 36.7591 26.0425C36.6333 25.9804 36.4851 25.8475 36.3404 25.6093L36.2274 25.4233L36.0276 25.5096L34.7324 26.0688L28.8425 12.4272L30.1377 11.868L30.3286 11.7856L30.2824 11.5829C30.2378 11.3873 30.237 11.1773 30.278 11.0092C30.3206 10.8348 30.3941 10.7535 30.4558 10.7269L31.2508 10.3837C31.3296 10.3496 31.4698 10.3584 31.6571 10.4946C31.8376 10.6257 32.0171 10.8476 32.1361 11.1232L32.2402 11.3644L32.4625 11.8792L32.6969 11.3698C32.7801 11.1889 32.9703 10.8498 33.2869 10.6316C33.5841 10.4267 34.0199 10.3078 34.6639 10.6017L34.7677 10.3743L34.6639 10.6017C35.3992 10.9372 36.6214 11.3186 37.9352 11.4864C39.2442 11.6535 40.6828 11.6137 41.826 11.0681L42.0433 10.9644L41.9479 10.7433L41.8838 10.5949C41.7648 10.3192 41.7264 10.0364 41.7547 9.8152C41.784 9.58552 41.8738 9.47745 41.9526 9.4434L42.041 9.40526C42.1286 9.36742 42.2672 9.3756 42.4423 9.49626C42.6139 9.6146 42.7872 9.82256 42.906 10.0978L43.1355 9.99872L43.365 9.89962C43.2462 9.62437 43.2136 9.35566 43.2452 9.14958C43.2774 8.93946 43.3665 8.83296 43.4542 8.79511L43.5425 8.75697C43.6214 8.72293 43.7616 8.73173 43.9489 8.86786C44.1293 8.99898 44.3088 9.22086 44.4278 9.49648L44.7048 10.1381L44.7945 10.3459L45.0102 10.2772C46.5489 9.787 47.6588 8.90697 48.4322 7.96839L48.4322 7.96837C48.6893 7.65621 48.861 7.34546 48.9745 7.05608L49.0121 6.96021L48.9713 6.86567L48.7887 6.44265C48.6697 6.16703 48.6313 5.88421 48.6596 5.66298C48.6889 5.43331 48.7787 5.32523 48.8575 5.29118L48.9459 5.25305C49.0247 5.219 49.1649 5.22781 49.3522 5.36393C49.5326 5.49505 49.7122 5.71693 49.8312 5.99255L49.8786 6.10239L49.9553 6.28018L50.1467 6.2503C50.7016 6.16364 51.335 6.3341 51.9642 6.73173C52.5914 7.12812 53.1967 7.74003 53.6843 8.49973L53.7989 8.67836L53.9938 8.59423L55.1062 8.11393L55.3358 8.01483L55.2367 7.78531L54.6052 6.32275L55.471 5.94893L56.1025 7.41148L56.2016 7.641L56.4311 7.54191L57.2615 7.18339L57.9765 8.83944L57.1461 9.19796L56.9166 9.29706L57.0157 9.52658L57.6472 10.9891L56.7813 11.363L56.1499 9.9004L56.0508 9.67088L55.8212 9.76998L54.7293 10.2414L54.529 10.3279L54.5875 10.538C54.8494 11.4786 54.9003 12.3821 54.7657 13.1393C54.6307 13.8985 54.3135 14.4921 53.8569 14.8461L53.7065 14.9628L53.7789 15.1388C53.8903 15.4095 53.9187 15.6713 53.8858 15.8714C53.8523 16.075 53.765 16.1782 53.6789 16.2154L53.5906 16.2535C53.4936 16.2954 53.3565 16.288 53.1938 16.1822C53.0314 16.0766 52.8645 15.8828 52.7458 15.6079L52.6241 15.3259L52.5833 15.2314L52.4877 15.193C52.1993 15.0771 51.8553 14.989 51.4518 14.9621L51.4517 14.9621C50.2382 14.8813 48.8366 15.0857 47.4247 15.8694L47.2268 15.9793L47.3165 16.1871L47.5327 16.6877C47.6514 16.9626 47.678 17.2169 47.6435 17.4076C47.6089 17.5985 47.5203 17.7033 47.4232 17.7452L47.3349 17.7833C47.2473 17.8212 47.1086 17.813 46.9336 17.6924C46.762 17.574 46.5887 17.366 46.4699 17.0908L46.2404 17.1899L46.0108 17.289C46.1297 17.5642 46.1622 17.8329 46.1307 18.039C46.0985 18.2491 46.0094 18.3557 45.9217 18.3935L45.8334 18.4316C45.7413 18.4714 45.6037 18.4637 45.4352 18.3509C45.2683 18.2393 45.0984 18.039 44.9795 17.7647L44.8839 17.5441L44.6597 17.631C43.478 18.0892 42.4649 19.1156 41.6916 20.1887C40.9153 21.2659 40.3576 22.4226 40.0978 23.1872L40.0978 23.1872C39.87 23.8576 39.4847 24.0933 39.1318 24.1691C38.7558 24.2498 38.3787 24.1557 38.1899 24.0922Z" stroke="white" stroke-width="0.5"/>
<path d="M72.7797 99.7817L72.2671 100.009L72.7783 100.238L73.1788 100.418C73.6328 100.622 73.7448 100.986 73.649 101.2C73.6489 101.2 73.6489 101.2 73.6489 101.2L73.2937 101.99C73.2089 102.179 72.8927 102.329 72.458 102.179L72.2422 102.105L72.1486 102.313L71.5774 103.584L58.0076 97.4845L58.5789 96.2136L58.6725 96.0054L58.4736 95.8933C58.0732 95.6676 57.9751 95.3318 58.0599 95.1431L58.4152 94.3528C58.4585 94.2563 58.568 94.1688 58.7553 94.1332C58.9404 94.0981 59.1715 94.1223 59.3909 94.221L59.8012 94.4054L60.3125 94.6352L60.1418 94.1013C60.0812 93.9115 59.9928 93.5327 60.0793 93.1576C60.1605 92.8055 60.4022 92.4233 61.0758 92.2051C61.845 91.956 63.0044 91.4119 64.0874 90.6482C65.1665 89.8873 66.2015 88.8861 66.6773 87.7112L66.7677 87.4881L66.5481 87.3894L66.1199 87.1969C65.9005 87.0983 65.729 86.9416 65.6324 86.7798C65.5346 86.6161 65.5274 86.4762 65.5708 86.3797L65.6102 86.2919C65.6573 86.1873 65.7651 86.0995 65.9371 86.0621C66.1089 86.0248 66.3276 86.0439 66.5464 86.1423L66.6489 85.9143L66.7514 85.6862C66.5326 85.5879 66.3731 85.4371 66.2869 85.2838C66.2007 85.1304 66.1947 84.9914 66.2418 84.8868L66.2813 84.799C66.3246 84.7025 66.4341 84.615 66.6214 84.5794C66.8065 84.5443 67.0376 84.5685 67.257 84.6672L67.8068 84.9143L68.0074 85.0045L68.1224 84.817C69.2477 82.9825 69.7357 80.8894 69.6077 79.5436C69.5582 79.0228 69.4134 78.579 69.2449 78.2177L69.2056 78.1335L69.1209 78.0954L68.839 77.9687C68.6196 77.8701 68.4481 77.7133 68.3515 77.5516C68.2537 77.3879 68.2465 77.248 68.2899 77.1515L68.3293 77.0636C68.3727 76.9671 68.4821 76.8796 68.6695 76.8441C68.8546 76.809 69.0856 76.8332 69.3051 76.9318L70.5888 77.5088L70.7714 77.5909L70.8914 77.4306C71.4683 76.66 72.5852 76.2609 73.866 76.3911L74.251 76.4303L74.1284 76.0632C74.037 75.7894 74.0419 75.5242 74.1457 75.2933C74.2825 74.989 74.5811 74.7697 74.9889 74.6812C75.3967 74.5926 75.8964 74.6408 76.3855 74.8607C76.8747 75.0806 77.2424 75.4222 77.4468 75.7859C77.6512 76.1497 77.6854 76.5186 77.5486 76.8229C77.4445 77.0545 77.2483 77.2347 76.9813 77.3481L76.625 77.4994L76.9095 77.7619C77.8532 78.6326 78.2937 79.7303 78.101 80.6713L78.0608 80.8674L78.2434 80.9495L79.4082 81.473C79.8623 81.6771 79.9742 82.0412 79.8782 82.2547L79.8388 82.3425C79.7428 82.5559 79.3962 82.714 78.9422 82.5099L78.7792 82.4366L78.6944 82.3985L78.6054 82.4251C78.2233 82.5389 77.7953 82.7253 77.373 83.034C76.2815 83.8316 75.0401 85.5861 74.4152 87.6455L74.3513 87.856L74.5519 87.9461L75.1018 88.1933C75.5558 88.3974 75.6677 88.7615 75.5718 88.9749L75.5323 89.0627C75.4853 89.1674 75.3774 89.2552 75.2054 89.2925C75.0336 89.3298 74.8149 89.3107 74.5961 89.2123L74.4936 89.4404L74.3912 89.6684C74.6099 89.7667 74.7694 89.9176 74.8556 90.0709C74.9418 90.2242 74.9478 90.3632 74.9007 90.4678L74.8613 90.5556C74.7653 90.7691 74.4187 90.9271 73.9647 90.723L73.5464 90.535L73.3268 90.4363L73.2199 90.6521C72.6571 91.7879 72.5956 93.2266 72.7429 94.5387C72.8907 95.8556 73.2535 97.0839 73.5777 97.8244L73.5777 97.8244C73.8618 98.4731 73.7364 98.9076 73.5269 99.2021C73.3038 99.5158 72.9618 99.7011 72.7797 99.7817Z" stroke="white" stroke-width="0.5"/>
<path d="M72.6293 51.9549L72.1063 52.1541L72.6037 52.4107L72.9986 52.6144C73.4404 52.8424 73.5329 53.2126 73.4249 53.4219L73.0267 54.1937C72.9312 54.3788 72.6067 54.5112 72.1812 54.3386L71.9697 54.2528L71.8651 54.4556L71.2244 55.6973L58.0032 48.8757L58.6439 47.634L58.7486 47.4311L58.5561 47.3085C58.1689 47.0617 58.0887 46.7205 58.1842 46.5355L58.5824 45.7636C58.6313 45.6689 58.7458 45.5872 58.9348 45.5616C59.1216 45.5363 59.351 45.5727 59.5647 45.683L59.9597 45.8868L60.457 46.1434L60.3163 45.6018C60.2661 45.4087 60.1985 45.0249 60.3056 44.654C60.4061 44.3056 60.6689 43.9358 61.354 43.7532L61.2896 43.5117L61.354 43.7532C62.1358 43.5448 63.3241 43.0621 64.4481 42.3558C65.568 41.6519 66.6571 40.7055 67.1969 39.5557L67.2992 39.3377L67.0852 39.2273L66.6716 39.0139C66.458 38.9036 66.2953 38.7378 66.2076 38.5709C66.119 38.402 66.1193 38.2614 66.1681 38.1667L66.2124 38.0809C66.2613 37.9862 66.3757 37.9044 66.5647 37.8788C66.7515 37.8535 66.9809 37.89 67.1946 38.0003L67.7351 38.2791L67.9573 38.3938L68.0719 38.1716L68.2301 37.8651L68.3005 37.7286L68.2106 37.6041C67.1373 36.1171 66.8843 34.4544 67.5751 33.1155C67.754 32.7688 68.1392 32.3883 68.6922 31.9923C69.2394 31.6006 69.9258 31.2111 70.675 30.8388C72.1729 30.0943 73.8977 29.4302 75.2058 28.9623L75.4674 28.8687L75.3468 28.6184C75.1681 28.2473 75.1556 27.8813 75.3074 27.5871C75.4609 27.2895 75.7716 27.0859 76.1838 27.0189C76.596 26.9519 77.0925 27.0266 77.5689 27.2725C78.0454 27.5183 78.3939 27.8796 78.5781 28.2543C78.7624 28.629 78.7764 29.0001 78.6228 29.2977L78.6228 29.2977C78.471 29.592 78.1653 29.7938 77.7593 29.8632L77.4854 29.91L77.5608 30.1774C77.7387 30.8088 77.9338 31.5416 78.1173 32.3136L74.9125 32.8342L74.9125 32.8342C74.5977 32.8853 74.3423 33.0552 74.2097 33.3117C74.0771 33.5681 74.0862 33.8743 74.2266 34.1604C74.2268 34.1607 74.2269 34.161 74.2271 34.1612L74.2917 34.2949L74.2924 34.2963C74.4316 34.5791 74.6774 34.8035 74.9529 34.9456C75.2284 35.0877 75.5538 35.158 75.8648 35.1075L75.8651 35.1074L78.5918 34.6613C78.7317 35.5001 78.823 36.3063 78.8341 37.0073C78.8464 37.7848 78.759 38.3973 78.5599 38.7833C77.8866 40.0881 76.4738 40.8526 74.6415 40.8454L74.4885 40.8448L74.4183 40.9808L74.2287 41.3483L74.1141 41.5705L74.3362 41.6851L74.838 41.944C75.2799 42.172 75.3724 42.5422 75.2644 42.7514L75.2202 42.8372C75.1122 43.0465 74.7569 43.1856 74.3151 42.9576L73.9016 42.7443L73.6876 42.6339L73.5693 42.8436C72.945 43.9499 72.8049 45.3858 72.8803 46.7065C72.956 48.0318 73.2512 49.28 73.5344 50.0379L73.5344 50.038C73.7827 50.7021 73.6336 51.1305 73.4079 51.4144C73.1677 51.7166 72.8157 51.8839 72.6293 51.9549Z" stroke="white" stroke-width="0.5"/>
<path d="M36.1662 42.9556L36.2422 42.8798L37.1457 41.979C37.5131 41.6124 37.8034 41.176 37.9997 40.6955C38.1959 40.215 38.2942 39.7002 38.2886 39.1812C38.2829 38.6622 38.1736 38.1496 37.967 37.6735C37.7604 37.1975 37.4607 36.7675 37.0855 36.4089L37.0854 36.4088L36.1635 35.5267L36.0863 35.4529L36.0863 35.346L36.0867 34.0707L36.0867 34.0706C36.0871 33.5518 35.9838 33.0381 35.7828 32.5598C35.5819 32.0815 35.2874 31.6482 34.9166 31.2854C34.5458 30.9226 34.1062 30.6375 33.6236 30.447C33.1411 30.2564 32.6254 30.1643 32.1068 30.1759C32.1067 30.1759 32.1067 30.1759 32.1067 30.1759L30.8308 30.205L30.7237 30.2074L30.648 30.1316L29.7473 29.228C29.3806 28.8607 28.9443 28.5704 28.4638 28.3741C27.9834 28.1779 27.4685 28.0797 26.9496 28.0854C26.4306 28.091 25.918 28.2004 25.4419 28.407C24.9658 28.6136 24.5358 28.9134 24.1772 29.2886L24.1771 29.2887L23.295 30.2107L23.2211 30.2879L23.1143 30.2879L21.839 30.2876L21.8389 30.2876C21.3201 30.2872 20.8064 30.3906 20.3281 30.5915C19.8498 30.7925 19.4165 31.0871 19.0536 31.4579C18.6908 31.8287 18.4057 32.2683 18.2151 32.7509C18.0245 33.2334 17.9324 33.7492 17.9439 34.2678C17.9439 34.2679 17.9439 34.2679 17.9439 34.2679L17.9729 35.5438L17.9754 35.6509L17.8995 35.7266L16.996 36.6274C16.6286 36.994 16.3383 37.4304 16.142 37.9109C15.9457 38.3914 15.8475 38.9062 15.8531 39.4252C15.8587 39.9442 15.9681 40.4568 16.1747 40.9329C16.3813 41.409 16.681 41.8389 17.0562 42.1975L17.0563 42.1976L17.9782 43.0797L18.0554 43.1535L18.0554 43.2604L18.055 44.5357L18.055 44.5358C18.0546 45.0546 18.1579 45.5683 18.3588 46.0466C18.5598 46.5249 18.8543 46.9582 19.2251 47.321C19.5959 47.6838 20.0355 47.9689 20.518 48.1594C21.0006 48.35 21.5163 48.4421 22.035 48.4305L23.3109 48.4014L23.418 48.399L23.4937 48.4749L24.3944 49.3784C24.761 49.7457 25.1974 50.036 25.6778 50.2323C26.1583 50.4285 26.6731 50.5267 27.1921 50.521C27.7111 50.5154 28.2237 50.406 28.6998 50.1994C29.1759 49.9928 29.6059 49.693 29.9644 49.3178L29.9645 49.3177L30.8467 48.3957L30.9206 48.3184L31.0276 48.3185L32.3038 48.3199C32.3038 48.3199 32.3039 48.3199 32.3039 48.3199C32.8227 48.3202 33.3363 48.2168 33.8146 48.0159C34.2929 47.8149 34.7262 47.5203 35.0891 47.1495C35.4519 46.7787 35.737 46.3391 35.9276 45.8565C36.1181 45.374 36.2103 44.8584 36.1988 44.3398L36.1662 42.9556ZM36.1662 42.9556L36.1687 43.0628L36.1988 44.3395L36.1662 42.9556ZM25.7565 42.0287L27.0856 40.6704L28.4438 41.9995C28.6271 42.1788 28.8741 42.278 29.1305 42.2752C29.3869 42.2724 29.6317 42.1679 29.811 41.9846C29.9903 41.8013 30.0895 41.5543 30.0867 41.2979C30.084 41.0416 29.9795 40.7968 29.7962 40.6174L28.438 39.2883L29.7672 37.93C29.9465 37.7468 30.0457 37.4998 30.0429 37.2434C30.0401 36.987 29.9356 36.7422 29.7524 36.5629C29.5691 36.3835 29.3221 36.2843 29.0657 36.2871C28.8093 36.2899 28.5645 36.3945 28.3852 36.5777L27.056 37.936L25.6978 36.6069C25.5146 36.4276 25.2676 36.3284 25.0112 36.3312C24.7548 36.334 24.51 36.4385 24.3307 36.6218C24.1513 36.8051 24.0522 37.0521 24.0549 37.3085C24.0577 37.5649 24.1622 37.8096 24.3455 37.989L25.7037 39.3181L24.3745 40.6764C24.1952 40.8596 24.096 41.1066 24.0988 41.363C24.1015 41.6194 24.206 41.8642 24.3893 42.0435C24.5726 42.2229 24.8196 42.3221 25.076 42.3193C25.3324 42.3165 25.5771 42.212 25.7565 42.0287Z" stroke="#F9CE00" stroke-width="0.5"/>
<path d="M63.7732 23.7853L63.7192 23.6927L63.6148 23.668L62.3722 23.3736C61.8675 23.2535 61.3919 23.0336 60.9733 22.727C60.5548 22.4205 60.2017 22.0333 59.9349 21.5883C59.6681 21.1434 59.4929 20.6496 59.4196 20.1359C59.3464 19.6223 59.3765 19.0993 59.5082 18.5975C59.5082 18.5975 59.5083 18.5974 59.5083 18.5974L59.8328 17.3631L59.86 17.2597L59.804 17.1686L59.1355 16.0817L59.1355 16.0815C58.8633 15.6396 58.6823 15.1477 58.603 14.6348C58.5237 14.1219 58.5477 13.5983 58.6737 13.0948C58.7997 12.5913 59.0251 12.1181 59.3367 11.7031C59.6482 11.288 60.0396 10.9394 60.4878 10.6778L61.59 10.0353L61.6825 9.98131L61.7073 9.87708L62.0024 8.63541C62.0024 8.63538 62.0024 8.63535 62.0024 8.63532C62.1225 8.13064 62.3423 7.65507 62.6489 7.23655C62.9554 6.81801 63.3425 6.46497 63.7875 6.19817C64.2324 5.93138 64.7262 5.75622 65.2397 5.68298C65.7533 5.60974 66.2764 5.63989 66.7782 5.77168L66.7783 5.77171L68.0119 6.09515L68.1153 6.12224L68.2063 6.06627L69.2931 5.39786L69.2932 5.39778C69.7351 5.12564 70.227 4.94461 70.7399 4.86534C71.2528 4.78607 71.7764 4.81016 72.2798 4.93619C72.7833 5.06222 73.2565 5.28765 73.6715 5.59922C74.0866 5.91079 74.4352 6.30221 74.6969 6.75047L75.3394 7.85275L75.3934 7.9453L75.4976 7.97007L76.7392 8.26522C76.7393 8.26522 76.7393 8.26523 76.7393 8.26524C77.244 8.38541 77.7195 8.60523 78.1381 8.9118C78.5566 9.21839 78.9097 9.60554 79.1765 10.0505C79.4433 10.4955 79.6185 10.9893 79.6917 11.5029C79.765 12.0165 79.7349 12.5396 79.6031 13.0414L79.6031 13.0415L79.2797 14.2752L79.2527 14.3785L79.3086 14.4695L79.9771 15.5564L79.9772 15.5566C80.2493 15.9985 80.4304 16.4904 80.5097 17.0033C80.5889 17.5162 80.5649 18.0398 80.4389 18.5433C80.3129 19.0468 80.0875 19.52 79.776 19.935C79.4644 20.3501 79.0731 20.6987 78.6248 20.9603L77.5226 21.6028L77.4301 21.6568L77.4053 21.761L77.1102 23.0027C76.9901 23.5074 76.7703 23.983 76.4638 24.4016C76.1572 24.8201 75.7701 25.1731 75.3252 25.4399C74.8802 25.7067 74.3865 25.8819 73.8729 25.9551C73.3593 26.0284 72.8362 25.9982 72.3344 25.8664L72.3343 25.8664L71.1007 25.543L70.9974 25.5159L70.9063 25.5718L69.8195 26.2402L69.8194 26.2403C69.3775 26.5125 68.8856 26.6935 68.3727 26.7728C67.8598 26.852 67.3363 26.8279 66.8328 26.7019C66.3293 26.5759 65.8562 26.3505 65.4411 26.0389C65.026 25.7273 64.6774 25.3359 64.4158 24.8876L63.7732 23.7853ZM67.2527 13.8572L68.23 15.487L66.6002 16.4643C66.3803 16.5962 66.2218 16.81 66.1596 17.0587C66.0973 17.3075 66.1364 17.5707 66.2683 17.7906C66.4001 18.0106 66.614 18.1691 66.8627 18.2313C67.1114 18.2936 67.3747 18.2545 67.5946 18.1227L69.2244 17.1454L70.2017 18.7753C70.3335 18.9952 70.5474 19.1537 70.7961 19.216C71.0448 19.2783 71.3081 19.2392 71.528 19.1073C71.7479 18.9754 71.9064 18.7616 71.9687 18.5129C72.0309 18.2641 71.9918 18.0009 71.8599 17.7809L70.8826 16.1511L72.5124 15.1738C72.7323 15.0419 72.8908 14.8281 72.9531 14.5794C73.0153 14.3306 72.9762 14.0674 72.8443 13.8475C72.7125 13.6275 72.4987 13.469 72.2499 13.4068C72.0012 13.3445 71.7379 13.3836 71.518 13.5154L69.8883 14.4927L68.9109 12.8628C68.7791 12.6429 68.5653 12.4844 68.3165 12.4221C68.0678 12.3598 67.8045 12.3989 67.5846 12.5308C67.3647 12.6627 67.2062 12.8765 67.144 13.1252C67.0817 13.374 67.1208 13.6372 67.2527 13.8572Z" stroke="#F9CE00" stroke-width="0.5"/>
</svg>
