<svg width="86" height="105" viewBox="0 0 86 105" fill="none" xmlns="http://www.w3.org/2000/svg">
<path d="M65.304 60.3641C64.361 59.2741 64.4739 57.6269 65.5589 56.6883C66.6439 55.7497 68.0709 55.914 69.4951 56.7291C70.5028 57.3058 71.4219 57.365 72.3625 57.1892C73.303 57.0134 74.9687 56.9783 75.8855 58.0382C76.2543 58.4645 77.1374 59.4853 77.1374 59.4853L78.3743 58.4153C82.2277 68.7562 69.5626 75.2865 69.5626 75.2865L68.2114 73.7245L67.1928 74.6057L67.5955 75.0713C67.8748 75.3942 67.8806 75.9276 67.5592 76.2057L67.4864 76.2687C67.2471 76.4757 66.8962 76.485 66.6273 76.355C66.0868 77.9433 64.5506 78.3328 64.1301 78.4179L64.4634 78.8032C64.7428 79.1262 64.7485 79.6596 64.4271 79.9377L63.1174 81.0706C62.796 81.3487 62.2824 81.2818 62.0295 80.9894L60.8653 81.9964L52.5186 72.3477L53.6878 71.3363C53.4707 71.0128 53.5255 70.5821 53.8222 70.3254L55.1319 69.1924C55.4533 68.9144 55.9005 68.9046 56.1799 69.2276L56.4499 69.5397C56.5946 69.1358 57.241 67.7177 58.8907 67.4116C58.8008 67.1268 58.9005 66.8271 59.1398 66.62L59.2126 66.5571C59.534 66.279 59.9812 66.2693 60.2606 66.5922L60.7431 67.15L61.7618 66.2688L60.2358 64.5049C65.2083 62.3122 70.4694 64.1295 70.4694 64.1295L67.9286 61.1923C67.001 61.4272 65.9743 61.139 65.304 60.3641Z" stroke="#1B1B1B" stroke-width="0.5"/>
<path d="M23.7915 14.68C22.9631 10.7139 20.1043 7.63528 16.3929 6.6851L16.203 7.51827M16.203 7.51827L16.203 7.51833L16.203 7.51827ZM16.3861 19.0074C16.1092 18.831 15.9492 18.4738 16.034 18.0934C16.1188 17.7131 16.4152 17.4576 16.7409 17.4154L16.3861 19.0074ZM16.8645 19.1594L17.2385 17.4809L24.7199 19.148L24.3459 20.8264L16.8645 19.1594ZM24.8435 20.892L25.1983 19.2999C25.4752 19.4764 25.6352 19.8336 25.5504 20.2139C25.4657 20.5943 25.1692 20.8498 24.8435 20.892Z" stroke="#F9CE00" stroke-width="0.5"/>
<path d="M43.146 38.4078C42.7682 38.0278 42.6877 37.4493 41.9751 36.7327C41.2626 36.0161 40.8195 36.0682 40.2905 35.5363C39.4916 34.7328 39.5379 33.8445 40.3145 33.0722C41.6415 31.7526 43.5676 31.9101 45.1925 33.5441C45.9914 34.3475 46.2475 34.8162 46.5372 35.4242L48.975 34.166C51.332 32.9774 53.4107 32.7455 54.7171 34.0592L55.354 34.6998C55.5646 34.9115 55.8331 34.9251 56.1196 34.6402C56.5871 34.1754 56.2521 33.6124 55.7609 33.1184C54.1847 31.5333 51.7994 31.5624 48.644 33.2752L47.0178 34.1582C46.7563 33.684 46.415 33.2353 46.0155 32.8336C45.697 32.5133 45.3753 32.2502 45.0074 32.0007C45.0227 31.3376 44.9992 30.6052 44.7859 29.7271C43.6082 29.6889 42.5532 29.3669 41.8299 28.6396C40.34 27.1413 40.1231 26.0184 42.091 24.0615C44.466 21.6996 47.4762 21.1679 49.1041 22.8201L53.2479 21.6036C55.5408 20.9537 57.2158 21.2207 58.1713 22.1815C58.9594 22.974 59.4974 24.7818 58.6077 25.6665C58.0045 26.2664 56.2856 26.2267 55.0303 26.1255L49.267 25.6379C49.1857 26.2046 49.2336 26.5996 49.4982 26.8657C49.9191 27.289 50.7054 27.371 51.8863 27.5029C54.8964 27.8457 57.4349 27.8801 59.1622 29.6172C60.9598 31.4249 60.8854 34.2303 58.8094 37.7523C59.387 38.3331 59.2964 39.2977 58.5198 40.0699C57.6452 40.9397 56.5982 40.9876 55.918 40.3036C53.5918 41.0406 51.6834 40.358 50.1558 38.8218C50.0748 38.7404 50.0014 38.6515 49.9204 38.57L45.2008 38.8908C43.9749 39.0302 43.5563 38.8204 43.146 38.4078ZM44.7362 25.9977C44.9791 26.242 45.46 26.1525 45.7917 25.8226C46.131 25.4852 46.2328 24.9844 45.99 24.7402C45.7416 24.4905 45.2813 24.5704 44.942 24.9078C44.6027 25.2452 44.4933 25.7535 44.7362 25.9977ZM46.4532 42.9248C45.4114 41.8772 45.0587 40.9647 45.0382 39.9487L48.6514 39.6916C48.7194 39.7751 48.7961 39.8824 48.9095 39.9964C49.1794 40.2678 49.6919 40.557 50.167 41.0347C50.7715 41.6427 50.6916 42.4672 50.0131 43.1419C49.0027 44.1466 47.5976 44.0756 46.4532 42.9248Z" stroke="#1B1B1B" stroke-width="0.5"/>
<path d="M38.1901 24.0922L37.6586 23.9135L37.8809 24.4282L37.9808 24.6596C38.0995 24.9346 38.1261 25.1889 38.0916 25.3796C38.0571 25.5705 37.9684 25.6754 37.8715 25.7173C37.8714 25.7173 37.8714 25.7174 37.8714 25.7174L37.0765 26.0605C36.9842 26.1004 36.8793 26.1017 36.7593 26.0425C36.6336 25.9804 36.4853 25.8475 36.3406 25.6093L36.2276 25.4233L36.0279 25.5096L34.7326 26.0688L28.8427 12.4272L30.138 11.868L30.3289 11.7856L30.2826 11.5829C30.238 11.3873 30.2372 11.1773 30.2783 11.0092C30.3209 10.8348 30.3944 10.7535 30.4561 10.7269L31.251 10.3837C31.3299 10.3496 31.4701 10.3584 31.6574 10.4946C31.8378 10.6257 32.0173 10.8476 32.1363 11.1232L32.2405 11.3644L32.4627 11.8792L32.6971 11.3698C32.7804 11.1889 32.9705 10.8498 33.2871 10.6316C33.5843 10.4267 34.0202 10.3078 34.6641 10.6017L34.7679 10.3743L34.6642 10.6017C35.3994 10.9372 36.6216 11.3186 37.9354 11.4864C39.2445 11.6535 40.683 11.6137 41.8263 11.0681L42.0435 10.9644L41.9481 10.7433L41.884 10.5949C41.765 10.3192 41.7266 10.0364 41.7549 9.8152C41.7843 9.58552 41.874 9.47745 41.9529 9.4434L42.0412 9.40526C42.1289 9.36742 42.2675 9.3756 42.4425 9.49626C42.6141 9.6146 42.7874 9.82256 42.9062 10.0978L43.1358 9.99872L43.3653 9.89962C43.2464 9.62437 43.2139 9.35566 43.2455 9.14958C43.2777 8.93946 43.3668 8.83296 43.4544 8.79511L43.5427 8.75697C43.6216 8.72293 43.7618 8.73173 43.9491 8.86786C44.1295 8.99898 44.3091 9.22086 44.4281 9.49648L44.7051 10.1381L44.7948 10.3459L45.0105 10.2772C46.5491 9.787 47.6591 8.90697 48.4324 7.96839L48.4324 7.96837C48.6896 7.65622 48.8612 7.34546 48.9748 7.05608L49.0124 6.96021L48.9715 6.86567L48.7889 6.44265C48.6699 6.16703 48.6315 5.88421 48.6598 5.66298C48.6892 5.43331 48.7789 5.32523 48.8578 5.29118L48.9461 5.25305C49.025 5.219 49.1652 5.22781 49.3525 5.36393C49.5329 5.49505 49.7124 5.71693 49.8314 5.99255L49.8788 6.10239L49.9556 6.28018L50.1469 6.2503C50.7018 6.16364 51.3352 6.3341 51.9644 6.73173C52.5917 7.12812 53.197 7.74003 53.6845 8.49973L53.7991 8.67836L53.994 8.59423L55.1065 8.11393L55.336 8.01483L55.2369 7.78531L54.6054 6.32275L55.4713 5.94893L56.1027 7.41148L56.2018 7.641L56.4314 7.54191L57.2618 7.18339L57.9768 8.83944L57.1464 9.19796L56.9169 9.29706L57.016 9.52658L57.6474 10.9891L56.7816 11.363L56.1501 9.9004L56.051 9.67088L55.8215 9.76998L54.7295 10.2414L54.5293 10.3279L54.5878 10.538C54.8497 11.4786 54.9005 12.3821 54.7659 13.1393C54.6309 13.8985 54.3137 14.4921 53.8572 14.8461L53.7067 14.9628L53.7792 15.1388C53.8906 15.4095 53.9189 15.6713 53.886 15.8714C53.8526 16.075 53.7653 16.1782 53.6792 16.2154L53.5908 16.2535C53.4938 16.2954 53.3568 16.288 53.1941 16.1822C53.0317 16.0766 52.8648 15.8828 52.7461 15.6079L52.6243 15.3259L52.5835 15.2314L52.488 15.193C52.1995 15.0771 51.8555 14.989 51.452 14.9621L51.452 14.9621C50.2385 14.8813 48.8369 15.0857 47.425 15.8694L47.2271 15.9793L47.3168 16.1871L47.5329 16.6877C47.6516 16.9626 47.6782 17.2169 47.6437 17.4076C47.6091 17.5985 47.5205 17.7033 47.4235 17.7452L47.3352 17.7833C47.2475 17.8212 47.1089 17.813 46.9339 17.6924C46.7622 17.574 46.589 17.366 46.4701 17.0908L46.2406 17.1899L46.0111 17.289C46.1299 17.5642 46.1625 17.8329 46.1309 18.039C46.0987 18.2491 46.0096 18.3557 45.922 18.3935L45.8336 18.4316C45.7415 18.4714 45.604 18.4637 45.4354 18.3509C45.2686 18.2393 45.0987 18.039 44.9797 17.7647L44.8841 17.5441L44.66 17.631C43.4782 18.0892 42.4651 19.1156 41.6918 20.1887C40.9156 21.2659 40.3578 22.4226 40.098 23.1872L40.098 23.1872C39.8703 23.8576 39.4849 24.0933 39.132 24.1691C38.7561 24.2498 38.3789 24.1557 38.1901 24.0922Z" stroke="#1B1B1B" stroke-width="0.5"/>
<path d="M72.7799 99.7817L72.2673 100.009L72.7786 100.238L73.179 100.418C73.633 100.622 73.745 100.986 73.6492 101.2C73.6492 101.2 73.6492 101.2 73.6492 101.2L73.2939 101.99C73.2091 102.179 72.8929 102.329 72.4583 102.179L72.2424 102.105L72.1489 102.313L71.5776 103.584L58.0079 97.4845L58.5791 96.2136L58.6727 96.0054L58.4739 95.8933C58.0734 95.6676 57.9753 95.3318 58.0601 95.1431L58.4154 94.3528C58.4588 94.2563 58.5682 94.1688 58.7555 94.1332C58.9406 94.0981 59.1717 94.1223 59.3911 94.221L59.8015 94.4054L60.3127 94.6352L60.1421 94.1013C60.0814 93.9115 59.993 93.5327 60.0795 93.1576C60.1607 92.8055 60.4024 92.4233 61.0761 92.2051C61.8452 91.956 63.0047 91.4119 64.0877 90.6482C65.1668 89.8873 66.2018 88.8861 66.6775 87.7112L66.7679 87.4881L66.5483 87.3894L66.1202 87.1969C65.9007 87.0983 65.7292 86.9416 65.6326 86.7798C65.5348 86.6161 65.5276 86.4762 65.571 86.3797L65.6105 86.2919C65.6575 86.1873 65.7654 86.0995 65.9373 86.0621C66.1092 86.0248 66.3278 86.0439 66.5466 86.1423L66.6491 85.9143L66.7516 85.6862C66.5328 85.5879 66.3733 85.4371 66.2872 85.2838C66.201 85.1304 66.195 84.9914 66.242 84.8868L66.2815 84.799C66.3249 84.7025 66.4343 84.615 66.6216 84.5794C66.8067 84.5443 67.0378 84.5685 67.2572 84.6672L67.8071 84.9143L68.0077 85.0045L68.1227 84.817C69.248 82.9825 69.736 80.8894 69.6079 79.5436C69.5584 79.0228 69.4137 78.579 69.2452 78.2177L69.2059 78.1335L69.1211 78.0954L68.8393 77.9687C68.6198 77.8701 68.4483 77.7133 68.3517 77.5516C68.2539 77.3879 68.2467 77.248 68.2901 77.1515L68.3296 77.0636C68.373 76.9671 68.4824 76.8796 68.6697 76.8441C68.8548 76.809 69.0859 76.8332 69.3053 76.9318L70.589 77.5088L70.7717 77.5909L70.8917 77.4306C71.4685 76.66 72.5854 76.2609 73.8663 76.3911L74.2513 76.4303L74.1287 76.0632C74.0372 75.7894 74.0422 75.5242 74.146 75.2933C74.2827 74.989 74.5813 74.7697 74.9892 74.6812C75.3969 74.5926 75.8966 74.6408 76.3858 74.8607C76.8749 75.0806 77.2426 75.4222 77.447 75.7859C77.6515 76.1497 77.6857 76.5186 77.5489 76.8229C77.4448 77.0545 77.2486 77.2347 76.9816 77.3481L76.6252 77.4994L76.9098 77.7619C77.8535 78.6326 78.294 79.7303 78.1012 80.6713L78.061 80.8674L78.2436 80.9495L79.4085 81.473C79.8625 81.6771 79.9744 82.0412 79.8785 82.2547L79.839 82.3425C79.7431 82.5559 79.3965 82.714 78.9424 82.5099L78.7795 82.4366L78.6947 82.3985L78.6056 82.4251C78.2235 82.5389 77.7956 82.7253 77.3732 83.034C76.2818 83.8316 75.0403 85.5861 74.4154 87.6455L74.3515 87.856L74.5521 87.9461L75.102 88.1933C75.556 88.3974 75.668 88.7615 75.572 88.9749L75.5325 89.0627C75.4855 89.1674 75.3776 89.2552 75.2057 89.2925C75.0338 89.3298 74.8152 89.3107 74.5964 89.2123L74.4939 89.4404L74.3914 89.6684C74.6102 89.7667 74.7697 89.9176 74.8558 90.0709C74.9421 90.2242 74.948 90.3632 74.901 90.4678L74.8615 90.5556C74.7656 90.7691 74.419 90.9271 73.9649 90.723L73.5467 90.535L73.3271 90.4363L73.2202 90.6521C72.6574 91.7879 72.5958 93.2266 72.7431 94.5387C72.891 95.8556 73.2537 97.0839 73.5779 97.8244L73.5779 97.8245C73.862 98.4731 73.7366 98.9076 73.5272 99.2021C73.3041 99.5158 72.9621 99.7011 72.7799 99.7817Z" stroke="#1B1B1B" stroke-width="0.5"/>
<path d="M72.6295 51.9549L72.1066 52.1541L72.6039 52.4107L72.9988 52.6144C73.4406 52.8424 73.5332 53.2126 73.4252 53.4219L73.0269 54.1937C72.9315 54.3788 72.607 54.5112 72.1815 54.3386L71.97 54.2528L71.8653 54.4556L71.2247 55.6973L58.0035 48.8757L58.6442 47.634L58.7488 47.4311L58.5563 47.3085C58.1691 47.0617 58.089 46.7205 58.1844 46.5355L58.5827 45.7636C58.6315 45.6689 58.746 45.5872 58.935 45.5616C59.1218 45.5363 59.3512 45.5727 59.5649 45.683L59.9599 45.8868L60.4573 46.1434L60.3165 45.6018C60.2664 45.4087 60.1988 45.0249 60.3058 44.654C60.4064 44.3056 60.6692 43.9358 61.3542 43.7532C62.1361 43.5448 63.3244 43.0621 64.4483 42.3558C65.5683 41.6519 66.6573 40.7055 67.1971 39.5557L67.2994 39.3377L67.0854 39.2273L66.6719 39.0139C66.4582 38.9036 66.2955 38.7378 66.2079 38.5709C66.1192 38.402 66.1195 38.2614 66.1684 38.1667L66.2126 38.0809C66.2615 37.9862 66.3759 37.9044 66.565 37.8788C66.7518 37.8535 66.9812 37.89 67.1949 38.0003L67.7353 38.2791L67.9575 38.3938L68.0721 38.1716L68.2303 37.8651L68.3007 37.7286L68.2108 37.6041C67.1375 36.1171 66.8845 34.4544 67.5753 33.1155C67.7542 32.7688 68.1395 32.3883 68.6925 31.9923C69.2396 31.6006 69.926 31.2111 70.6752 30.8388C72.1732 30.0943 73.8979 29.4302 75.206 28.9623L75.4676 28.8687L75.3471 28.6184C75.1684 28.2473 75.1558 27.8813 75.3076 27.5871C75.4612 27.2895 75.7718 27.0859 76.1841 27.0189C76.5962 26.9519 77.0927 27.0266 77.5692 27.2725C78.0456 27.5183 78.3942 27.8796 78.5784 28.2543C78.7626 28.629 78.7767 29.0001 78.6231 29.2977L78.623 29.2977C78.4712 29.592 78.1655 29.7938 77.7596 29.8632L77.4857 29.91L77.561 30.1774C77.739 30.8088 77.934 31.5416 78.1175 32.3136L74.9127 32.8342L74.9127 32.8342C74.5979 32.8853 74.3425 33.0552 74.2099 33.3117C74.0774 33.5681 74.0864 33.8744 74.2269 34.1605C74.2271 34.1608 74.2272 34.161 74.2273 34.1612L74.292 34.2949L74.2927 34.2963C74.4318 34.5791 74.6777 34.8035 74.9532 34.9456C75.2287 35.0877 75.554 35.158 75.8651 35.1075L75.8654 35.1074L78.592 34.6613C78.732 35.5001 78.8232 36.3063 78.8343 37.0073C78.8466 37.7848 78.7592 38.3973 78.5601 38.7833C77.8869 40.0881 76.4741 40.8526 74.6417 40.8454L74.4887 40.8448L74.4186 40.9808L74.2289 41.3483L74.1143 41.5705L74.3365 41.6851L74.8383 41.944C75.2801 42.172 75.3726 42.5422 75.2647 42.7514L75.2204 42.8372C75.1124 43.0465 74.7571 43.1856 74.3153 42.9576L73.9019 42.7443L73.6879 42.6339L73.5695 42.8436C72.9453 43.9499 72.8051 45.3858 72.8806 46.7065C72.9563 48.0318 73.2515 49.28 73.5347 50.0379L73.5347 50.038C73.7829 50.7021 73.6339 51.1305 73.4082 51.4144C73.1679 51.7166 72.816 51.8839 72.6295 51.9549Z" stroke="#1B1B1B" stroke-width="0.5"/>
<path d="M36.2424 42.8798L36.1665 42.9556L36.169 43.0628L36.199 44.3395C36.2106 44.8582 36.1184 45.3739 35.9278 45.8565C35.7373 46.3391 35.4522 46.7787 35.0893 47.1495C34.7265 47.5203 34.2931 47.8149 33.8148 48.0159C33.3365 48.2168 32.8229 48.3202 32.3041 48.3199C32.3041 48.3199 32.3041 48.3199 32.3041 48.3199L31.0278 48.3185L30.9209 48.3184L30.8469 48.3957L29.9648 49.3177L29.9647 49.3178C29.6061 49.693 29.1761 49.9928 28.7 50.1994C28.2239 50.406 27.7113 50.5154 27.1923 50.521C26.6734 50.5267 26.1585 50.4285 25.6781 50.2323C25.1976 50.036 24.7613 49.7457 24.3947 49.3784L23.4939 48.4749L23.4183 48.399L23.3112 48.4014L22.0353 48.4305C21.5166 48.4421 21.0008 48.35 20.5183 48.1594C20.0357 47.9689 19.5962 47.6838 19.2254 47.321C18.8546 46.9582 18.56 46.5249 18.3591 46.0466C18.1581 45.5683 18.0548 45.0546 18.0552 44.5358L18.0552 44.5357L18.0556 43.2604L18.0556 43.1535L17.9784 43.0797L17.0565 42.1976L17.0564 42.1975C16.6812 41.8389 16.3815 41.409 16.1749 40.9329C15.9683 40.4568 15.859 39.9442 15.8534 39.4252C15.8478 38.9062 15.946 38.3914 16.1422 37.9109C16.3385 37.4304 16.6288 36.994 16.9962 36.6274L17.8998 35.7266L17.9756 35.6509L17.9732 35.5438L17.9442 34.2679C17.9326 33.7492 18.0248 33.2335 18.2153 32.7509C18.4059 32.2683 18.691 31.8287 19.0539 31.4579C19.4167 31.0871 19.8501 30.7925 20.3284 30.5915C20.8067 30.3906 21.3203 30.2872 21.8391 30.2876L21.8392 30.2876L23.1145 30.2879L23.2214 30.2879L23.2952 30.2107L24.1774 29.2887L24.1775 29.2886C24.5361 28.9134 24.966 28.6136 25.4421 28.407C25.9182 28.2004 26.4309 28.091 26.9498 28.0854C27.4688 28.0797 27.9836 28.1779 28.4641 28.3741C28.9445 28.5704 29.3808 28.8607 29.7474 29.228C29.7474 29.228 29.7475 29.228 29.7475 29.228L30.6483 30.1316L30.7239 30.2074L30.831 30.205L32.1069 30.1759C32.1069 30.1759 32.107 30.1759 32.107 30.1759C32.6256 30.1643 33.1414 30.2564 33.6239 30.447C34.1064 30.6375 34.546 30.9226 34.9168 31.2854C35.2876 31.6482 35.5821 32.0815 35.7831 32.5598C35.984 33.0381 36.0873 33.5518 36.087 34.0706L36.087 34.0707L36.0866 35.346L36.0865 35.4529L36.1637 35.5267L37.0856 36.4088L37.0857 36.4089C37.4609 36.7675 37.7607 37.1975 37.9673 37.6735C38.1739 38.1496 38.2832 38.6622 38.2888 39.1812C38.2944 39.7002 38.1962 40.215 37.9999 40.6955C37.8037 41.1759 37.5134 41.6123 37.146 41.9789C37.146 41.979 37.146 41.979 37.146 41.979L36.2424 42.8798ZM25.7567 42.0287L27.0859 40.6704L28.4441 41.9995C28.6273 42.1788 28.8743 42.278 29.1307 42.2752C29.3871 42.2724 29.6319 42.1679 29.8112 41.9846C29.9906 41.8013 30.0898 41.5543 30.087 41.2979C30.0842 41.0416 29.9797 40.7968 29.7964 40.6174L28.4382 39.2883L29.7674 37.93C29.9467 37.7468 30.0459 37.4998 30.0432 37.2434C30.0404 36.987 29.9359 36.7422 29.7526 36.5629C29.5693 36.3835 29.3224 36.2843 29.066 36.2871C28.8096 36.2899 28.5648 36.3945 28.3854 36.5777L27.0563 37.936L25.6981 36.6069C25.5148 36.4276 25.2678 36.3284 25.0114 36.3312C24.755 36.334 24.5103 36.4385 24.3309 36.6218C24.1516 36.8051 24.0524 37.0521 24.0552 37.3085C24.0579 37.5649 24.1625 37.8096 24.3457 37.989L25.7039 39.3181L24.3748 40.6764C24.1954 40.8596 24.0962 41.1066 24.099 41.363C24.1018 41.6194 24.2063 41.8642 24.3896 42.0435C24.5728 42.2229 24.8198 42.3221 25.0762 42.3193C25.3326 42.3165 25.5774 42.212 25.7567 42.0287Z" stroke="#F9CE00" stroke-width="0.5"/>
<path d="M63.7194 23.6927L63.7734 23.7853L64.416 24.8876C64.6776 25.3359 65.0262 25.7273 65.4413 26.0389C65.8564 26.3505 66.3296 26.5759 66.833 26.7019C67.3365 26.8279 67.8601 26.852 68.373 26.7728C68.8859 26.6935 69.3777 26.5125 69.8196 26.2403L69.8197 26.2402L70.9066 25.5718L70.9976 25.5159L71.101 25.543L72.3346 25.8664L72.3347 25.8664C72.8365 25.9982 73.3595 26.0284 73.8731 25.9551C74.3867 25.8819 74.8805 25.7067 75.3254 25.4399C75.7703 25.1731 76.1575 24.8201 76.464 24.4016C76.7705 23.983 76.9903 23.5075 77.1105 23.0028C77.1105 23.0028 77.1105 23.0027 77.1105 23.0027L77.4055 21.761L77.4303 21.6568L77.5229 21.6028L78.6251 20.9603C79.0733 20.6987 79.4647 20.3501 79.7762 19.935C80.0877 19.52 80.3131 19.0468 80.4391 18.5433C80.5651 18.0398 80.5892 17.5162 80.5099 17.0033C80.4306 16.4904 80.2496 15.9985 79.9774 15.5566L79.9773 15.5564L79.3089 14.4695L79.2529 14.3785L79.28 14.2752L79.6033 13.0415L79.6034 13.0414C79.7351 12.5396 79.7653 12.0165 79.692 11.5029C79.6187 10.9893 79.4435 10.4955 79.1767 10.0505C78.9099 9.60554 78.5569 9.21839 78.1383 8.9118C77.7198 8.60523 77.2442 8.38541 76.7396 8.26524C76.7395 8.26523 76.7395 8.26522 76.7395 8.26522L75.4978 7.97007L75.3936 7.9453L75.3397 7.85275L74.6971 6.75047C74.6971 6.75043 74.6971 6.7504 74.697 6.75036C74.4354 6.30215 74.0868 5.91077 73.6718 5.59922C73.2567 5.28765 72.7835 5.06222 72.2801 4.93619C71.7766 4.81016 71.253 4.78607 70.7401 4.86534C70.2272 4.94461 69.7354 5.12564 69.2935 5.39777L69.2934 5.39785L68.2065 6.06627L68.1155 6.12224L68.0122 6.09515L66.7785 5.77171L66.7784 5.77168C66.2767 5.63989 65.7536 5.60973 65.24 5.68298C64.7264 5.75622 64.2326 5.93138 63.7877 6.19817C63.3428 6.46497 62.9557 6.81801 62.6491 7.23655C62.3426 7.65507 62.1228 8.13064 62.0026 8.63532C62.0026 8.63535 62.0026 8.63538 62.0026 8.63541L63.7194 23.6927ZM63.7194 23.6927L63.6151 23.668L62.3724 23.3736L63.7194 23.6927ZM59.4199 20.1359C59.3466 19.6223 59.3767 19.0993 59.5085 18.5975L62.3721 23.3736C61.8675 23.2534 61.392 23.0336 60.9736 22.727C60.555 22.4205 60.202 22.0333 59.9351 21.5883C59.6683 21.1434 59.4932 20.6496 59.4199 20.1359ZM67.2529 13.8572L68.2302 15.487L66.6005 16.4643C66.3806 16.5962 66.2221 16.81 66.1598 17.0587C66.0976 17.3075 66.1367 17.5707 66.2685 17.7906C66.4004 18.0106 66.6142 18.1691 66.8629 18.2313C67.1117 18.2936 67.3749 18.2545 67.5949 18.1227L69.2246 17.1454L70.2019 18.7753C70.3338 18.9952 70.5476 19.1537 70.7963 19.216C71.0451 19.2783 71.3083 19.2392 71.5282 19.1073C71.7482 18.9754 71.9067 18.7616 71.9689 18.5129C72.0312 18.2641 71.992 18.0009 71.8602 17.7809L70.8829 16.1511L72.5126 15.1738C72.7325 15.0419 72.891 14.8281 72.9533 14.5794C73.0155 14.3306 72.9764 14.0674 72.8446 13.8475C72.7127 13.6275 72.4989 13.469 72.2502 13.4068C72.0014 13.3445 71.7382 13.3836 71.5183 13.5154L69.8885 14.4927L68.9112 12.8628C68.7793 12.6429 68.5655 12.4844 68.3168 12.4221C68.068 12.3598 67.8048 12.3989 67.5849 12.5308C67.365 12.6627 67.2064 12.8765 67.1442 13.1252C67.0819 13.374 67.1211 13.6372 67.2529 13.8572Z" stroke="#F9CE00" stroke-width="0.5"/>
</svg>
