<svg width="30" height="30" viewBox="0 0 30 30" fill="none" xmlns="http://www.w3.org/2000/svg">
<path d="M27.1364 10.5821C24.4228 10.5821 23.3133 8.54798 24.6627 6.05298C25.4423 4.60684 24.9775 2.76341 23.6132 1.93704L21.0195 0.363763C19.8351 -0.383146 18.3058 0.0618207 17.6012 1.31726L17.4363 1.61921C16.087 4.1142 13.8681 4.1142 12.5037 1.61921L12.3388 1.31726C11.6642 0.0618207 10.1349 -0.383146 8.95052 0.363763L6.35682 1.93704C4.9925 2.76341 4.52774 4.62273 5.30735 6.06888C6.67166 8.54798 5.56222 10.5821 2.84858 10.5821C1.28936 10.5821 0 11.9329 0 13.6015V16.3985C0 18.0512 1.27436 19.4179 2.84858 19.4179C5.56222 19.4179 6.67166 21.452 5.30735 23.947C4.52774 25.3932 4.9925 27.2366 6.35682 28.063L8.95052 29.6362C10.1349 30.3831 11.6642 29.9382 12.3688 28.6827L12.5337 28.3808C13.8831 25.8858 16.1019 25.8858 17.4663 28.3808L17.6312 28.6827C18.3358 29.9382 19.8651 30.3831 21.0495 29.6362L23.6432 28.063C25.0075 27.2366 25.4723 25.3773 24.6927 23.947C23.3283 21.452 24.4378 19.4179 27.1514 19.4179C28.7106 19.4179 30 18.0671 30 16.3985V13.6015C29.985 11.9488 28.7106 10.5821 27.1364 10.5821ZM14.9925 20.1648C12.3088 20.1648 10.1199 17.8446 10.1199 15C10.1199 12.1554 12.3088 9.8352 14.9925 9.8352C17.6762 9.8352 19.8651 12.1554 19.8651 15C19.8651 17.8446 17.6762 20.1648 14.9925 20.1648Z" fill="#212121"/>
</svg>
